{
.appVersion = "3260";
.formatVersion = 3;
DisplayStrings = (
"1",
"/j.right",
"/j.left",
i
);
axes = (
{
name = weight;
tag = wght;
},
{
name = width;
tag = wdth;
},
{
name = slant;
tag = slnt;
}
);
classes = (
{
automatic = 1;

glyphs = (
{
glyphname = A;
lastChange = "2024-12-31 03:15:52 +0000";
layers = (
{
layerId = "759CA147-6E0D-4FC4-A3FB-2F1E1C6F2428";
shapes = (
{
closed = 1;
nodes = (
(584,1460,l),
(415,1460,l),
(44,0,l),
(200,0,l),
(492,1201,l),
(502,1201,l),
(794,0,l),
(957,0,l)
);
},
{
closed = 1;
nodes = (
(777,403,l),
(777,547,l),
(229,547,l),
(229,403,l)
);
}
);
width = 1000;
}
);
unicode = 65;
},
{
glyphname = Aacute;
lastChange = "2024-12-31 03:15:52 +0000";
layers = (
{
layerId = "759CA147-6E0D-4FC4-A3FB-2F1E1C6F2428";
shapes = (
{
closed = 1;
nodes = (
(584,1460,l),
(415,1460,l),
(44,0,l),
(200,0,l),
(492,1201,l),
(502,1201,l),
(794,0,l),
(957,0,l)
);
},
{
closed = 1;
nodes = (
(777,403,l),
(777,547,l),
(229,547,l),
(229,403,l)
);
},
{
closed = 1;
nodes = (
(598,1881,l),
(766,1881,l),
(563,1640,l),
(429,1640,l)
);
}
);
width = 1000;
}
);
unicode = 193;
},
{
glyphname = Abreve;
lastChange = "2024-12-31 03:15:52 +0000";
layers = (
{
layerId = "759CA147-6E0D-4FC4-A3FB-2F1E1C6F2428";
shapes = (
{
closed = 1;
nodes = (
(584,1460,l),
(415,1460,l),
(44,0,l),
(200,0,l),
(492,1201,l),
(502,1201,l),
(794,0,l),
(957,0,l)
);
},
{
closed = 1;
nodes = (
(777,403,l),
(777,547,l),
(229,547,l),
(229,403,l)
);
},
{
closed = 1;
nodes = (
(252,1727,o),
(335,1629,o),
(500,1629,cs),
(665,1629,o),
(748,1727,o),
(740,1881,c),
(639,1881,l),
(639,1798,o),
(599,1733,o),
(500,1733,cs),
(401,1733,o),
(361,1798,o),
(361,1881,c),
(260,1881,l)
);
}
);
width = 1000;
}
);
unicode = 258;
},
{
glyphname = Acircumflex;
lastChange = "2024-12-31 03:15:52 +0000";
layers = (
{
layerId = "759CA147-6E0D-4FC4-A3FB-2F1E1C6F2428";
shapes = (
{
closed = 1;
nodes = (
(584,1460,l),
(415,1460,l),
(44,0,l),
(200,0,l),
(492,1201,l),
(502,1201,l),
(794,0,l),
(957,0,l)
);
},
{
closed = 1;
nodes = (
(777,403,l),
(777,547,l),
(229,547,l),
(229,403,l)
);
},
{
closed = 1;
nodes = (
(361,1640,l),
(522,1844,l),
(478,1844,l),
(640,1640,l),
(786,1640,l),
(583,1881,l),
(417,1881,l),
(214,1640,l)
);
}
);
width = 1000;
}
);
unicode = 194;
},
{
glyphname = Adieresis;
lastChange = "2024-12-31 03:15:52 +0000";
layers = (
{
layerId = "759CA147-6E0D-4FC4-A3FB-2F1E1C6F2428";
shapes = (
{
closed = 1;
nodes = (
(584,1460,l),
(415,1460,l),
(44,0,l),
(200,0,l),
(492,1201,l),
(502,1201,l),
(794,0,l),
(957,0,l)
);
},
{
closed = 1;
nodes = (
(777,403,l),
(777,547,l),
(229,547,l),
(229,403,l)
);
},
{
closed = 1;
nodes = (
(351,1648,o),
(391,1692,o),
(391,1765,cs),
(391,1837,o),
(351,1880,o),
(293,1880,cs),
(234,1880,o),
(194,1837,o),
(194,1765,cs),
(194,1692,o),
(234,1648,o),
(293,1648,cs)
);
},
{
closed = 1;
nodes = (
(767,1648,o),
(807,1692,o),
(807,1765,cs),
(807,1837,o),
(767,1880,o),
(708,1880,cs),
(650,1880,o),
(609,1837,o),
(609,1765,cs),
(609,1692,o),
(650,1648,o),
(708,1648,cs)
);
}
);
width = 1000;
}
);
unicode = 196;
},
{
glyphname = Adotbelow;
lastChange = "2024-12-31 03:15:52 +0000";
layers = (
{
layerId = "759CA147-6E0D-4FC4-A3FB-2F1E1C6F2428";
shapes = (
{
closed = 1;
nodes = (
(584,1460,l),
(415,1460,l),
(44,0,l),
(200,0,l),
(492,1201,l),
(502,1201,l),
(794,0,l),
(957,0,l)
);
},
{
closed = 1;
nodes = (
(777,403,l),
(777,547,l),
(229,547,l),
(229,403,l)
);
},
{
closed = 1;
nodes = (
(566,-515,o),
(612,-466,o),
(612,-386,cs),
(612,-306,o),
(566,-258,o),
(500,-258,cs),
(434,-258,o),
(388,-306,o),
(388,-386,cs),
(388,-466,o),
(434,-515,o),
(500,-515,cs)
);
}
);
width = 1000;
}
);
unicode = 7840;
},
{
glyphname = Agrave;
lastChange = "2024-12-31 03:15:52 +0000";
layers = (
{
layerId = "759CA147-6E0D-4FC4-A3FB-2F1E1C6F2428";
shapes = (
{
closed = 1;
nodes = (
(584,1460,l),
(415,1460,l),
(44,0,l),
(200,0,l),
(492,1201,l),
(502,1201,l),
(794,0,l),
(957,0,l)
);
},
{
closed = 1;
nodes = (
(777,403,l),
(777,547,l),
(229,547,l),
(229,403,l)
);
},
{
closed = 1;
nodes = (
(402,1881,l),
(234,1881,l),
(437,1640,l),
(571,1640,l)
);
}
);
width = 1000;
}
);
unicode = 192;
},
{
glyphname = Amacron;
lastChange = "2024-12-31 03:15:52 +0000";
layers = (
{
layerId = "759CA147-6E0D-4FC4-A3FB-2F1E1C6F2428";
shapes = (
{
closed = 1;
nodes = (
(584,1460,l),
(415,1460,l),
(44,0,l),
(200,0,l),
(492,1201,l),
(502,1201,l),
(794,0,l),
(957,0,l)
);
},
{
closed = 1;
nodes = (
(777,403,l),
(777,547,l),
(229,547,l),
(229,403,l)
);
},
{
closed = 1;
nodes = (
(241,1849,l),
(241,1718,l),
(759,1718,l),
(759,1849,l)
);
}
);
width = 1000;
}
);
unicode = 256;
},
{
glyphname = Aogonek;
lastChange = "2024-12-31 03:15:52 +0000";
layers = (
{
layerId = "759CA147-6E0D-4FC4-A3FB-2F1E1C6F2428";
shapes = (
{
closed = 1;
nodes = (
(584,1460,l),
(415,1460,l),
(44,0,l),
(200,0,l),
(492,1201,l),
(502,1201,l),
(794,0,l),
(957,0,l)
);
},
{
closed = 1;
nodes = (
(777,403,l),
(777,547,l),
(229,547,l),
(229,403,l)
);
},
{
closed = 1;
nodes = (
(759,-67,o),
(710,-150,o),
(710,-247,cs),
(710,-331,o),
(747,-414,o),
(898,-414,cs),
(957,-414,l),
(957,-282,l),
(933,-282,ls),
(866,-282,o),
(844,-252,o),
(844,-206,cs),
(844,-153,o),
(873,-88,o),
(957,0,c),
(862,37,l)
);
}
);
width = 1000;
}
);
unicode = 260;
},
{
glyphname = Aring;
lastChange = "2024-12-31 03:15:52 +0000";
layers = (
{
layerId = "759CA147-6E0D-4FC4-A3FB-2F1E1C6F2428";
shapes = (
{
closed = 1;
nodes = (
(584,1460,l),
(415,1460,l),
(44,0,l),
(200,0,l),
(492,1201,l),
(502,1201,l),
(794,0,l),
(957,0,l)
);
},
{
closed = 1;
nodes = (
(777,403,l),
(777,547,l),
(229,547,l),
(229,403,l)
);
},
{
closed = 1;
nodes = (
(607,1422,o),
(683,1521,o),
(683,1655,cs),
(683,1790,o),
(607,1888,o),
(500,1888,cs),
(393,1888,o),
(317,1790,o),
(317,1655,cs),
(317,1521,o),
(393,1422,o),
(500,1422,cs)
);
},
{
closed = 1;
nodes = (
(435,1519,o),
(393,1577,o),
(393,1655,cs),
(393,1733,o),
(435,1791,o),
(500,1791,cs),
(565,1791,o),
(606,1733,o),
(606,1655,cs),
(606,1577,o),
(565,1519,o),
(500,1519,cs)
);
}
);
width = 1000;
}
);
unicode = 197;
},
{
glyphname = Atilde;
lastChange = "2024-12-31 03:15:52 +0000";
layers = (
{
layerId = "759CA147-6E0D-4FC4-A3FB-2F1E1C6F2428";
shapes = (
{
closed = 1;
nodes = (
(584,1460,l),
(415,1460,l),
(44,0,l),
(200,0,l),
(492,1201,l),
(502,1201,l),
(794,0,l),
(957,0,l)
);
},
{
closed = 1;
nodes = (
(777,403,l),
(777,547,l),
(229,547,l),
(229,403,l)
);
},
{
closed = 1;
nodes = (
(271,1897,o),
(208,1816,o),
(192,1673,c),
(297,1642,l),
(310,1726,o),
(343,1771,o),
(390,1771,cs),
(472,1771,o),
(507,1628,o),
(633,1628,cs),
(728,1628,o),
(792,1709,o),
(808,1853,c),
(703,1883,l),
(690,1799,o),
(658,1754,o),
(611,1754,cs),
(528,1754,o),
(492,1897,o),
(366,1897,cs)
);
}
);
width = 1000;
}
);
unicode = 195;
},
{
glyphname = AE;
lastChange = "2024-12-31 03:15:52 +0000";
layers = (
{
layerId = "759CA147-6E0D-4FC4-A3FB-2F1E1C6F2428";
shapes = (
{
closed = 1;
nodes = (
(659,1460,l),
(511,1460,l),
(511,0,l),
(659,0,l)
);
},
{
closed = 1;
nodes = (
(552,1460,l),
(331,1460,l),
(44,0,l),
(199,0,l),
(440,1296,l),
(552,1296,l)
);
},
{
closed = 1;
nodes = (
(600,399,l),
(600,547,l),
(223,547,l),
(223,399,l)
);
},
{
closed = 1;
nodes = (
(603,163,l),
(603,0,l),
(952,0,l),
(970,163,l)
);
},
{
closed = 1;
nodes = (
(611,818,l),
(611,662,l),
(860,662,l),
(860,818,l)
);
},
{
closed = 1;
nodes = (
(952,1460,l),
(603,1460,l),
(603,1297,l),
(970,1297,l)
);
}
);
width = 1000;
}
);
unicode = 198;
},
{
glyphname = AEacute;
lastChange = "2024-12-31 03:15:52 +0000";
layers = (
{
layerId = "759CA147-6E0D-4FC4-A3FB-2F1E1C6F2428";
shapes = (
{
closed = 1;
nodes = (
(659,1460,l),
(511,1460,l),
(511,0,l),
(659,0,l)
);
},
{
closed = 1;
nodes = (
(552,1460,l),
(331,1460,l),
(44,0,l),
(199,0,l),
(440,1296,l),
(552,1296,l)
);
},
{
closed = 1;
nodes = (
(600,399,l),
(600,547,l),
(223,547,l),
(223,399,l)
);
},
{
closed = 1;
nodes = (
(603,163,l),
(603,0,l),
(952,0,l),
(970,163,l)
);
},
{
closed = 1;
nodes = (
(611,818,l),
(611,662,l),
(860,662,l),
(860,818,l)
);
},
{
closed = 1;
nodes = (
(952,1460,l),
(603,1460,l),
(603,1297,l),
(970,1297,l)
);
},
{
closed = 1;
nodes = (
(715,1881,l),
(883,1881,l),
(680,1640,l),
(547,1640,l)
);
}
);
width = 1000;
}
);
unicode = 508;
},
{
glyphname = B;
lastChange = "2024-12-31 03:15:52 +0000";
layers = (
{
layerId = "759CA147-6E0D-4FC4-A3FB-2F1E1C6F2428";
shapes = (
{
closed = 1;
nodes = (
(309,1460,l),
(151,1460,l),
(151,0,l),
(309,0,l)
);
},
{
closed = 1;
nodes = (
(257,1460,l),
(257,1310,l),
(508,1310,ls),
(632,1310,o),
(694,1256,o),
(694,1134,cs),
(694,968,o),
(581,850,o),
(365,816,cs),
(295,806,l),
(298,707,l),
(347,706,ls),
(565,699,o),
(759,628,o),
(759,406,cs),
(759,258,o),
(672,150,o),
(508,150,cs),
(277,150,l),
(277,0,l),
(497,0,ls),
(759,0,o),
(920,152,o),
(920,411,cs),
(920,676,o),
(749,761,o),
(552,789,c),
(552,796,l),
(699,836,o),
(853,943,o),
(853,1168,cs),
(853,1379,o),
(718,1461,o),
(531,1460,c)
);
}
);
width = 1000;
}
);
unicode = 66;
},
{
glyphname = C;
lastChange = "2024-12-31 07:39:41 +0000";
layers = (
{
layerId = "759CA147-6E0D-4FC4-A3FB-2F1E1C6F2428";
shapes = (
{
closed = 1;
nodes = (
(264,1460,o),
(112,1178,o),
(112,723,cs),
(112,168,o),
(357,0,o),
(650,0,cs),
(756,0,o),
(843,26,o),
(890,46,c),
(900,217,l),
(836,189,o),
(756,169,o),
(674,169,cs),
(484,169,o),
(270,264,o),
(270,780,cs),
(270,1099,o),
(359,1180,o),
(398,1217,cs),
(443,1259,o),
(503,1283,o),
(623,1283,cs),
(747,1283,o),
(839,1258,o),
(900,1240,c),
(894,1426,l),
(827,1446,o),
(756,1460,o),
(674,1460,cs)
);
}
);
width = 1000;
}
);
unicode = 67;
},
{
glyphname = Cacute;
lastChange = "2024-12-31 03:15:52 +0000";
layers = (
{
layerId = "759CA147-6E0D-4FC4-A3FB-2F1E1C6F2428";
shapes = (
{
closed = 1;
nodes = (
(264,1483,o),
(112,1178,o),
(112,723,cs),
(112,168,o),
(357,-26,o),
(650,-26,cs),
(756,-26,o),
(843,0,o),
(890,20,c),
(900,191,l),
(836,163,o),
(756,143,o),
(674,143,cs),
(484,143,o),
(270,264,o),
(270,780,cs),
(270,1099,o),
(359,1203,o),
(398,1240,cs),
(443,1282,o),
(503,1306,o),
(623,1306,cs),
(747,1306,o),
(839,1281,o),
(900,1263,c),
(894,1449,l),
(827,1469,o),
(756,1483,o),
(674,1483,cs)
);
},
{
closed = 1;
nodes = (
(686,1881,l),
(855,1881,l),
(652,1640,l),
(518,1640,l)
);
}
);
width = 1000;
}
);
unicode = 262;
},
{
glyphname = Ccaron;
lastChange = "2024-12-31 03:15:52 +0000";
layers = (
{
layerId = "759CA147-6E0D-4FC4-A3FB-2F1E1C6F2428";
shapes = (
{
closed = 1;
nodes = (
(264,1483,o),
(112,1178,o),
(112,723,cs),
(112,168,o),
(357,-26,o),
(650,-26,cs),
(756,-26,o),
(843,0,o),
(890,20,c),
(900,191,l),
(836,163,o),
(756,143,o),
(674,143,cs),
(484,143,o),
(270,264,o),
(270,780,cs),
(270,1099,o),
(359,1203,o),
(398,1240,cs),
(443,1282,o),
(503,1306,o),
(623,1306,cs),
(747,1306,o),
(839,1281,o),
(900,1263,c),
(894,1449,l),
(827,1469,o),
(756,1483,o),
(674,1483,cs)
);
},
{
closed = 1;
nodes = (
(449,1881,l),
(611,1677,l),
(567,1677,l),
(728,1881,l),
(875,1881,l),
(672,1640,l),
(506,1640,l),
(302,1881,l)
);
}
);
width = 1000;
}
);
unicode = 268;
},
{
glyphname = Ccedilla;
lastChange = "2024-12-31 03:15:52 +0000";
layers = (
{
layerId = "759CA147-6E0D-4FC4-A3FB-2F1E1C6F2428";
shapes = (
{
closed = 1;
nodes = (
(264,1483,o),
(112,1178,o),
(112,723,cs),
(112,168,o),
(357,-26,o),
(650,-26,cs),
(756,-26,o),
(843,0,o),
(890,20,c),
(900,191,l),
(836,163,o),
(756,143,o),
(674,143,cs),
(484,143,o),
(270,264,o),
(270,780,cs),
(270,1099,o),
(359,1203,o),
(398,1240,cs),
(443,1282,o),
(503,1306,o),
(623,1306,cs),
(747,1306,o),
(839,1281,o),
(900,1263,c),
(894,1449,l),
(827,1469,o),
(756,1483,o),
(674,1483,cs)
);
},
{
closed = 1;
nodes = (
(607,-220,l),
(604,48,l),
(507,48,l),
(507,-260,l),
(581,-269,o),
(627,-298,o),
(627,-373,cs),
(627,-436,o),
(595,-473,o),
(495,-473,cs),
(456,-473,l),
(456,-589,l),
(515,-589,ls),
(696,-589,o),
(747,-513,o),
(747,-385,cs),
(747,-247,o),
(687,-190,o),
(582,-168,c)
);
}
);
width = 1000;
}
);
unicode = 199;
},
{
glyphname = Ccircumflex;
lastChange = "2024-12-31 03:15:52 +0000";
layers = (
{
layerId = "759CA147-6E0D-4FC4-A3FB-2F1E1C6F2428";
shapes = (
{
closed = 1;
nodes = (
(264,1483,o),
(112,1178,o),
(112,723,cs),
(112,168,o),
(357,-26,o),
(650,-26,cs),
(756,-26,o),
(843,0,o),
(890,20,c),
(900,191,l),
(836,163,o),
(756,143,o),
(674,143,cs),
(484,143,o),
(270,264,o),
(270,780,cs),
(270,1099,o),
(359,1203,o),
(398,1240,cs),
(443,1282,o),
(503,1306,o),
(623,1306,cs),
(747,1306,o),
(839,1281,o),
(900,1263,c),
(894,1449,l),
(827,1469,o),
(756,1483,o),
(674,1483,cs)
);
},
{
closed = 1;
nodes = (
(449,1640,l),
(611,1844,l),
(567,1844,l),
(728,1640,l),
(875,1640,l),
(672,1881,l),
(506,1881,l),
(302,1640,l)
);
}
);
width = 1000;
}
);
unicode = 264;
},
{
glyphname = Cdotaccent;
lastChange = "2024-12-31 03:15:52 +0000";
layers = (
{
layerId = "759CA147-6E0D-4FC4-A3FB-2F1E1C6F2428";
shapes = (
{
closed = 1;
nodes = (
(264,1483,o),
(112,1178,o),
(112,723,cs),
(112,168,o),
(357,-26,o),
(650,-26,cs),
(756,-26,o),
(843,0,o),
(890,20,c),
(900,191,l),
(836,163,o),
(756,143,o),
(674,143,cs),
(484,143,o),
(270,264,o),
(270,780,cs),
(270,1099,o),
(359,1203,o),
(398,1240,cs),
(443,1282,o),
(503,1306,o),
(623,1306,cs),
(747,1306,o),
(839,1281,o),
(900,1263,c),
(894,1449,l),
(827,1469,o),
(756,1483,o),
(674,1483,cs)
);
},
{
closed = 1;
nodes = (
(648,1648,o),
(689,1692,o),
(689,1765,cs),
(689,1837,o),
(648,1880,o),
(588,1880,cs),
(528,1880,o),
(486,1837,o),
(486,1765,cs),
(486,1692,o),
(528,1648,o),
(588,1648,cs)
);
}
);
width = 1000;
}
);
unicode = 266;
},
{
glyphname = D;
lastChange = "2024-12-31 03:15:52 +0000";
layers = (
{
layerId = "759CA147-6E0D-4FC4-A3FB-2F1E1C6F2428";
shapes = (
{
closed = 1;
nodes = (
(302,1460,l),
(147,1460,l),
(147,0,l),
(302,0,l)
);
},
{
closed = 1;
nodes = (
(228,1304,l),
(396,1304,ls),
(644,1304,o),
(731,1151,o),
(731,719,cs),
(731,388,o),
(677,283,o),
(632,239,cs),
(586,195,o),
(506,167,o),
(390,167,cs),
(228,167,l),
(228,0,l),
(369,0,ls),
(730,0,o),
(898,265,o),
(898,756,cs),
(898,1219,o),
(742,1460,o),
(411,1460,cs),
(228,1460,l)
);
}
);
width = 1000;
}
);
unicode = 68;
},
{
glyphname = Dcaron;
lastChange = "2024-12-31 03:15:52 +0000";
layers = (
{
layerId = "759CA147-6E0D-4FC4-A3FB-2F1E1C6F2428";
shapes = (
{
closed = 1;
nodes = (
(302,1460,l),
(147,1460,l),
(147,0,l),
(302,0,l)
);
},
{
closed = 1;
nodes = (
(228,1304,l),
(396,1304,ls),
(644,1304,o),
(731,1151,o),
(731,719,cs),
(731,388,o),
(677,283,o),
(632,239,cs),
(586,195,o),
(506,167,o),
(390,167,cs),
(228,167,l),
(228,0,l),
(369,0,ls),
(730,0,o),
(898,265,o),
(898,756,cs),
(898,1219,o),
(742,1460,o),
(411,1460,cs),
(228,1460,l)
);
},
{
closed = 1;
nodes = (
(361,1881,l),
(522,1677,l),
(478,1677,l),
(640,1881,l),
(786,1881,l),
(583,1640,l),
(417,1640,l),
(214,1881,l)
);
}
);
width = 1000;
}
);
unicode = 270;
},
{
glyphname = Dcroat;
lastChange = "2024-12-31 03:15:52 +0000";
layers = (
{
layerId = "759CA147-6E0D-4FC4-A3FB-2F1E1C6F2428";
shapes = (
{
closed = 1;
nodes = (
(25,832,l),
(25,668,l),
(533,668,l),
(533,832,l)
);
},
{
closed = 1;
nodes = (
(302,1460,l),
(147,1460,l),
(147,0,l),
(302,0,l)
);
},
{
closed = 1;
nodes = (
(228,1304,l),
(396,1304,ls),
(644,1304,o),
(731,1151,o),
(731,719,cs),
(731,388,o),
(677,283,o),
(632,239,cs),
(586,195,o),
(506,167,o),
(390,167,cs),
(228,167,l),
(228,0,l),
(369,0,ls),
(730,0,o),
(898,265,o),
(898,756,cs),
(898,1219,o),
(742,1460,o),
(411,1460,cs),
(228,1460,l)
);
}
);
width = 1000;
}
);
unicode = 272;
},
{
glyphname = Eth;
lastChange = "2024-12-31 03:15:52 +0000";
layers = (
{
layerId = "759CA147-6E0D-4FC4-A3FB-2F1E1C6F2428";
shapes = (
{
closed = 1;
nodes = (
(25,832,l),
(25,668,l),
(533,668,l),
(533,832,l)
);
},
{
closed = 1;
nodes = (
(302,1460,l),
(147,1460,l),
(147,0,l),
(302,0,l)
);
},
{
closed = 1;
nodes = (
(228,1304,l),
(396,1304,ls),
(644,1304,o),
(731,1151,o),
(731,719,cs),
(731,388,o),
(677,283,o),
(632,239,cs),
(586,195,o),
(506,167,o),
(390,167,cs),
(228,167,l),
(228,0,l),
(369,0,ls),
(730,0,o),
(898,265,o),
(898,756,cs),
(898,1219,o),
(742,1460,o),
(411,1460,cs),
(228,1460,l)
);
}
);
width = 1000;
}
);
unicode = 208;
},
{
glyphname = E;
lastChange = "2024-12-31 03:15:52 +0000";
layers = (
{
layerId = "759CA147-6E0D-4FC4-A3FB-2F1E1C6F2428";
shapes = (
{
closed = 1;
nodes = (
(311,1460,l),
(155,1460,l),
(155,0,l),
(311,0,l)
);
},
{
closed = 1;
nodes = (
(244,163,l),
(244,0,l),
(865,0,l),
(884,163,l)
);
},
{
closed = 1;
nodes = (
(252,818,l),
(252,662,l),
(773,662,l),
(773,818,l)
);
},
{
closed = 1;
nodes = (
(865,1460,l),
(244,1460,l),
(244,1297,l),
(884,1297,l)
);
}
);
width = 1000;
}
);
unicode = 69;
},
{
glyphname = Eacute;
lastChange = "2024-12-31 03:15:52 +0000";
layers = (
{
layerId = "759CA147-6E0D-4FC4-A3FB-2F1E1C6F2428";
shapes = (
{
closed = 1;
nodes = (
(311,1460,l),
(155,1460,l),
(155,0,l),
(311,0,l)
);
},
{
closed = 1;
nodes = (
(244,163,l),
(244,0,l),
(865,0,l),
(884,163,l)
);
},
{
closed = 1;
nodes = (
(252,818,l),
(252,662,l),
(773,662,l),
(773,818,l)
);
},
{
closed = 1;
nodes = (
(865,1460,l),
(244,1460,l),
(244,1297,l),
(884,1297,l)
);
},
{
closed = 1;
nodes = (
(598,1881,l),
(766,1881,l),
(563,1640,l),
(429,1640,l)
);
}
);
width = 1000;
}
);
unicode = 201;
},
{
glyphname = Ebreve;
lastChange = "2024-12-31 03:15:52 +0000";
layers = (
{
layerId = "759CA147-6E0D-4FC4-A3FB-2F1E1C6F2428";
shapes = (
{
closed = 1;
nodes = (
(311,1460,l),
(155,1460,l),
(155,0,l),
(311,0,l)
);
},
{
closed = 1;
nodes = (
(244,163,l),
(244,0,l),
(865,0,l),
(884,163,l)
);
},
{
closed = 1;
nodes = (
(252,818,l),
(252,662,l),
(773,662,l),
(773,818,l)
);
},
{
closed = 1;
nodes = (
(865,1460,l),
(244,1460,l),
(244,1297,l),
(884,1297,l)
);
},
{
closed = 1;
nodes = (
(252,1727,o),
(335,1629,o),
(500,1629,cs),
(665,1629,o),
(748,1727,o),
(740,1881,c),
(639,1881,l),
(639,1798,o),
(599,1733,o),
(500,1733,cs),
(401,1733,o),
(361,1798,o),
(361,1881,c),
(260,1881,l)
);
}
);
width = 1000;
}
);
unicode = 276;
},
{
glyphname = Ecaron;
lastChange = "2024-12-31 03:15:52 +0000";
layers = (
{
layerId = "759CA147-6E0D-4FC4-A3FB-2F1E1C6F2428";
shapes = (
{
closed = 1;
nodes = (
(311,1460,l),
(155,1460,l),
(155,0,l),
(311,0,l)
);
},
{
closed = 1;
nodes = (
(244,163,l),
(244,0,l),
(865,0,l),
(884,163,l)
);
},
{
closed = 1;
nodes = (
(252,818,l),
(252,662,l),
(773,662,l),
(773,818,l)
);
},
{
closed = 1;
nodes = (
(865,1460,l),
(244,1460,l),
(244,1297,l),
(884,1297,l)
);
},
{
closed = 1;
nodes = (
(361,1881,l),
(522,1677,l),
(478,1677,l),
(640,1881,l),
(786,1881,l),
(583,1640,l),
(417,1640,l),
(214,1881,l)
);
}
);
width = 1000;
}
);
unicode = 282;
},
{
glyphname = Ecircumflex;
lastChange = "2024-12-31 03:15:52 +0000";
layers = (
{
layerId = "759CA147-6E0D-4FC4-A3FB-2F1E1C6F2428";
shapes = (
{
closed = 1;
nodes = (
(311,1460,l),
(155,1460,l),
(155,0,l),
(311,0,l)
);
},
{
closed = 1;
nodes = (
(244,163,l),
(244,0,l),
(865,0,l),
(884,163,l)
);
},
{
closed = 1;
nodes = (
(252,818,l),
(252,662,l),
(773,662,l),
(773,818,l)
);
},
{
closed = 1;
nodes = (
(865,1460,l),
(244,1460,l),
(244,1297,l),
(884,1297,l)
);
},
{
closed = 1;
nodes = (
(361,1640,l),
(522,1844,l),
(478,1844,l),
(640,1640,l),
(786,1640,l),
(583,1881,l),
(417,1881,l),
(214,1640,l)
);
}
);
width = 1000;
}
);
unicode = 202;
},
{
glyphname = Edieresis;
lastChange = "2024-12-31 03:15:52 +0000";
layers = (
{
layerId = "759CA147-6E0D-4FC4-A3FB-2F1E1C6F2428";
shapes = (
{
closed = 1;
nodes = (
(311,1460,l),
(155,1460,l),
(155,0,l),
(311,0,l)
);
},
{
closed = 1;
nodes = (
(244,163,l),
(244,0,l),
(865,0,l),
(884,163,l)
);
},
{
closed = 1;
nodes = (
(252,818,l),
(252,662,l),
(773,662,l),
(773,818,l)
);
},
{
closed = 1;
nodes = (
(865,1460,l),
(244,1460,l),
(244,1297,l),
(884,1297,l)
);
},
{
closed = 1;
nodes = (
(351,1648,o),
(391,1692,o),
(391,1765,cs),
(391,1837,o),
(351,1880,o),
(293,1880,cs),
(234,1880,o),
(194,1837,o),
(194,1765,cs),
(194,1692,o),
(234,1648,o),
(293,1648,cs)
);
},
{
closed = 1;
nodes = (
(767,1648,o),
(807,1692,o),
(807,1765,cs),
(807,1837,o),
(767,1880,o),
(708,1880,cs),
(650,1880,o),
(609,1837,o),
(609,1765,cs),
(609,1692,o),
(650,1648,o),
(708,1648,cs)
);
}
);
width = 1000;
}
);
unicode = 203;
},
{
glyphname = Edotaccent;
lastChange = "2024-12-31 03:15:52 +0000";
layers = (
{
layerId = "759CA147-6E0D-4FC4-A3FB-2F1E1C6F2428";
shapes = (
{
closed = 1;
nodes = (
(311,1460,l),
(155,1460,l),
(155,0,l),
(311,0,l)
);
},
{
closed = 1;
nodes = (
(244,163,l),
(244,0,l),
(865,0,l),
(884,163,l)
);
},
{
closed = 1;
nodes = (
(252,818,l),
(252,662,l),
(773,662,l),
(773,818,l)
);
},
{
closed = 1;
nodes = (
(865,1460,l),
(244,1460,l),
(244,1297,l),
(884,1297,l)
);
},
{
closed = 1;
nodes = (
(559,1648,o),
(600,1692,o),
(600,1765,cs),
(600,1837,o),
(559,1880,o),
(499,1880,cs),
(440,1880,o),
(398,1837,o),
(398,1765,cs),
(398,1692,o),
(440,1648,o),
(499,1648,cs)
);
}
);
width = 1000;
}
);
unicode = 278;
},
{
glyphname = Edotbelow;
lastChange = "2024-12-31 03:15:52 +0000";
layers = (
{
layerId = "759CA147-6E0D-4FC4-A3FB-2F1E1C6F2428";
shapes = (
{
closed = 1;
nodes = (
(311,1460,l),
(155,1460,l),
(155,0,l),
(311,0,l)
);
},
{
closed = 1;
nodes = (
(244,163,l),
(244,0,l),
(865,0,l),
(884,163,l)
);
},
{
closed = 1;
nodes = (
(252,818,l),
(252,662,l),
(773,662,l),
(773,818,l)
);
},
{
closed = 1;
nodes = (
(865,1460,l),
(244,1460,l),
(244,1297,l),
(884,1297,l)
);
},
{
closed = 1;
nodes = (
(566,-515,o),
(612,-466,o),
(612,-386,cs),
(612,-306,o),
(566,-258,o),
(500,-258,cs),
(434,-258,o),
(388,-306,o),
(388,-386,cs),
(388,-466,o),
(434,-515,o),
(500,-515,cs)
);
}
);
width = 1000;
}
);
unicode = 7864;
},
{
glyphname = Egrave;
lastChange = "2024-12-31 03:15:52 +0000";
layers = (
{
layerId = "759CA147-6E0D-4FC4-A3FB-2F1E1C6F2428";
shapes = (
{
closed = 1;
nodes = (
(311,1460,l),
(155,1460,l),
(155,0,l),
(311,0,l)
);
},
{
closed = 1;
nodes = (
(244,163,l),
(244,0,l),
(865,0,l),
(884,163,l)
);
},
{
closed = 1;
nodes = (
(252,818,l),
(252,662,l),
(773,662,l),
(773,818,l)
);
},
{
closed = 1;
nodes = (
(865,1460,l),
(244,1460,l),
(244,1297,l),
(884,1297,l)
);
},
{
closed = 1;
nodes = (
(402,1881,l),
(234,1881,l),
(437,1640,l),
(571,1640,l)
);
}
);
width = 1000;
}
);
unicode = 200;
},
{
glyphname = Emacron;
lastChange = "2024-12-31 03:15:52 +0000";
layers = (
{
layerId = "759CA147-6E0D-4FC4-A3FB-2F1E1C6F2428";
shapes = (
{
closed = 1;
nodes = (
(311,1460,l),
(155,1460,l),
(155,0,l),
(311,0,l)
);
},
{
closed = 1;
nodes = (
(244,163,l),
(244,0,l),
(865,0,l),
(884,163,l)
);
},
{
closed = 1;
nodes = (
(252,818,l),
(252,662,l),
(773,662,l),
(773,818,l)
);
},
{
closed = 1;
nodes = (
(865,1460,l),
(244,1460,l),
(244,1297,l),
(884,1297,l)
);
},
{
closed = 1;
nodes = (
(241,1849,l),
(241,1718,l),
(759,1718,l),
(759,1849,l)
);
}
);
width = 1000;
}
);
unicode = 274;
},
{
glyphname = Eogonek;
lastChange = "2024-12-31 03:15:52 +0000";
layers = (
{
layerId = "759CA147-6E0D-4FC4-A3FB-2F1E1C6F2428";
shapes = (
{
closed = 1;
nodes = (
(311,1460,l),
(155,1460,l),
(155,0,l),
(311,0,l)
);
},
{
closed = 1;
nodes = (
(244,163,l),
(244,0,l),
(865,0,l),
(884,163,l)
);
},
{
closed = 1;
nodes = (
(252,818,l),
(252,662,l),
(773,662,l),
(773,818,l)
);
},
{
closed = 1;
nodes = (
(865,1460,l),
(244,1460,l),
(244,1297,l),
(884,1297,l)
);
},
{
closed = 1;
nodes = (
(668,-67,o),
(618,-150,o),
(618,-247,cs),
(618,-331,o),
(655,-414,o),
(807,-414,cs),
(865,-414,l),
(865,-282,l),
(841,-282,ls),
(774,-282,o),
(752,-252,o),
(752,-206,cs),
(752,-153,o),
(781,-88,o),
(865,0,c),
(770,37,l)
);
}
);
width = 1000;
}
);
unicode = 280;
},
{
glyphname = Etilde;
lastChange = "2024-12-31 03:15:52 +0000";
layers = (
{
layerId = "759CA147-6E0D-4FC4-A3FB-2F1E1C6F2428";
shapes = (
{
closed = 1;
nodes = (
(311,1460,l),
(155,1460,l),
(155,0,l),
(311,0,l)
);
},
{
closed = 1;
nodes = (
(244,163,l),
(244,0,l),
(865,0,l),
(884,163,l)
);
},
{
closed = 1;
nodes = (
(252,818,l),
(252,662,l),
(773,662,l),
(773,818,l)
);
},
{
closed = 1;
nodes = (
(865,1460,l),
(244,1460,l),
(244,1297,l),
(884,1297,l)
);
},
{
closed = 1;
nodes = (
(271,1897,o),
(208,1816,o),
(192,1673,c),
(297,1642,l),
(310,1726,o),
(343,1771,o),
(390,1771,cs),
(472,1771,o),
(507,1628,o),
(633,1628,cs),
(728,1628,o),
(792,1709,o),
(808,1853,c),
(703,1883,l),
(690,1799,o),
(658,1754,o),
(611,1754,cs),
(528,1754,o),
(492,1897,o),
(366,1897,cs)
);
}
);
width = 1000;
}
);
unicode = 7868;
},
{
glyphname = Schwa;
lastChange = "2024-12-31 03:15:52 +0000";
layers = (
{
layerId = "759CA147-6E0D-4FC4-A3FB-2F1E1C6F2428";
shapes = (
{
closed = 1;
nodes = (
(734,-19,o),
(902,234,o),
(902,760,cs),
(902,1296,o),
(751,1484,o),
(419,1484,cs),
(287,1484,o),
(190,1449,o),
(128,1421,c),
(121,1271,l),
(184,1298,o),
(269,1324,o),
(377,1324,cs),
(684,1324,o),
(740,1141,o),
(740,816,cs),
(740,335,o),
(686,232,o),
(657,195,cs),
(627,159,o),
(579,128,o),
(506,128,cs),
(317,128,o),
(268,346,o),
(262,667,c),
(206,611,l),
(812,611,l),
(812,768,l),
(97,768,l),
(97,375,o),
(170,-19,o),
(486,-19,cs)
);
}
);
width = 1000;
}
);
unicode = 399;
},
{
glyphname = F;
lastChange = "2024-12-31 03:15:52 +0000";
layers = (
{
layerId = "759CA147-6E0D-4FC4-A3FB-2F1E1C6F2428";
shapes = (
{
closed = 1;
nodes = (
(319,1460,l),
(163,1460,l),
(163,0,l),
(319,0,l)
);
},
{
closed = 1;
nodes = (
(260,777,l),
(260,624,l),
(788,624,l),
(799,777,l)
);
},
{
closed = 1;
nodes = (
(886,1460,l),
(252,1460,l),
(252,1302,l),
(904,1302,l)
);
}
);
width = 1000;
}
);
unicode = 70;
},
{
glyphname = G;
lastChange = "2024-12-31 07:39:05 +0000";
layers = (
{
layerId = "759CA147-6E0D-4FC4-A3FB-2F1E1C6F2428";
shapes = (
{
closed = 1;
nodes = (
(880,1431,l),
(818,1450,o),
(752,1460,o),
(679,1460,cs),
(265,1460,o),
(106,1179,o),
(106,711,cs),
(106,189,o),
(305,0,o),
(613,0,cs),
(723,0,o),
(821,28,o),
(893,53,c),
(892,768,l),
(531,768,l),
(513,611,l),
(799,611,l),
(752,666,l),
(752,127,l),
(784,179,l),
(732,164,o),
(676,153,o),
(615,153,cs),
(415,153,o),
(262,284,o),
(262,753,cs),
(262,1069,o),
(335,1163,o),
(388,1213,cs),
(438,1260,o),
(508,1285,o),
(636,1285,cs),
(739,1285,o),
(828,1264,o),
(890,1248,c)
);
}
);
width = 1000;
}
);
unicode = 71;
},
{
glyphname = Gbreve;
lastChange = "2024-12-31 03:15:52 +0000";
layers = (
{
layerId = "759CA147-6E0D-4FC4-A3FB-2F1E1C6F2428";
shapes = (
{
closed = 1;
nodes = (
(880,1454,l),
(818,1473,o),
(752,1483,o),
(679,1483,cs),
(265,1483,o),
(106,1179,o),
(106,711,cs),
(106,189,o),
(305,-24,o),
(613,-24,cs),
(723,-24,o),
(821,4,o),
(893,29,c),
(892,768,l),
(531,768,l),
(513,611,l),
(799,611,l),
(752,666,l),
(752,103,l),
(784,155,l),
(732,140,o),
(676,129,o),
(615,129,cs),
(415,129,o),
(262,284,o),
(262,753,cs),
(262,1069,o),
(335,1186,o),
(388,1236,cs),
(438,1283,o),
(508,1308,o),
(636,1308,cs),
(739,1308,o),
(828,1287,o),
(890,1271,c)
);
},
{
closed = 1;
nodes = (
(344,1727,o),
(426,1629,o),
(591,1629,cs),
(757,1629,o),
(839,1727,o),
(832,1881,c),
(730,1881,l),
(730,1798,o),
(691,1733,o),
(591,1733,cs),
(492,1733,o),
(452,1798,o),
(452,1881,c),
(351,1881,l)
);
}
);
width = 1000;
}
);
unicode = 286;
},
{
glyphname = Gcaron;
lastChange = "2024-12-31 03:15:52 +0000";
layers = (
{
layerId = "759CA147-6E0D-4FC4-A3FB-2F1E1C6F2428";
shapes = (
{
closed = 1;
nodes = (
(880,1454,l),
(818,1473,o),
(752,1483,o),
(679,1483,cs),
(265,1483,o),
(106,1179,o),
(106,711,cs),
(106,189,o),
(305,-24,o),
(613,-24,cs),
(723,-24,o),
(821,4,o),
(893,29,c),
(892,768,l),
(531,768,l),
(513,611,l),
(799,611,l),
(752,666,l),
(752,103,l),
(784,155,l),
(732,140,o),
(676,129,o),
(615,129,cs),
(415,129,o),
(262,284,o),
(262,753,cs),
(262,1069,o),
(335,1186,o),
(388,1236,cs),
(438,1283,o),
(508,1308,o),
(636,1308,cs),
(739,1308,o),
(828,1287,o),
(890,1271,c)
);
},
{
closed = 1;
nodes = (
(452,1881,l),
(613,1677,l),
(570,1677,l),
(731,1881,l),
(877,1881,l),
(674,1640,l),
(508,1640,l),
(305,1881,l)
);
}
);
width = 1000;
}
);
unicode = 486;
},
{
glyphname = Gcircumflex;
lastChange = "2024-12-31 03:15:52 +0000";
layers = (
{
layerId = "759CA147-6E0D-4FC4-A3FB-2F1E1C6F2428";
shapes = (
{
closed = 1;
nodes = (
(880,1454,l),
(818,1473,o),
(752,1483,o),
(679,1483,cs),
(265,1483,o),
(106,1179,o),
(106,711,cs),
(106,189,o),
(305,-24,o),
(613,-24,cs),
(723,-24,o),
(821,4,o),
(893,29,c),
(892,768,l),
(531,768,l),
(513,611,l),
(799,611,l),
(752,666,l),
(752,103,l),
(784,155,l),
(732,140,o),
(676,129,o),
(615,129,cs),
(415,129,o),
(262,284,o),
(262,753,cs),
(262,1069,o),
(335,1186,o),
(388,1236,cs),
(438,1283,o),
(508,1308,o),
(636,1308,cs),
(739,1308,o),
(828,1287,o),
(890,1271,c)
);
},
{
closed = 1;
nodes = (
(452,1640,l),
(613,1844,l),
(570,1844,l),
(731,1640,l),
(877,1640,l),
(674,1881,l),
(508,1881,l),
(305,1640,l)
);
}
);
width = 1000;
}
);
unicode = 284;
},
{
glyphname = Gcommaaccent;
lastChange = "2024-12-31 03:15:52 +0000";
layers = (
{
layerId = "759CA147-6E0D-4FC4-A3FB-2F1E1C6F2428";
shapes = (
{
closed = 1;
nodes = (
(880,1454,l),
(818,1473,o),
(752,1483,o),
(679,1483,cs),
(265,1483,o),
(106,1179,o),
(106,711,cs),
(106,189,o),
(305,-24,o),
(613,-24,cs),
(723,-24,o),
(821,4,o),
(893,29,c),
(892,768,l),
(531,768,l),
(513,611,l),
(799,611,l),
(752,666,l),
(752,103,l),
(784,155,l),
(732,140,o),
(676,129,o),
(615,129,cs),
(415,129,o),
(262,284,o),
(262,753,cs),
(262,1069,o),
(335,1186,o),
(388,1236,cs),
(438,1283,o),
(508,1308,o),
(636,1308,cs),
(739,1308,o),
(828,1287,o),
(890,1271,c)
);
},
{
closed = 1;
nodes = (
(589,-516,o),
(608,-511,o),
(627,-499,c),
(600,-469,l),
(586,-566,o),
(520,-623,o),
(444,-679,c),
(498,-760,l),
(598,-697,o),
(693,-584,o),
(693,-432,cs),
(693,-313,o),
(637,-258,o),
(568,-258,cs),
(504,-258,o),
(454,-305,o),
(454,-387,cs),
(454,-467,o),
(502,-516,o),
(569,-516,cs)
);
}
);
width = 1000;
}
);
unicode = 290;
},
{
glyphname = Gdotaccent;
lastChange = "2024-12-31 03:15:52 +0000";
layers = (
{
layerId = "759CA147-6E0D-4FC4-A3FB-2F1E1C6F2428";
shapes = (
{
closed = 1;
nodes = (
(880,1454,l),
(818,1473,o),
(752,1483,o),
(679,1483,cs),
(265,1483,o),
(106,1179,o),
(106,711,cs),
(106,189,o),
(305,-24,o),
(613,-24,cs),
(723,-24,o),
(821,4,o),
(893,29,c),
(892,768,l),
(531,768,l),
(513,611,l),
(799,611,l),
(752,666,l),
(752,103,l),
(784,155,l),
(732,140,o),
(676,129,o),
(615,129,cs),
(415,129,o),
(262,284,o),
(262,753,cs),
(262,1069,o),
(335,1186,o),
(388,1236,cs),
(438,1283,o),
(508,1308,o),
(636,1308,cs),
(739,1308,o),
(828,1287,o),
(890,1271,c)
);
},
{
closed = 1;
nodes = (
(650,1648,o),
(692,1692,o),
(692,1765,cs),
(692,1837,o),
(650,1880,o),
(590,1880,cs),
(531,1880,o),
(489,1837,o),
(489,1765,cs),
(489,1692,o),
(531,1648,o),
(590,1648,cs)
);
}
);
width = 1000;
}
);
unicode = 288;
},
{
glyphname = H;
lastChange = "2024-12-31 03:15:52 +0000";
layers = (
{
layerId = "759CA147-6E0D-4FC4-A3FB-2F1E1C6F2428";
shapes = (
{
closed = 1;
nodes = (
(305,1460,l),
(147,1460,l),
(147,0,l),
(305,0,l)
);
},
{
closed = 1;
nodes = (
(853,1460,l),
(695,1460,l),
(695,0,l),
(853,0,l)
);
},
{
closed = 1;
nodes = (
(781,670,l),
(781,828,l),
(221,828,l),
(221,670,l)
);
}
);
width = 1000;
}
);
unicode = 72;
},
{
glyphname = Hbar;
lastChange = "2024-12-31 03:15:52 +0000";
layers = (
{
layerId = "759CA147-6E0D-4FC4-A3FB-2F1E1C6F2428";
shapes = (
{
closed = 1;
nodes = (
(32,1239,l),
(32,1095,l),
(968,1095,l),
(968,1239,l)
);
},
{
closed = 1;
nodes = (
(305,1460,l),
(147,1460,l),
(147,0,l),
(305,0,l)
);
},
{
closed = 1;
nodes = (
(853,1460,l),
(695,1460,l),
(695,0,l),
(853,0,l)
);
},
{
closed = 1;
nodes = (
(781,670,l),
(781,828,l),
(221,828,l),
(221,670,l)
);
}
);
width = 1000;
}
);
unicode = 294;
},
{
glyphname = Hcircumflex;
lastChange = "2024-12-31 03:15:52 +0000";
layers = (
{
layerId = "759CA147-6E0D-4FC4-A3FB-2F1E1C6F2428";
shapes = (
{
closed = 1;
nodes = (
(305,1460,l),
(147,1460,l),
(147,0,l),
(305,0,l)
);
},
{
closed = 1;
nodes = (
(853,1460,l),
(695,1460,l),
(695,0,l),
(853,0,l)
);
},
{
closed = 1;
nodes = (
(781,670,l),
(781,828,l),
(221,828,l),
(221,670,l)
);
},
{
closed = 1;
nodes = (
(361,1640,l),
(522,1844,l),
(478,1844,l),
(640,1640,l),
(786,1640,l),
(583,1881,l),
(417,1881,l),
(214,1640,l)
);
}
);
width = 1000;
}
);
unicode = 292;
},
{
glyphname = I;
lastChange = "2024-12-31 03:15:52 +0000";
layers = (
{
layerId = "759CA147-6E0D-4FC4-A3FB-2F1E1C6F2428";
shapes = (
{
closed = 1;
nodes = (
(573,1460,l),
(418,1460,l),
(418,0,l),
(573,0,l)
);
},
{
closed = 1;
nodes = (
(118,1297,l),
(882,1297,l),
(865,1460,l),
(134,1460,l)
);
},
{
closed = 1;
nodes = (
(865,0,l),
(882,163,l),
(118,163,l),
(134,0,l)
);
}
);
width = 1000;
}
);
unicode = 73;
},
{
glyphname = IJ;
lastChange = "2024-12-31 03:15:52 +0000";
layers = (
{
layerId = "759CA147-6E0D-4FC4-A3FB-2F1E1C6F2428";
shapes = (
{
closed = 1;
nodes = (
(807,1460,l),
(652,1460,l),
(652,384,ls),
(652,276,o),
(638,220,o),
(610,193,cs),
(584,167,o),
(520,141,o),
(423,141,cs),
(311,141,o),
(225,166,o),
(139,201,c),
(161,21,l),
(221,-4,o),
(291,-24,o),
(410,-24,cs),
(631,-24,o),
(807,57,o),
(807,417,cs)
);
},
{
closed = 1;
nodes = (
(488,1460,l),
(469,1302,l),
(744,1302,l),
(744,1460,l)
);
},
{
closed = 1;
nodes = (
(307,1460,l),
(156,1460,l),
(156,533,l),
(307,533,l)
);
}
);
width = 1000;
}
);
unicode = 306;
},
{
glyphname = Iacute;
lastChange = "2024-12-31 03:15:52 +0000";
layers = (
{
layerId = "759CA147-6E0D-4FC4-A3FB-2F1E1C6F2428";
shapes = (
{
closed = 1;
nodes = (
(573,1460,l),
(418,1460,l),
(418,0,l),
(573,0,l)
);
},
{
closed = 1;
nodes = (
(118,1297,l),
(882,1297,l),
(865,1460,l),
(134,1460,l)
);
},
{
closed = 1;
nodes = (
(865,0,l),
(882,163,l),
(118,163,l),
(134,0,l)
);
},
{
closed = 1;
nodes = (
(598,1881,l),
(766,1881,l),
(563,1640,l),
(429,1640,l)
);
}
);
width = 1000;
}
);
unicode = 205;
},
{
glyphname = Ibreve;
lastChange = "2024-12-31 03:15:52 +0000";
layers = (
{
layerId = "759CA147-6E0D-4FC4-A3FB-2F1E1C6F2428";
shapes = (
{
closed = 1;
nodes = (
(573,1460,l),
(418,1460,l),
(418,0,l),
(573,0,l)
);
},
{
closed = 1;
nodes = (
(118,1297,l),
(882,1297,l),
(865,1460,l),
(134,1460,l)
);
},
{
closed = 1;
nodes = (
(865,0,l),
(882,163,l),
(118,163,l),
(134,0,l)
);
},
{
closed = 1;
nodes = (
(252,1727,o),
(335,1629,o),
(500,1629,cs),
(665,1629,o),
(748,1727,o),
(740,1881,c),
(639,1881,l),
(639,1798,o),
(599,1733,o),
(500,1733,cs),
(401,1733,o),
(361,1798,o),
(361,1881,c),
(260,1881,l)
);
}
);
width = 1000;
}
);
unicode = 300;
},
{
glyphname = Icircumflex;
lastChange = "2024-12-31 03:15:52 +0000";
layers = (
{
layerId = "759CA147-6E0D-4FC4-A3FB-2F1E1C6F2428";
shapes = (
{
closed = 1;
nodes = (
(573,1460,l),
(418,1460,l),
(418,0,l),
(573,0,l)
);
},
{
closed = 1;
nodes = (
(118,1297,l),
(882,1297,l),
(865,1460,l),
(134,1460,l)
);
},
{
closed = 1;
nodes = (
(865,0,l),
(882,163,l),
(118,163,l),
(134,0,l)
);
},
{
closed = 1;
nodes = (
(361,1640,l),
(522,1844,l),
(478,1844,l),
(640,1640,l),
(786,1640,l),
(583,1881,l),
(417,1881,l),
(214,1640,l)
);
}
);
width = 1000;
}
);
unicode = 206;
},
{
glyphname = Idieresis;
lastChange = "2024-12-31 03:15:52 +0000";
layers = (
{
layerId = "759CA147-6E0D-4FC4-A3FB-2F1E1C6F2428";
shapes = (
{
closed = 1;
nodes = (
(573,1460,l),
(418,1460,l),
(418,0,l),
(573,0,l)
);
},
{
closed = 1;
nodes = (
(118,1297,l),
(882,1297,l),
(865,1460,l),
(134,1460,l)
);
},
{
closed = 1;
nodes = (
(865,0,l),
(882,163,l),
(118,163,l),
(134,0,l)
);
},
{
closed = 1;
nodes = (
(351,1648,o),
(391,1692,o),
(391,1765,cs),
(391,1837,o),
(351,1880,o),
(293,1880,cs),
(234,1880,o),
(194,1837,o),
(194,1765,cs),
(194,1692,o),
(234,1648,o),
(293,1648,cs)
);
},
{
closed = 1;
nodes = (
(767,1648,o),
(807,1692,o),
(807,1765,cs),
(807,1837,o),
(767,1880,o),
(708,1880,cs),
(650,1880,o),
(609,1837,o),
(609,1765,cs),
(609,1692,o),
(650,1648,o),
(708,1648,cs)
);
}
);
width = 1000;
}
);
unicode = 207;
},
{
glyphname = Idotaccent;
lastChange = "2024-12-31 03:15:52 +0000";
layers = (
{
layerId = "759CA147-6E0D-4FC4-A3FB-2F1E1C6F2428";
shapes = (
{
closed = 1;
nodes = (
(573,1460,l),
(418,1460,l),
(418,0,l),
(573,0,l)
);
},
{
closed = 1;
nodes = (
(118,1297,l),
(882,1297,l),
(865,1460,l),
(134,1460,l)
);
},
{
closed = 1;
nodes = (
(865,0,l),
(882,163,l),
(118,163,l),
(134,0,l)
);
},
{
closed = 1;
nodes = (
(559,1648,o),
(600,1692,o),
(600,1765,cs),
(600,1837,o),
(559,1880,o),
(499,1880,cs),
(440,1880,o),
(398,1837,o),
(398,1765,cs),
(398,1692,o),
(440,1648,o),
(499,1648,cs)
);
}
);
width = 1000;
}
);
unicode = 304;
},
{
glyphname = Idotbelow;
lastChange = "2024-12-31 03:15:52 +0000";
layers = (
{
layerId = "759CA147-6E0D-4FC4-A3FB-2F1E1C6F2428";
shapes = (
{
closed = 1;
nodes = (
(573,1460,l),
(418,1460,l),
(418,0,l),
(573,0,l)
);
},
{
closed = 1;
nodes = (
(118,1297,l),
(882,1297,l),
(865,1460,l),
(134,1460,l)
);
},
{
closed = 1;
nodes = (
(865,0,l),
(882,163,l),
(118,163,l),
(134,0,l)
);
},
{
closed = 1;
nodes = (
(566,-515,o),
(612,-466,o),
(612,-386,cs),
(612,-306,o),
(566,-258,o),
(500,-258,cs),
(434,-258,o),
(388,-306,o),
(388,-386,cs),
(388,-466,o),
(434,-515,o),
(500,-515,cs)
);
}
);
width = 1000;
}
);
unicode = 7882;
},
{
glyphname = Igrave;
lastChange = "2024-12-31 03:15:52 +0000";
layers = (
{
layerId = "759CA147-6E0D-4FC4-A3FB-2F1E1C6F2428";
shapes = (
{
closed = 1;
nodes = (
(573,1460,l),
(418,1460,l),
(418,0,l),
(573,0,l)
);
},
{
closed = 1;
nodes = (
(118,1297,l),
(882,1297,l),
(865,1460,l),
(134,1460,l)
);
},
{
closed = 1;
nodes = (
(865,0,l),
(882,163,l),
(118,163,l),
(134,0,l)
);
},
{
closed = 1;
nodes = (
(402,1881,l),
(234,1881,l),
(437,1640,l),
(571,1640,l)
);
}
);
width = 1000;
}
);
unicode = 204;
},
{
glyphname = Imacron;
lastChange = "2024-12-31 03:15:52 +0000";
layers = (
{
layerId = "759CA147-6E0D-4FC4-A3FB-2F1E1C6F2428";
shapes = (
{
closed = 1;
nodes = (
(573,1460,l),
(418,1460,l),
(418,0,l),
(573,0,l)
);
},
{
closed = 1;
nodes = (
(118,1297,l),
(882,1297,l),
(865,1460,l),
(134,1460,l)
);
},
{
closed = 1;
nodes = (
(865,0,l),
(882,163,l),
(118,163,l),
(134,0,l)
);
},
{
closed = 1;
nodes = (
(241,1849,l),
(241,1718,l),
(759,1718,l),
(759,1849,l)
);
}
);
width = 1000;
}
);
unicode = 298;
},
{
glyphname = Iogonek;
lastChange = "2024-12-31 03:15:52 +0000";
layers = (
{
layerId = "759CA147-6E0D-4FC4-A3FB-2F1E1C6F2428";
shapes = (
{
closed = 1;
nodes = (
(573,1460,l),
(418,1460,l),
(418,0,l),
(573,0,l)
);
},
{
closed = 1;
nodes = (
(118,1297,l),
(882,1297,l),
(865,1460,l),
(134,1460,l)
);
},
{
closed = 1;
nodes = (
(865,0,l),
(882,163,l),
(118,163,l),
(134,0,l)
);
},
{
closed = 1;
nodes = (
(381,-67,o),
(331,-150,o),
(331,-247,cs),
(331,-331,o),
(369,-414,o),
(519,-414,cs),
(578,-414,l),
(578,-282,l),
(555,-282,ls),
(488,-282,o),
(465,-252,o),
(465,-206,cs),
(465,-153,o),
(494,-88,o),
(578,0,c),
(484,37,l)
);
}
);
width = 1000;
}
);
unicode = 302;
},
{
glyphname = Itilde;
lastChange = "2024-12-31 03:15:52 +0000";
layers = (
{
layerId = "759CA147-6E0D-4FC4-A3FB-2F1E1C6F2428";
shapes = (
{
closed = 1;
nodes = (
(573,1460,l),
(418,1460,l),
(418,0,l),
(573,0,l)
);
},
{
closed = 1;
nodes = (
(118,1297,l),
(882,1297,l),
(865,1460,l),
(134,1460,l)
);
},
{
closed = 1;
nodes = (
(865,0,l),
(882,163,l),
(118,163,l),
(134,0,l)
);
},
{
closed = 1;
nodes = (
(271,1897,o),
(208,1816,o),
(192,1673,c),
(297,1642,l),
(310,1726,o),
(343,1771,o),
(390,1771,cs),
(472,1771,o),
(507,1628,o),
(633,1628,cs),
(728,1628,o),
(792,1709,o),
(808,1853,c),
(703,1883,l),
(690,1799,o),
(658,1754,o),
(611,1754,cs),
(528,1754,o),
(492,1897,o),
(366,1897,cs)
);
}
);
width = 1000;
}
);
unicode = 296;
},
{
glyphname = J;
lastChange = "2024-12-31 07:40:01 +0000";
layers = (
{
layerId = "759CA147-6E0D-4FC4-A3FB-2F1E1C6F2428";
shapes = (
{
closed = 1;
nodes = (
(807,1460,l),
(648,1460,l),
(648,384,ls),
(648,300,o),
(632,244,o),
(605,217,cs),
(578,191,o),
(515,165,o),
(423,165,cs),
(311,165,o),
(225,190,o),
(139,225,c),
(161,45,l),
(221,20,o),
(291,0,o),
(410,0,cs),
(631,0,o),
(807,81,o),
(807,417,cs)
);
},
{
closed = 1;
nodes = (
(190,1460,l),
(171,1302,l),
(744,1302,l),
(744,1460,l)
);
}
);
width = 1000;
}
);
unicode = 74;
},
{
glyphname = Jcircumflex;
lastChange = "2024-12-31 03:15:52 +0000";
layers = (
{
layerId = "759CA147-6E0D-4FC4-A3FB-2F1E1C6F2428";
shapes = (
{
closed = 1;
nodes = (
(807,1460,l),
(648,1460,l),
(648,384,ls),
(648,276,o),
(632,220,o),
(605,193,cs),
(578,167,o),
(515,141,o),
(423,141,cs),
(311,141,o),
(225,166,o),
(139,201,c),
(161,21,l),
(221,-4,o),
(291,-24,o),
(410,-24,cs),
(631,-24,o),
(807,57,o),
(807,417,cs)
);
},
{
closed = 1;
nodes = (
(190,1460,l),
(171,1302,l),
(744,1302,l),
(744,1460,l)
);
},
{
closed = 1;
nodes = (
(376,1640,l),
(537,1844,l),
(494,1844,l),
(655,1640,l),
(802,1640,l),
(598,1881,l),
(432,1881,l),
(229,1640,l)
);
}
);
width = 1000;
}
);
unicode = 308;
},
{
glyphname = K;
lastChange = "2024-12-31 03:15:52 +0000";
layers = (
{
layerId = "759CA147-6E0D-4FC4-A3FB-2F1E1C6F2428";
shapes = (
{
closed = 1;
nodes = (
(305,1460,l),
(147,1460,l),
(147,0,l),
(305,0,l)
);
},
{
closed = 1;
nodes = (
(972,0,l),
(844,313,o),
(710,554,o),
(580,752,c),
(580,767,l),
(727,1001,o),
(832,1226,o),
(919,1460,c),
(748,1460,l),
(656,1218,o),
(561,1011,o),
(415,759,c),
(504,823,l),
(266,823,l),
(266,663,l),
(499,663,l),
(423,707,l),
(554,490,o),
(668,276,o),
(779,0,c)
);
}
);
width = 1000;
}
);
unicode = 75;
},
{
glyphname = Kcommaaccent;
lastChange = "2024-12-31 03:15:52 +0000";
layers = (
{
layerId = "759CA147-6E0D-4FC4-A3FB-2F1E1C6F2428";
shapes = (
{
closed = 1;
nodes = (
(305,1460,l),
(147,1460,l),
(147,0,l),
(305,0,l)
);
},
{
closed = 1;
nodes = (
(972,0,l),
(844,313,o),
(710,554,o),
(580,752,c),
(580,767,l),
(727,1001,o),
(832,1226,o),
(919,1460,c),
(748,1460,l),
(656,1218,o),
(561,1011,o),
(415,759,c),
(504,823,l),
(266,823,l),
(266,663,l),
(499,663,l),
(423,707,l),
(554,490,o),
(668,276,o),
(779,0,c)
);
},
{
closed = 1;
nodes = (
(519,-516,o),
(539,-511,o),
(557,-499,c),
(530,-469,l),
(517,-566,o),
(450,-623,o),
(375,-679,c),
(428,-760,l),
(528,-697,o),
(623,-584,o),
(623,-432,cs),
(623,-313,o),
(567,-258,o),
(498,-258,cs),
(434,-258,o),
(385,-305,o),
(385,-387,cs),
(385,-467,o),
(432,-516,o),
(499,-516,cs)
);
}
);
width = 1000;
}
);
unicode = 310;
},
{
glyphname = L;
lastChange = "2024-12-31 03:15:52 +0000";
layers = (
{
layerId = "759CA147-6E0D-4FC4-A3FB-2F1E1C6F2428";
shapes = (
{
closed = 1;
nodes = (
(316,1460,l),
(160,1460,l),
(160,0,l),
(316,0,l)
);
},
{
closed = 1;
nodes = (
(249,163,l),
(249,0,l),
(888,0,l),
(910,164,l)
);
}
);
width = 1000;
}
);
unicode = 76;
},
{
glyphname = Lacute;
lastChange = "2024-12-31 03:15:52 +0000";
layers = (
{
layerId = "759CA147-6E0D-4FC4-A3FB-2F1E1C6F2428";
shapes = (
{
closed = 1;
nodes = (
(316,1460,l),
(160,1460,l),
(160,0,l),
(316,0,l)
);
},
{
closed = 1;
nodes = (
(249,163,l),
(249,0,l),
(888,0,l),
(910,164,l)
);
},
{
closed = 1;
nodes = (
(343,1881,l),
(511,1881,l),
(308,1640,l),
(174,1640,l)
);
}
);
width = 1000;
}
);
unicode = 313;
},
{
glyphname = Lcaron;
lastChange = "2024-12-31 03:15:52 +0000";
layers = (
{
layerId = "759CA147-6E0D-4FC4-A3FB-2F1E1C6F2428";
shapes = (
{
closed = 1;
nodes = (
(316,1460,l),
(160,1460,l),
(160,0,l),
(316,0,l)
);
},
{
closed = 1;
nodes = (
(249,163,l),
(249,0,l),
(888,0,l),
(910,164,l)
);
},
{
closed = 1;
nodes = (
(597,1222,l),
(630,1578,l),
(492,1578,l),
(478,1222,l)
);
}
);
width = 1000;
}
);
unicode = 317;
},
{
glyphname = Lcommaaccent;
lastChange = "2024-12-31 03:15:52 +0000";
layers = (
{
layerId = "759CA147-6E0D-4FC4-A3FB-2F1E1C6F2428";
shapes = (
{
closed = 1;
nodes = (
(316,1460,l),
(160,1460,l),
(160,0,l),
(316,0,l)
);
},
{
closed = 1;
nodes = (
(249,163,l),
(249,0,l),
(888,0,l),
(910,164,l)
);
},
{
closed = 1;
nodes = (
(519,-516,o),
(539,-511,o),
(557,-499,c),
(530,-469,l),
(517,-566,o),
(450,-623,o),
(375,-679,c),
(428,-760,l),
(528,-697,o),
(623,-584,o),
(623,-432,cs),
(623,-313,o),
(567,-258,o),
(498,-258,cs),
(434,-258,o),
(385,-305,o),
(385,-387,cs),
(385,-467,o),
(432,-516,o),
(499,-516,cs)
);
}
);
width = 1000;
}
);
unicode = 315;
},
{
glyphname = Ldot;
lastChange = "2024-12-31 03:15:52 +0000";
layers = (
{
layerId = "759CA147-6E0D-4FC4-A3FB-2F1E1C6F2428";
shapes = (
{
closed = 1;
nodes = (
(803,701,o),
(844,747,o),
(844,822,cs),
(844,896,o),
(803,941,o),
(745,941,cs),
(686,941,o),
(646,896,o),
(646,822,cs),
(646,747,o),
(686,701,o),
(745,701,cs)
);
},
{
closed = 1;
nodes = (
(316,1460,l),
(160,1460,l),
(160,0,l),
(316,0,l)
);
},
{
closed = 1;
nodes = (
(249,163,l),
(249,0,l),
(888,0,l),
(910,164,l)
);
}
);
width = 1000;
}
);
unicode = 319;
},
{
glyphname = Lslash;
lastChange = "2024-12-31 03:15:52 +0000";
layers = (
{
layerId = "759CA147-6E0D-4FC4-A3FB-2F1E1C6F2428";
shapes = (
{
closed = 1;
nodes = (
(10,735,l),
(10,565,l),
(624,936,l),
(624,1106,l)
);
},
{
closed = 1;
nodes = (
(316,1460,l),
(160,1460,l),
(160,0,l),
(316,0,l)
);
},
{
closed = 1;
nodes = (
(249,163,l),
(249,0,l),
(888,0,l),
(910,164,l)
);
}
);
width = 1000;
}
);
unicode = 321;
},
{
glyphname = M;
lastChange = "2024-12-31 03:15:52 +0000";
layers = (
{
layerId = "759CA147-6E0D-4FC4-A3FB-2F1E1C6F2428";
shapes = (
{
closed = 1;
nodes = (
(90,0,l),
(223,0,l),
(251,1165,l),
(261,1165,l),
(467,390,l),
(530,390,l),
(727,1165,l),
(740,1165,l),
(774,0,l),
(910,0,l),
(861,1460,l),
(711,1460,l),
(508,708,l),
(498,708,l),
(298,1460,l),
(139,1460,l)
);
}
);
width = 1000;
}
);
unicode = 77;
},
{
glyphname = N;
lastChange = "2024-12-31 03:15:52 +0000";
layers = (
{
layerId = "759CA147-6E0D-4FC4-A3FB-2F1E1C6F2428";
shapes = (
{
closed = 1;
nodes = (
(281,0,l),
(281,1142,l),
(291,1142,l),
(684,0,l),
(853,0,l),
(853,1460,l),
(719,1460,l),
(719,337,l),
(709,337,l),
(316,1460,l),
(147,1460,l),
(147,0,l)
);
}
);
width = 1000;
}
);
unicode = 78;
},
{
glyphname = Nacute;
lastChange = "2024-12-31 03:15:52 +0000";
layers = (
{
layerId = "759CA147-6E0D-4FC4-A3FB-2F1E1C6F2428";
shapes = (
{
closed = 1;
nodes = (
(281,0,l),
(281,1142,l),
(291,1142,l),
(684,0,l),
(853,0,l),
(853,1460,l),
(719,1460,l),
(719,337,l),
(709,337,l),
(316,1460,l),
(147,1460,l),
(147,0,l)
);
},
{
closed = 1;
nodes = (
(598,1881,l),
(766,1881,l),
(563,1640,l),
(429,1640,l)
);
}
);
width = 1000;
}
);
unicode = 323;
},
{
glyphname = Ncaron;
lastChange = "2024-12-31 03:15:52 +0000";
layers = (
{
layerId = "759CA147-6E0D-4FC4-A3FB-2F1E1C6F2428";
shapes = (
{
closed = 1;
nodes = (
(281,0,l),
(281,1142,l),
(291,1142,l),
(684,0,l),
(853,0,l),
(853,1460,l),
(719,1460,l),
(719,337,l),
(709,337,l),
(316,1460,l),
(147,1460,l),
(147,0,l)
);
},
{
closed = 1;
nodes = (
(361,1881,l),
(522,1677,l),
(478,1677,l),
(640,1881,l),
(786,1881,l),
(583,1640,l),
(417,1640,l),
(214,1881,l)
);
}
);
width = 1000;
}
);
unicode = 327;
},
{
glyphname = Ncommaaccent;
lastChange = "2024-12-31 03:15:52 +0000";
layers = (
{
layerId = "759CA147-6E0D-4FC4-A3FB-2F1E1C6F2428";
shapes = (
{
closed = 1;
nodes = (
(281,0,l),
(281,1142,l),
(291,1142,l),
(684,0,l),
(853,0,l),
(853,1460,l),
(719,1460,l),
(719,337,l),
(709,337,l),
(316,1460,l),
(147,1460,l),
(147,0,l)
);
},
{
closed = 1;
nodes = (
(519,-516,o),
(539,-511,o),
(557,-499,c),
(530,-469,l),
(517,-566,o),
(450,-623,o),
(375,-679,c),
(428,-760,l),
(528,-697,o),
(623,-584,o),
(623,-432,cs),
(623,-313,o),
(567,-258,o),
(498,-258,cs),
(434,-258,o),
(385,-305,o),
(385,-387,cs),
(385,-467,o),
(432,-516,o),
(499,-516,cs)
);
}
);
width = 1000;
}
);
unicode = 325;
},
{
glyphname = Nhookleft;
lastChange = "2024-12-31 03:15:52 +0000";
layers = (
{
layerId = "759CA147-6E0D-4FC4-A3FB-2F1E1C6F2428";
shapes = (
{
closed = 1;
nodes = (
(181,-375,o),
(281,-269,o),
(281,-36,cs),
(281,0,l),
(147,0,l),
(147,-111,o),
(148,-166,o),
(122,-194,cs),
(102,-216,o),
(73,-218,o),
(59,-218,cs),
(22,-218,o),
(-15,-204,o),
(-58,-179,c),
(-36,-343,l),
(-10,-358,o),
(27,-375,o),
(71,-375,cs)
);
},
{
closed = 1;
nodes = (
(281,0,l),
(281,1142,l),
(291,1142,l),
(684,0,l),
(853,0,l),
(853,1460,l),
(719,1460,l),
(719,337,l),
(709,337,l),
(316,1460,l),
(147,1460,l),
(147,0,l)
);
}
);
width = 1000;
}
);
unicode = 413;
},
{
glyphname = Ntilde;
lastChange = "2024-12-31 03:15:52 +0000";
layers = (
{
layerId = "759CA147-6E0D-4FC4-A3FB-2F1E1C6F2428";
shapes = (
{
closed = 1;
nodes = (
(281,0,l),
(281,1142,l),
(291,1142,l),
(684,0,l),
(853,0,l),
(853,1460,l),
(719,1460,l),
(719,337,l),
(709,337,l),
(316,1460,l),
(147,1460,l),
(147,0,l)
);
},
{
closed = 1;
nodes = (
(271,1897,o),
(208,1816,o),
(192,1673,c),
(297,1642,l),
(310,1726,o),
(343,1771,o),
(390,1771,cs),
(472,1771,o),
(507,1628,o),
(633,1628,cs),
(728,1628,o),
(792,1709,o),
(808,1853,c),
(703,1883,l),
(690,1799,o),
(658,1754,o),
(611,1754,cs),
(528,1754,o),
(492,1897,o),
(366,1897,cs)
);
}
);
width = 1000;
}
);
unicode = 209;
},
{
glyphname = Eng;
lastChange = "2024-12-31 03:15:52 +0000";
layers = (
{
layerId = "759CA147-6E0D-4FC4-A3FB-2F1E1C6F2428";
shapes = (
{
closed = 1;
nodes = (
(744,-375,o),
(853,-269,o),
(853,-36,cs),
(853,0,l),
(701,0,l),
(701,-111,o),
(702,-166,o),
(676,-194,cs),
(656,-216,o),
(627,-218,o),
(611,-218,cs),
(574,-218,o),
(538,-204,o),
(495,-179,c),
(518,-343,l),
(545,-358,o),
(581,-375,o),
(627,-375,cs)
);
},
{
closed = 1;
nodes = (
(281,0,l),
(281,1142,l),
(291,1142,l),
(725,-118,l),
(853,0,l),
(853,1461,l),
(719,1461,l),
(719,337,l),
(709,337,l),
(316,1460,l),
(147,1460,l),
(147,0,l)
);
}
);
width = 1000;
}
);
unicode = 330;
},
{
glyphname = O;
lastChange = "2024-12-31 04:12:51 +0000";
layers = (
{
layerId = "759CA147-6E0D-4FC4-A3FB-2F1E1C6F2428";
shapes = (
{
closed = 1;
nodes = (
(816,0,o),
(903,243,o),
(903,730,cs),
(903,1217,o),
(816,1460,o),
(500,1460,cs),
(184,1460,o),
(97,1217,o),
(97,730,cs),
(97,243,o),
(184,0,o),
(500,0,cs)
);
},
{
closed = 1;
nodes = (
(268,128,o),
(261,284,o),
(261,730,cs),
(261,1176,o),
(268,1322,o),
(500,1322,cs),
(732,1322,o),
(737,1176,o),
(737,730,cs),
(737,284,o),
(732,128,o),
(500,128,cs)
);
}
);
width = 1000;
}
);
unicode = 79;
},
{
glyphname = Oacute;
lastChange = "2024-12-31 03:15:52 +0000";
layers = (
{
layerId = "759CA147-6E0D-4FC4-A3FB-2F1E1C6F2428";
shapes = (
{
closed = 1;
nodes = (
(734,-19,o),
(903,234,o),
(903,721,cs),
(903,1084,o),
(832,1478,o),
(515,1478,cs),
(268,1478,o),
(97,1225,o),
(97,738,cs),
(97,375,o),
(170,-19,o),
(486,-19,cs)
);
},
{
closed = 1;
nodes = (
(306,128,o),
(261,369,o),
(261,815,cs),
(261,1112,o),
(312,1219,o),
(342,1256,cs),
(372,1292,o),
(420,1322,o),
(493,1322,cs),
(692,1322,o),
(737,1092,o),
(737,645,cs),
(737,335,o),
(686,232,o),
(657,195,cs),
(627,159,o),
(579,128,o),
(506,128,cs)
);
},
{
closed = 1;
nodes = (
(598,1881,l),
(766,1881,l),
(563,1640,l),
(429,1640,l)
);
}
);
width = 1000;
}
);
unicode = 211;
},
{
glyphname = Obreve;
lastChange = "2024-12-31 03:15:52 +0000";
layers = (
{
layerId = "759CA147-6E0D-4FC4-A3FB-2F1E1C6F2428";
shapes = (
{
closed = 1;
nodes = (
(734,-19,o),
(903,234,o),
(903,721,cs),
(903,1084,o),
(832,1478,o),
(515,1478,cs),
(268,1478,o),
(97,1225,o),
(97,738,cs),
(97,375,o),
(170,-19,o),
(486,-19,cs)
);
},
{
closed = 1;
nodes = (
(306,128,o),
(261,369,o),
(261,815,cs),
(261,1112,o),
(312,1219,o),
(342,1256,cs),
(372,1292,o),
(420,1322,o),
(493,1322,cs),
(692,1322,o),
(737,1092,o),
(737,645,cs),
(737,335,o),
(686,232,o),
(657,195,cs),
(627,159,o),
(579,128,o),
(506,128,cs)
);
},
{
closed = 1;
nodes = (
(252,1727,o),
(335,1629,o),
(500,1629,cs),
(665,1629,o),
(748,1727,o),
(740,1881,c),
(639,1881,l),
(639,1798,o),
(599,1733,o),
(500,1733,cs),
(401,1733,o),
(361,1798,o),
(361,1881,c),
(260,1881,l)
);
}
);
width = 1000;
}
);
unicode = 334;
},
{
glyphname = Ocircumflex;
lastChange = "2024-12-31 03:15:52 +0000";
layers = (
{
layerId = "759CA147-6E0D-4FC4-A3FB-2F1E1C6F2428";
shapes = (
{
closed = 1;
nodes = (
(734,-19,o),
(903,234,o),
(903,721,cs),
(903,1084,o),
(832,1478,o),
(515,1478,cs),
(268,1478,o),
(97,1225,o),
(97,738,cs),
(97,375,o),
(170,-19,o),
(486,-19,cs)
);
},
{
closed = 1;
nodes = (
(306,128,o),
(261,369,o),
(261,815,cs),
(261,1112,o),
(312,1219,o),
(342,1256,cs),
(372,1292,o),
(420,1322,o),
(493,1322,cs),
(692,1322,o),
(737,1092,o),
(737,645,cs),
(737,335,o),
(686,232,o),
(657,195,cs),
(627,159,o),
(579,128,o),
(506,128,cs)
);
},
{
closed = 1;
nodes = (
(361,1640,l),
(522,1844,l),
(478,1844,l),
(640,1640,l),
(786,1640,l),
(583,1881,l),
(417,1881,l),
(214,1640,l)
);
}
);
width = 1000;
}
);
unicode = 212;
},
{
glyphname = Odieresis;
lastChange = "2024-12-31 03:15:52 +0000";
layers = (
{
layerId = "759CA147-6E0D-4FC4-A3FB-2F1E1C6F2428";
shapes = (
{
closed = 1;
nodes = (
(734,-19,o),
(903,234,o),
(903,721,cs),
(903,1084,o),
(832,1478,o),
(515,1478,cs),
(268,1478,o),
(97,1225,o),
(97,738,cs),
(97,375,o),
(170,-19,o),
(486,-19,cs)
);
},
{
closed = 1;
nodes = (
(306,128,o),
(261,369,o),
(261,815,cs),
(261,1112,o),
(312,1219,o),
(342,1256,cs),
(372,1292,o),
(420,1322,o),
(493,1322,cs),
(692,1322,o),
(737,1092,o),
(737,645,cs),
(737,335,o),
(686,232,o),
(657,195,cs),
(627,159,o),
(579,128,o),
(506,128,cs)
);
},
{
closed = 1;
nodes = (
(351,1648,o),
(391,1692,o),
(391,1765,cs),
(391,1837,o),
(351,1880,o),
(293,1880,cs),
(234,1880,o),
(194,1837,o),
(194,1765,cs),
(194,1692,o),
(234,1648,o),
(293,1648,cs)
);
},
{
closed = 1;
nodes = (
(767,1648,o),
(807,1692,o),
(807,1765,cs),
(807,1837,o),
(767,1880,o),
(708,1880,cs),
(650,1880,o),
(609,1837,o),
(609,1765,cs),
(609,1692,o),
(650,1648,o),
(708,1648,cs)
);
}
);
width = 1000;
}
);
unicode = 214;
},
{
glyphname = Odotbelow;
lastChange = "2024-12-31 03:15:52 +0000";
layers = (
{
layerId = "759CA147-6E0D-4FC4-A3FB-2F1E1C6F2428";
shapes = (
{
closed = 1;
nodes = (
(734,-19,o),
(903,234,o),
(903,721,cs),
(903,1084,o),
(832,1478,o),
(515,1478,cs),
(268,1478,o),
(97,1225,o),
(97,738,cs),
(97,375,o),
(170,-19,o),
(486,-19,cs)
);
},
{
closed = 1;
nodes = (
(306,128,o),
(261,369,o),
(261,815,cs),
(261,1112,o),
(312,1219,o),
(342,1256,cs),
(372,1292,o),
(420,1322,o),
(493,1322,cs),
(692,1322,o),
(737,1092,o),
(737,645,cs),
(737,335,o),
(686,232,o),
(657,195,cs),
(627,159,o),
(579,128,o),
(506,128,cs)
);
},
{
closed = 1;
nodes = (
(566,-515,o),
(612,-466,o),
(612,-386,cs),
(612,-306,o),
(566,-258,o),
(500,-258,cs),
(434,-258,o),
(388,-306,o),
(388,-386,cs),
(388,-466,o),
(434,-515,o),
(500,-515,cs)
);
}
);
width = 1000;
}
);
unicode = 7884;
},
{
glyphname = Ograve;
lastChange = "2024-12-31 03:15:52 +0000";
layers = (
{
layerId = "759CA147-6E0D-4FC4-A3FB-2F1E1C6F2428";
shapes = (
{
closed = 1;
nodes = (
(734,-19,o),
(903,234,o),
(903,721,cs),
(903,1084,o),
(832,1478,o),
(515,1478,cs),
(268,1478,o),
(97,1225,o),
(97,738,cs),
(97,375,o),
(170,-19,o),
(486,-19,cs)
);
},
{
closed = 1;
nodes = (
(306,128,o),
(261,369,o),
(261,815,cs),
(261,1112,o),
(312,1219,o),
(342,1256,cs),
(372,1292,o),
(420,1322,o),
(493,1322,cs),
(692,1322,o),
(737,1092,o),
(737,645,cs),
(737,335,o),
(686,232,o),
(657,195,cs),
(627,159,o),
(579,128,o),
(506,128,cs)
);
},
{
closed = 1;
nodes = (
(402,1881,l),
(234,1881,l),
(437,1640,l),
(571,1640,l)
);
}
);
width = 1000;
}
);
unicode = 210;
},
{
glyphname = Ohungarumlaut;
lastChange = "2024-12-31 03:15:52 +0000";
layers = (
{
layerId = "759CA147-6E0D-4FC4-A3FB-2F1E1C6F2428";
shapes = (
{
closed = 1;
nodes = (
(734,-19,o),
(903,234,o),
(903,721,cs),
(903,1084,o),
(832,1478,o),
(515,1478,cs),
(268,1478,o),
(97,1225,o),
(97,738,cs),
(97,375,o),
(170,-19,o),
(486,-19,cs)
);
},
{
closed = 1;
nodes = (
(306,128,o),
(261,369,o),
(261,815,cs),
(261,1112,o),
(312,1219,o),
(342,1256,cs),
(372,1292,o),
(420,1322,o),
(493,1322,cs),
(692,1322,o),
(737,1092,o),
(737,645,cs),
(737,335,o),
(686,232,o),
(657,195,cs),
(627,159,o),
(579,128,o),
(506,128,cs)
);
},
{
closed = 1;
nodes = (
(397,1640,l),
(535,1881,l),
(400,1881,l),
(287,1640,l)
);
},
{
closed = 1;
nodes = (
(704,1640,l),
(843,1881,l),
(707,1881,l),
(595,1640,l)
);
}
);
width = 1000;
}
);
unicode = 336;
},
{
glyphname = Omacron;
lastChange = "2024-12-31 03:15:52 +0000";
layers = (
{
layerId = "759CA147-6E0D-4FC4-A3FB-2F1E1C6F2428";
shapes = (
{
closed = 1;
nodes = (
(734,-19,o),
(903,234,o),
(903,721,cs),
(903,1084,o),
(832,1478,o),
(515,1478,cs),
(268,1478,o),
(97,1225,o),
(97,738,cs),
(97,375,o),
(170,-19,o),
(486,-19,cs)
);
},
{
closed = 1;
nodes = (
(306,128,o),
(261,369,o),
(261,815,cs),
(261,1112,o),
(312,1219,o),
(342,1256,cs),
(372,1292,o),
(420,1322,o),
(493,1322,cs),
(692,1322,o),
(737,1092,o),
(737,645,cs),
(737,335,o),
(686,232,o),
(657,195,cs),
(627,159,o),
(579,128,o),
(506,128,cs)
);
},
{
closed = 1;
nodes = (
(241,1849,l),
(241,1718,l),
(759,1718,l),
(759,1849,l)
);
}
);
width = 1000;
}
);
unicode = 332;
},
{
glyphname = Oogonek;
lastChange = "2024-12-31 03:15:52 +0000";
layers = (
{
layerId = "759CA147-6E0D-4FC4-A3FB-2F1E1C6F2428";
shapes = (
{
closed = 1;
nodes = (
(734,-19,o),
(903,234,o),
(903,721,cs),
(903,1084,o),
(832,1478,o),
(515,1478,cs),
(268,1478,o),
(97,1225,o),
(97,738,cs),
(97,375,o),
(170,-19,o),
(486,-19,cs)
);
},
{
closed = 1;
nodes = (
(306,128,o),
(261,369,o),
(261,815,cs),
(261,1112,o),
(312,1219,o),
(342,1256,cs),
(372,1292,o),
(420,1322,o),
(493,1322,cs),
(692,1322,o),
(737,1092,o),
(737,645,cs),
(737,335,o),
(686,232,o),
(657,195,cs),
(627,159,o),
(579,128,o),
(506,128,cs)
);
},
{
closed = 1;
nodes = (
(400,-67,o),
(350,-150,o),
(350,-247,cs),
(350,-331,o),
(387,-414,o),
(539,-414,cs),
(597,-414,l),
(597,-282,l),
(573,-282,ls),
(506,-282,o),
(484,-252,o),
(484,-206,cs),
(484,-153,o),
(513,-88,o),
(597,0,c),
(502,37,l)
);
}
);
width = 1000;
}
);
unicode = 490;
},
{
glyphname = Oslash;
lastChange = "2024-12-31 03:15:52 +0000";
layers = (
{
layerId = "759CA147-6E0D-4FC4-A3FB-2F1E1C6F2428";
shapes = (
{
closed = 1;
nodes = (
(751,1237,l),
(898,1656,l),
(765,1728,l),
(629,1342,l)
);
},
{
closed = 1;
nodes = (
(351,92,l),
(748,1297,l),
(650,1369,l),
(256,179,l)
);
},
{
closed = 1;
nodes = (
(255,238,l),
(103,-196,l),
(236,-267,l),
(372,120,l)
);
},
{
closed = 1;
nodes = (
(734,-19,o),
(903,234,o),
(903,721,cs),
(903,1084,o),
(832,1478,o),
(515,1478,cs),
(268,1478,o),
(97,1225,o),
(97,738,cs),
(97,375,o),
(170,-19,o),
(486,-19,cs)
);
},
{
closed = 1;
nodes = (
(306,128,o),
(261,369,o),
(261,815,cs),
(261,1112,o),
(312,1219,o),
(342,1256,cs),
(372,1292,o),
(420,1322,o),
(493,1322,cs),
(692,1322,o),
(737,1092,o),
(737,645,cs),
(737,335,o),
(686,232,o),
(657,195,cs),
(627,159,o),
(579,128,o),
(506,128,cs)
);
}
);
width = 1000;
}
);
unicode = 216;
},
{
glyphname = Oslashacute;
lastChange = "2024-12-31 03:15:52 +0000";
layers = (
{
layerId = "759CA147-6E0D-4FC4-A3FB-2F1E1C6F2428";
shapes = (
{
closed = 1;
nodes = (
(751,1237,l),
(898,1656,l),
(765,1728,l),
(629,1342,l)
);
},
{
closed = 1;
nodes = (
(351,92,l),
(748,1297,l),
(650,1369,l),
(256,179,l)
);
},
{
closed = 1;
nodes = (
(255,238,l),
(103,-196,l),
(236,-267,l),
(372,120,l)
);
},
{
closed = 1;
nodes = (
(734,-19,o),
(903,234,o),
(903,721,cs),
(903,1084,o),
(832,1478,o),
(515,1478,cs),
(268,1478,o),
(97,1225,o),
(97,738,cs),
(97,375,o),
(170,-19,o),
(486,-19,cs)
);
},
{
closed = 1;
nodes = (
(306,128,o),
(261,369,o),
(261,815,cs),
(261,1112,o),
(312,1219,o),
(342,1256,cs),
(372,1292,o),
(420,1322,o),
(493,1322,cs),
(692,1322,o),
(737,1092,o),
(737,645,cs),
(737,335,o),
(686,232,o),
(657,195,cs),
(627,159,o),
(579,128,o),
(506,128,cs)
);
},
{
closed = 1;
nodes = (
(565,1881,l),
(734,1881,l),
(531,1640,l),
(397,1640,l)
);
}
);
width = 1000;
}
);
unicode = 510;
},
{
glyphname = Otilde;
lastChange = "2024-12-31 03:15:52 +0000";
layers = (
{
layerId = "759CA147-6E0D-4FC4-A3FB-2F1E1C6F2428";
shapes = (
{
closed = 1;
nodes = (
(734,-19,o),
(903,234,o),
(903,721,cs),
(903,1084,o),
(832,1478,o),
(515,1478,cs),
(268,1478,o),
(97,1225,o),
(97,738,cs),
(97,375,o),
(170,-19,o),
(486,-19,cs)
);
},
{
closed = 1;
nodes = (
(306,128,o),
(261,369,o),
(261,815,cs),
(261,1112,o),
(312,1219,o),
(342,1256,cs),
(372,1292,o),
(420,1322,o),
(493,1322,cs),
(692,1322,o),
(737,1092,o),
(737,645,cs),
(737,335,o),
(686,232,o),
(657,195,cs),
(627,159,o),
(579,128,o),
(506,128,cs)
);
},
{
closed = 1;
nodes = (
(271,1897,o),
(208,1816,o),
(192,1673,c),
(297,1642,l),
(310,1726,o),
(343,1771,o),
(390,1771,cs),
(472,1771,o),
(507,1628,o),
(633,1628,cs),
(728,1628,o),
(792,1709,o),
(808,1853,c),
(703,1883,l),
(690,1799,o),
(658,1754,o),
(611,1754,cs),
(528,1754,o),
(492,1897,o),
(366,1897,cs)
);
}
);
width = 1000;
}
);
unicode = 213;
},
{
glyphname = OE;
lastChange = "2024-12-31 03:15:52 +0000";
layers = (
{
layerId = "759CA147-6E0D-4FC4-A3FB-2F1E1C6F2428";
shapes = (
{
closed = 1;
nodes = (
(662,1460,l),
(514,1460,l),
(514,0,l),
(662,0,l)
);
},
{
closed = 1;
nodes = (
(603,163,l),
(603,0,l),
(952,0,l),
(970,163,l)
);
},
{
closed = 1;
nodes = (
(611,818,l),
(611,662,l),
(865,662,l),
(865,818,l)
);
},
{
closed = 1;
nodes = (
(952,1460,l),
(603,1460,l),
(603,1297,l),
(970,1297,l)
);
},
{
closed = 1;
nodes = (
(537,0,l),
(537,147,l),
(506,147,ls),
(306,147,o),
(261,388,o),
(261,815,cs),
(261,1094,o),
(312,1201,o),
(342,1238,cs),
(372,1274,o),
(420,1304,o),
(493,1304,c),
(551,1304,l),
(551,1460,l),
(515,1460,ls),
(268,1460,o),
(97,1207,o),
(97,738,cs),
(97,394,o),
(170,0,o),
(486,0,c)
);
}
);
width = 1000;
}
);
unicode = 338;
},
{
glyphname = P;
lastChange = "2024-12-31 03:15:52 +0000";
layers = (
{
layerId = "759CA147-6E0D-4FC4-A3FB-2F1E1C6F2428";
shapes = (
{
closed = 1;
nodes = (
(309,1460,l),
(151,1460,l),
(151,0,l),
(309,0,l)
);
},
{
closed = 1;
nodes = (
(265,511,l),
(336,520,ls),
(705,565,o),
(899,754,o),
(899,1076,cs),
(899,1356,o),
(744,1460,o),
(535,1460,cs),
(259,1460,l),
(259,1317,l),
(502,1317,ls),
(674,1317,o),
(742,1205,o),
(742,1054,cs),
(742,822,o),
(580,691,o),
(330,666,cs),
(245,655,l)
);
}
);
width = 1000;
}
);
unicode = 80;
},
{
glyphname = Thorn;
lastChange = "2024-12-31 03:15:52 +0000";
layers = (
{
layerId = "759CA147-6E0D-4FC4-A3FB-2F1E1C6F2428";
shapes = (
{
closed = 1;
nodes = (
(309,1460,l),
(151,1460,l),
(151,0,l),
(309,0,l)
);
},
{
closed = 1;
nodes = (
(265,273,l),
(336,282,ls),
(705,328,o),
(899,517,o),
(899,839,cs),
(899,1118,o),
(744,1223,o),
(535,1223,cs),
(248,1223,l),
(248,1080,l),
(502,1080,ls),
(674,1080,o),
(742,967,o),
(742,817,cs),
(742,585,o),
(580,454,o),
(330,428,cs),
(245,418,l)
);
}
);
width = 1000;
}
);
unicode = 222;
},
{
glyphname = Q;
lastChange = "2024-12-31 04:17:53 +0000";
layers = (
{
layerId = "759CA147-6E0D-4FC4-A3FB-2F1E1C6F2428";
shapes = (
{
closed = 1;
nodes = (
(800,1460,o),
(916,1151,o),
(916,870,cs),
(916,448,o),
(781,182,o),
(549,53,c),
(480,134,l),
(669,262,o),
(750,458,o),
(750,860,cs),
(750,1103,o),
(724,1319,o),
(500,1319,cs),
(276,1319,o),
(249,1060,o),
(249,836,cs),
(249,279,o),
(412,122,o),
(916,-9,c),
(847,-162,l),
(282,-46,o),
(84,230,o),
(84,805,cs),
(84,1238,o),
(200,1460,o),
(500,1460,cs)
);
}
);
width = 1000;
}
);
unicode = 81;
},
{
glyphname = R;
lastChange = "2024-12-31 03:15:52 +0000";
layers = (
{
layerId = "759CA147-6E0D-4FC4-A3FB-2F1E1C6F2428";
shapes = (
{
closed = 1;
nodes = (
(305,1460,l),
(147,1460,l),
(147,0,l),
(305,0,l)
);
},
{
closed = 1;
nodes = (
(754,0,l),
(947,0,l),
(523,705,l),
(492,631,l),
(719,729,o),
(885,887,o),
(885,1137,cs),
(885,1397,o),
(710,1460,o),
(507,1460,cs),
(255,1460,l),
(255,1317,l),
(511,1317,ls),
(648,1317,o),
(719,1255,o),
(719,1110,cs),
(719,913,o),
(581,798,o),
(377,704,c),
(377,663,l)
);
}
);
width = 1000;
}
);
unicode = 82;
},
{
glyphname = Racute;
lastChange = "2024-12-31 03:15:52 +0000";
layers = (
{
layerId = "759CA147-6E0D-4FC4-A3FB-2F1E1C6F2428";
shapes = (
{
closed = 1;
nodes = (
(305,1460,l),
(147,1460,l),
(147,0,l),
(305,0,l)
);
},
{
closed = 1;
nodes = (
(754,0,l),
(947,0,l),
(523,705,l),
(492,631,l),
(719,729,o),
(885,887,o),
(885,1137,cs),
(885,1397,o),
(710,1460,o),
(507,1460,cs),
(255,1460,l),
(255,1317,l),
(511,1317,ls),
(648,1317,o),
(719,1255,o),
(719,1110,cs),
(719,913,o),
(581,798,o),
(377,704,c),
(377,663,l)
);
},
{
closed = 1;
nodes = (
(598,1881,l),
(766,1881,l),
(563,1640,l),
(429,1640,l)
);
}
);
width = 1000;
}
);
unicode = 340;
},
{
glyphname = Rcaron;
lastChange = "2024-12-31 03:15:52 +0000";
layers = (
{
layerId = "759CA147-6E0D-4FC4-A3FB-2F1E1C6F2428";
shapes = (
{
closed = 1;
nodes = (
(305,1460,l),
(147,1460,l),
(147,0,l),
(305,0,l)
);
},
{
closed = 1;
nodes = (
(754,0,l),
(947,0,l),
(523,705,l),
(492,631,l),
(719,729,o),
(885,887,o),
(885,1137,cs),
(885,1397,o),
(710,1460,o),
(507,1460,cs),
(255,1460,l),
(255,1317,l),
(511,1317,ls),
(648,1317,o),
(719,1255,o),
(719,1110,cs),
(719,913,o),
(581,798,o),
(377,704,c),
(377,663,l)
);
},
{
closed = 1;
nodes = (
(361,1881,l),
(522,1677,l),
(478,1677,l),
(640,1881,l),
(786,1881,l),
(583,1640,l),
(417,1640,l),
(214,1881,l)
);
}
);
width = 1000;
}
);
unicode = 344;
},
{
glyphname = Rcommaaccent;
lastChange = "2024-12-31 03:15:52 +0000";
layers = (
{
layerId = "759CA147-6E0D-4FC4-A3FB-2F1E1C6F2428";
shapes = (
{
closed = 1;
nodes = (
(305,1460,l),
(147,1460,l),
(147,0,l),
(305,0,l)
);
},
{
closed = 1;
nodes = (
(754,0,l),
(947,0,l),
(523,705,l),
(492,631,l),
(719,729,o),
(885,887,o),
(885,1137,cs),
(885,1397,o),
(710,1460,o),
(507,1460,cs),
(255,1460,l),
(255,1317,l),
(511,1317,ls),
(648,1317,o),
(719,1255,o),
(719,1110,cs),
(719,913,o),
(581,798,o),
(377,704,c),
(377,663,l)
);
},
{
closed = 1;
nodes = (
(519,-516,o),
(539,-511,o),
(557,-499,c),
(530,-469,l),
(517,-566,o),
(450,-623,o),
(375,-679,c),
(428,-760,l),
(528,-697,o),
(623,-584,o),
(623,-432,cs),
(623,-313,o),
(567,-258,o),
(498,-258,cs),
(434,-258,o),
(385,-305,o),
(385,-387,cs),
(385,-467,o),
(432,-516,o),
(499,-516,cs)
);
}
);
width = 1000;
}
);
unicode = 342;
},
{
glyphname = S;
lastChange = "2024-12-31 07:40:43 +0000";
layers = (
{
layerId = "759CA147-6E0D-4FC4-A3FB-2F1E1C6F2428";
shapes = (
{
closed = 1;
nodes = (
(842,1427,l),
(763,1449,o),
(686,1460,o),
(611,1460,cs),
(373,1460,o),
(141,1391,o),
(141,1085,cs),
(141,880,o),
(249,777,o),
(440,664,cs),
(644,543,o),
(731,499,o),
(731,351,cs),
(731,296,o),
(706,251,o),
(682,226,cs),
(653,196,o),
(597,165,o),
(481,165,cs),
(352,165,o),
(218,204,o),
(115,252,c),
(119,74,l),
(201,36,o),
(306,0,o),
(430,0,cs),
(709,0,o),
(883,147,o),
(883,407,cs),
(879,647,o),
(736,718,o),
(540,833,cs),
(384,924,o),
(281,1000,o),
(281,1130,cs),
(281,1196,o),
(301,1203,o),
(327,1229,cs),
(356,1258,o),
(422,1288,o),
(561,1288,cs),
(650,1288,o),
(747,1276,o),
(851,1248,c)
);
}
);
width = 1000;
}
);
unicode = 83;
},
{
glyphname = Sacute;
lastChange = "2024-12-31 03:15:52 +0000";
layers = (
{
layerId = "759CA147-6E0D-4FC4-A3FB-2F1E1C6F2428";
shapes = (
{
closed = 1;
nodes = (
(842,1453,l),
(763,1475,o),
(686,1486,o),
(611,1486,cs),
(373,1486,o),
(141,1391,o),
(141,1085,cs),
(141,880,o),
(249,777,o),
(440,664,cs),
(644,543,o),
(731,499,o),
(731,351,cs),
(731,276,o),
(706,231,o),
(682,206,cs),
(653,176,o),
(597,145,o),
(481,145,cs),
(352,145,o),
(218,184,o),
(115,232,c),
(119,54,l),
(201,16,o),
(306,-20,o),
(430,-20,cs),
(709,-20,o),
(883,147,o),
(883,407,cs),
(879,647,o),
(736,718,o),
(540,833,cs),
(384,924,o),
(281,1000,o),
(281,1130,cs),
(281,1196,o),
(301,1229,o),
(327,1255,cs),
(356,1284,o),
(422,1314,o),
(561,1314,cs),
(650,1314,o),
(747,1302,o),
(851,1274,c)
);
},
{
closed = 1;
nodes = (
(598,1881,l),
(766,1881,l),
(563,1640,l),
(429,1640,l)
);
}
);
width = 1000;
}
);
unicode = 346;
},
{
glyphname = Scaron;
lastChange = "2024-12-31 03:15:52 +0000";
layers = (
{
layerId = "759CA147-6E0D-4FC4-A3FB-2F1E1C6F2428";
shapes = (
{
closed = 1;
nodes = (
(842,1453,l),
(763,1475,o),
(686,1486,o),
(611,1486,cs),
(373,1486,o),
(141,1391,o),
(141,1085,cs),
(141,880,o),
(249,777,o),
(440,664,cs),
(644,543,o),
(731,499,o),
(731,351,cs),
(731,276,o),
(706,231,o),
(682,206,cs),
(653,176,o),
(597,145,o),
(481,145,cs),
(352,145,o),
(218,184,o),
(115,232,c),
(119,54,l),
(201,16,o),
(306,-20,o),
(430,-20,cs),
(709,-20,o),
(883,147,o),
(883,407,cs),
(879,647,o),
(736,718,o),
(540,833,cs),
(384,924,o),
(281,1000,o),
(281,1130,cs),
(281,1196,o),
(301,1229,o),
(327,1255,cs),
(356,1284,o),
(422,1314,o),
(561,1314,cs),
(650,1314,o),
(747,1302,o),
(851,1274,c)
);
},
{
closed = 1;
nodes = (
(361,1881,l),
(522,1677,l),
(478,1677,l),
(640,1881,l),
(786,1881,l),
(583,1640,l),
(417,1640,l),
(214,1881,l)
);
}
);
width = 1000;
}
);
unicode = 352;
},
{
glyphname = Scedilla;
lastChange = "2024-12-31 03:15:52 +0000";
layers = (
{
layerId = "759CA147-6E0D-4FC4-A3FB-2F1E1C6F2428";
shapes = (
{
closed = 1;
nodes = (
(842,1453,l),
(763,1475,o),
(686,1486,o),
(611,1486,cs),
(373,1486,o),
(141,1391,o),
(141,1085,cs),
(141,880,o),
(249,777,o),
(440,664,cs),
(644,543,o),
(731,499,o),
(731,351,cs),
(731,276,o),
(706,231,o),
(682,206,cs),
(653,176,o),
(597,145,o),
(481,145,cs),
(352,145,o),
(218,184,o),
(115,232,c),
(119,54,l),
(201,16,o),
(306,-20,o),
(430,-20,cs),
(709,-20,o),
(883,147,o),
(883,407,cs),
(879,647,o),
(736,718,o),
(540,833,cs),
(384,924,o),
(281,1000,o),
(281,1130,cs),
(281,1196,o),
(301,1229,o),
(327,1255,cs),
(356,1284,o),
(422,1314,o),
(561,1314,cs),
(650,1314,o),
(747,1302,o),
(851,1274,c)
);
},
{
closed = 1;
nodes = (
(551,-220,l),
(548,48,l),
(451,48,l),
(451,-260,l),
(524,-269,o),
(570,-298,o),
(570,-373,cs),
(570,-436,o),
(539,-473,o),
(439,-473,cs),
(399,-473,l),
(399,-589,l),
(459,-589,ls),
(640,-589,o),
(690,-513,o),
(690,-385,cs),
(690,-247,o),
(631,-190,o),
(526,-168,c)
);
}
);
width = 1000;
}
);
unicode = 350;
},
{
glyphname = Scircumflex;
lastChange = "2024-12-31 03:15:52 +0000";
layers = (
{
layerId = "759CA147-6E0D-4FC4-A3FB-2F1E1C6F2428";
shapes = (
{
closed = 1;
nodes = (
(842,1453,l),
(763,1475,o),
(686,1486,o),
(611,1486,cs),
(373,1486,o),
(141,1391,o),
(141,1085,cs),
(141,880,o),
(249,777,o),
(440,664,cs),
(644,543,o),
(731,499,o),
(731,351,cs),
(731,276,o),
(706,231,o),
(682,206,cs),
(653,176,o),
(597,145,o),
(481,145,cs),
(352,145,o),
(218,184,o),
(115,232,c),
(119,54,l),
(201,16,o),
(306,-20,o),
(430,-20,cs),
(709,-20,o),
(883,147,o),
(883,407,cs),
(879,647,o),
(736,718,o),
(540,833,cs),
(384,924,o),
(281,1000,o),
(281,1130,cs),
(281,1196,o),
(301,1229,o),
(327,1255,cs),
(356,1284,o),
(422,1314,o),
(561,1314,cs),
(650,1314,o),
(747,1302,o),
(851,1274,c)
);
},
{
closed = 1;
nodes = (
(361,1640,l),
(522,1844,l),
(478,1844,l),
(640,1640,l),
(786,1640,l),
(583,1881,l),
(417,1881,l),
(214,1640,l)
);
}
);
width = 1000;
}
);
unicode = 348;
},
{
glyphname = Scommaaccent;
lastChange = "2024-12-31 03:15:52 +0000";
layers = (
{
layerId = "759CA147-6E0D-4FC4-A3FB-2F1E1C6F2428";
shapes = (
{
closed = 1;
nodes = (
(842,1453,l),
(763,1475,o),
(686,1486,o),
(611,1486,cs),
(373,1486,o),
(141,1391,o),
(141,1085,cs),
(141,880,o),
(249,777,o),
(440,664,cs),
(644,543,o),
(731,499,o),
(731,351,cs),
(731,276,o),
(706,231,o),
(682,206,cs),
(653,176,o),
(597,145,o),
(481,145,cs),
(352,145,o),
(218,184,o),
(115,232,c),
(119,54,l),
(201,16,o),
(306,-20,o),
(430,-20,cs),
(709,-20,o),
(883,147,o),
(883,407,cs),
(879,647,o),
(736,718,o),
(540,833,cs),
(384,924,o),
(281,1000,o),
(281,1130,cs),
(281,1196,o),
(301,1229,o),
(327,1255,cs),
(356,1284,o),
(422,1314,o),
(561,1314,cs),
(650,1314,o),
(747,1302,o),
(851,1274,c)
);
},
{
closed = 1;
nodes = (
(519,-516,o),
(539,-511,o),
(557,-499,c),
(530,-469,l),
(517,-566,o),
(450,-623,o),
(375,-679,c),
(428,-760,l),
(528,-697,o),
(623,-584,o),
(623,-432,cs),
(623,-313,o),
(567,-258,o),
(498,-258,cs),
(434,-258,o),
(385,-305,o),
(385,-387,cs),
(385,-467,o),
(432,-516,o),
(499,-516,cs)
);
}
);
width = 1000;
}
);
unicode = 536;
},
{
glyphname = Germandbls;
lastChange = "2024-12-31 03:15:52 +0000";
layers = (
{
layerId = "759CA147-6E0D-4FC4-A3FB-2F1E1C6F2428";
shapes = (
{
closed = 1;
nodes = (
(290,1460,l),
(138,1460,l),
(138,0,l),
(290,0,l)
);
},
{
closed = 1;
nodes = (
(527,-15,ls),
(786,31,o),
(957,203,o),
(957,458,cs),
(957,716,o),
(786,813,o),
(645,843,c),
(695,793,l),
(871,1340,l),
(871,1460,l),
(216,1460,l),
(216,1304,l),
(734,1304,l),
(715,1334,l),
(565,859,l),
(565,765,l),
(656,729,o),
(798,655,o),
(798,455,cs),
(798,292,o),
(689,157,o),
(521,135,cs),
(457,125,l),
(477,-22,l)
);
}
);
width = 1000;
}
);
unicode = 7838;
},
{
glyphname = T;
lastChange = "2024-12-31 03:15:52 +0000";
layers = (
{
layerId = "759CA147-6E0D-4FC4-A3FB-2F1E1C6F2428";
shapes = (
{
closed = 1;
nodes = (
(573,1460,l),
(418,1460,l),
(418,0,l),
(573,0,l)
);
},
{
closed = 1;
nodes = (
(920,1297,l),
(904,1460,l),
(95,1460,l),
(79,1297,l)
);
}
);
width = 1000;
}
);
unicode = 84;
},
{
glyphname = Tbar;
lastChange = "2024-12-31 03:15:52 +0000";
layers = (
{
layerId = "759CA147-6E0D-4FC4-A3FB-2F1E1C6F2428";
shapes = (
{
closed = 1;
nodes = (
(786,667,l),
(786,831,l),
(214,831,l),
(214,667,l)
);
},
{
closed = 1;
nodes = (
(573,1460,l),
(418,1460,l),
(418,0,l),
(573,0,l)
);
},
{
closed = 1;
nodes = (
(920,1297,l),
(904,1460,l),
(95,1460,l),
(79,1297,l)
);
}
);
width = 1000;
}
);
unicode = 358;
},
{
glyphname = Tcaron;
lastChange = "2024-12-31 03:15:52 +0000";
layers = (
{
layerId = "759CA147-6E0D-4FC4-A3FB-2F1E1C6F2428";
shapes = (
{
closed = 1;
nodes = (
(573,1460,l),
(418,1460,l),
(418,0,l),
(573,0,l)
);
},
{
closed = 1;
nodes = (
(920,1297,l),
(904,1460,l),
(95,1460,l),
(79,1297,l)
);
},
{
closed = 1;
nodes = (
(361,1881,l),
(522,1677,l),
(478,1677,l),
(640,1881,l),
(786,1881,l),
(583,1640,l),
(417,1640,l),
(214,1881,l)
);
}
);
width = 1000;
}
);
unicode = 356;
},
{
glyphname = Tcedilla;
lastChange = "2024-12-31 03:15:52 +0000";
layers = (
{
layerId = "759CA147-6E0D-4FC4-A3FB-2F1E1C6F2428";
shapes = (
{
closed = 1;
nodes = (
(573,1460,l),
(418,1460,l),
(418,0,l),
(573,0,l)
);
},
{
closed = 1;
nodes = (
(920,1297,l),
(904,1460,l),
(95,1460,l),
(79,1297,l)
);
},
{
closed = 1;
nodes = (
(547,-220,l),
(544,48,l),
(447,48,l),
(447,-260,l),
(521,-269,o),
(566,-298,o),
(566,-373,cs),
(566,-436,o),
(536,-473,o),
(436,-473,cs),
(396,-473,l),
(396,-589,l),
(456,-589,ls),
(636,-589,o),
(687,-513,o),
(687,-385,cs),
(687,-247,o),
(627,-190,o),
(522,-168,c)
);
}
);
width = 1000;
}
);
unicode = 354;
},
{
glyphname = Tcommaaccent;
lastChange = "2024-12-31 03:15:52 +0000";
layers = (
{
layerId = "759CA147-6E0D-4FC4-A3FB-2F1E1C6F2428";
shapes = (
{
closed = 1;
nodes = (
(573,1460,l),
(418,1460,l),
(418,0,l),
(573,0,l)
);
},
{
closed = 1;
nodes = (
(920,1297,l),
(904,1460,l),
(95,1460,l),
(79,1297,l)
);
},
{
closed = 1;
nodes = (
(515,-516,o),
(535,-511,o),
(554,-499,c),
(527,-469,l),
(513,-566,o),
(447,-623,o),
(371,-679,c),
(425,-760,l),
(525,-697,o),
(619,-584,o),
(619,-432,cs),
(619,-313,o),
(564,-258,o),
(494,-258,cs),
(431,-258,o),
(381,-305,o),
(381,-387,cs),
(381,-467,o),
(428,-516,o),
(496,-516,cs)
);
}
);
width = 1000;
}
);
unicode = 538;
},
{
glyphname = U;
lastChange = "2024-12-31 07:42:11 +0000";
layers = (
{
layerId = "759CA147-6E0D-4FC4-A3FB-2F1E1C6F2428";
shapes = (
{
closed = 1;
nodes = (
(721,0,o),
(872,85,o),
(872,398,cs),
(872,1460,l),
(715,1460,l),
(715,398,ls),
(715,220,o),
(695,152,o),
(500,152,cs),
(305,152,o),
(287,220,o),
(287,398,cs),
(287,1460,l),
(128,1460,l),
(128,398,ls),
(128,85,o),
(244,0,o),
(500,0,cs)
);
}
);
width = 1000;
}
);
unicode = 85;
},
{
glyphname = Uacute;
lastChange = "2024-12-31 03:15:52 +0000";
layers = (
{
layerId = "759CA147-6E0D-4FC4-A3FB-2F1E1C6F2428";
shapes = (
{
closed = 1;
nodes = (
(702,-19,o),
(872,85,o),
(872,449,cs),
(872,1460,l),
(715,1460,l),
(715,398,ls),
(715,271,o),
(692,223,o),
(665,193,cs),
(640,164,o),
(590,146,o),
(515,146,cs),
(320,146,o),
(287,293,o),
(287,499,cs),
(287,1460,l),
(128,1460,l),
(128,443,ls),
(128,181,o),
(225,-19,o),
(481,-19,cs)
);
},
{
closed = 1;
nodes = (
(598,1881,l),
(766,1881,l),
(563,1640,l),
(429,1640,l)
);
}
);
width = 1000;
}
);
unicode = 218;
},
{
glyphname = Ubreve;
lastChange = "2024-12-31 03:15:52 +0000";
layers = (
{
layerId = "759CA147-6E0D-4FC4-A3FB-2F1E1C6F2428";
shapes = (
{
closed = 1;
nodes = (
(702,-19,o),
(872,85,o),
(872,449,cs),
(872,1460,l),
(715,1460,l),
(715,398,ls),
(715,271,o),
(692,223,o),
(665,193,cs),
(640,164,o),
(590,146,o),
(515,146,cs),
(320,146,o),
(287,293,o),
(287,499,cs),
(287,1460,l),
(128,1460,l),
(128,443,ls),
(128,181,o),
(225,-19,o),
(481,-19,cs)
);
},
{
closed = 1;
nodes = (
(252,1727,o),
(335,1629,o),
(500,1629,cs),
(665,1629,o),
(748,1727,o),
(740,1881,c),
(639,1881,l),
(639,1798,o),
(599,1733,o),
(500,1733,cs),
(401,1733,o),
(361,1798,o),
(361,1881,c),
(260,1881,l)
);
}
);
width = 1000;
}
);
unicode = 364;
},
{
glyphname = Ucircumflex;
lastChange = "2024-12-31 03:15:52 +0000";
layers = (
{
layerId = "759CA147-6E0D-4FC4-A3FB-2F1E1C6F2428";
shapes = (
{
closed = 1;
nodes = (
(702,-19,o),
(872,85,o),
(872,449,cs),
(872,1460,l),
(715,1460,l),
(715,398,ls),
(715,271,o),
(692,223,o),
(665,193,cs),
(640,164,o),
(590,146,o),
(515,146,cs),
(320,146,o),
(287,293,o),
(287,499,cs),
(287,1460,l),
(128,1460,l),
(128,443,ls),
(128,181,o),
(225,-19,o),
(481,-19,cs)
);
},
{
closed = 1;
nodes = (
(361,1640,l),
(522,1844,l),
(478,1844,l),
(640,1640,l),
(786,1640,l),
(583,1881,l),
(417,1881,l),
(214,1640,l)
);
}
);
width = 1000;
}
);
unicode = 219;
},
{
glyphname = Udieresis;
lastChange = "2024-12-31 03:15:52 +0000";
layers = (
{
layerId = "759CA147-6E0D-4FC4-A3FB-2F1E1C6F2428";
shapes = (
{
closed = 1;
nodes = (
(702,-19,o),
(872,85,o),
(872,449,cs),
(872,1460,l),
(715,1460,l),
(715,398,ls),
(715,271,o),
(692,223,o),
(665,193,cs),
(640,164,o),
(590,146,o),
(515,146,cs),
(320,146,o),
(287,293,o),
(287,499,cs),
(287,1460,l),
(128,1460,l),
(128,443,ls),
(128,181,o),
(225,-19,o),
(481,-19,cs)
);
},
{
closed = 1;
nodes = (
(351,1648,o),
(391,1692,o),
(391,1765,cs),
(391,1837,o),
(351,1880,o),
(293,1880,cs),
(234,1880,o),
(194,1837,o),
(194,1765,cs),
(194,1692,o),
(234,1648,o),
(293,1648,cs)
);
},
{
closed = 1;
nodes = (
(767,1648,o),
(807,1692,o),
(807,1765,cs),
(807,1837,o),
(767,1880,o),
(708,1880,cs),
(650,1880,o),
(609,1837,o),
(609,1765,cs),
(609,1692,o),
(650,1648,o),
(708,1648,cs)
);
}
);
width = 1000;
}
);
unicode = 220;
},
{
glyphname = Udotbelow;
lastChange = "2024-12-31 03:15:52 +0000";
layers = (
{
layerId = "759CA147-6E0D-4FC4-A3FB-2F1E1C6F2428";
shapes = (
{
closed = 1;
nodes = (
(702,-19,o),
(872,85,o),
(872,449,cs),
(872,1460,l),
(715,1460,l),
(715,398,ls),
(715,271,o),
(692,223,o),
(665,193,cs),
(640,164,o),
(590,146,o),
(515,146,cs),
(320,146,o),
(287,293,o),
(287,499,cs),
(287,1460,l),
(128,1460,l),
(128,443,ls),
(128,181,o),
(225,-19,o),
(481,-19,cs)
);
},
{
closed = 1;
nodes = (
(566,-515,o),
(612,-466,o),
(612,-386,cs),
(612,-306,o),
(566,-258,o),
(500,-258,cs),
(434,-258,o),
(388,-306,o),
(388,-386,cs),
(388,-466,o),
(434,-515,o),
(500,-515,cs)
);
}
);
width = 1000;
}
);
unicode = 7908;
},
{
glyphname = Ugrave;
lastChange = "2024-12-31 03:15:52 +0000";
layers = (
{
layerId = "759CA147-6E0D-4FC4-A3FB-2F1E1C6F2428";
shapes = (
{
closed = 1;
nodes = (
(702,-19,o),
(872,85,o),
(872,449,cs),
(872,1460,l),
(715,1460,l),
(715,398,ls),
(715,271,o),
(692,223,o),
(665,193,cs),
(640,164,o),
(590,146,o),
(515,146,cs),
(320,146,o),
(287,293,o),
(287,499,cs),
(287,1460,l),
(128,1460,l),
(128,443,ls),
(128,181,o),
(225,-19,o),
(481,-19,cs)
);
},
{
closed = 1;
nodes = (
(402,1881,l),
(234,1881,l),
(437,1640,l),
(571,1640,l)
);
}
);
width = 1000;
}
);
unicode = 217;
},
{
glyphname = Uhungarumlaut;
lastChange = "2024-12-31 03:15:52 +0000";
layers = (
{
layerId = "759CA147-6E0D-4FC4-A3FB-2F1E1C6F2428";
shapes = (
{
closed = 1;
nodes = (
(702,-19,o),
(872,85,o),
(872,449,cs),
(872,1460,l),
(715,1460,l),
(715,398,ls),
(715,271,o),
(692,223,o),
(665,193,cs),
(640,164,o),
(590,146,o),
(515,146,cs),
(320,146,o),
(287,293,o),
(287,499,cs),
(287,1460,l),
(128,1460,l),
(128,443,ls),
(128,181,o),
(225,-19,o),
(481,-19,cs)
);
},
{
closed = 1;
nodes = (
(397,1640,l),
(535,1881,l),
(400,1881,l),
(287,1640,l)
);
},
{
closed = 1;
nodes = (
(704,1640,l),
(843,1881,l),
(707,1881,l),
(595,1640,l)
);
}
);
width = 1000;
}
);
unicode = 368;
},
{
glyphname = Umacron;
lastChange = "2024-12-31 03:15:52 +0000";
layers = (
{
layerId = "759CA147-6E0D-4FC4-A3FB-2F1E1C6F2428";
shapes = (
{
closed = 1;
nodes = (
(702,-19,o),
(872,85,o),
(872,449,cs),
(872,1460,l),
(715,1460,l),
(715,398,ls),
(715,271,o),
(692,223,o),
(665,193,cs),
(640,164,o),
(590,146,o),
(515,146,cs),
(320,146,o),
(287,293,o),
(287,499,cs),
(287,1460,l),
(128,1460,l),
(128,443,ls),
(128,181,o),
(225,-19,o),
(481,-19,cs)
);
},
{
closed = 1;
nodes = (
(241,1849,l),
(241,1718,l),
(759,1718,l),
(759,1849,l)
);
}
);
width = 1000;
}
);
unicode = 362;
},
{
glyphname = Uogonek;
lastChange = "2024-12-31 03:15:52 +0000";
layers = (
{
layerId = "759CA147-6E0D-4FC4-A3FB-2F1E1C6F2428";
shapes = (
{
closed = 1;
nodes = (
(702,-19,o),
(872,85,o),
(872,449,cs),
(872,1460,l),
(715,1460,l),
(715,398,ls),
(715,271,o),
(692,223,o),
(665,193,cs),
(640,164,o),
(590,146,o),
(515,146,cs),
(320,146,o),
(287,293,o),
(287,499,cs),
(287,1460,l),
(128,1460,l),
(128,443,ls),
(128,181,o),
(225,-19,o),
(481,-19,cs)
);
},
{
closed = 1;
nodes = (
(427,-67,o),
(377,-150,o),
(377,-247,cs),
(377,-331,o),
(415,-414,o),
(566,-414,cs),
(624,-414,l),
(624,-282,l),
(601,-282,ls),
(534,-282,o),
(511,-252,o),
(511,-206,cs),
(511,-153,o),
(540,-88,o),
(624,0,c),
(530,37,l)
);
}
);
width = 1000;
}
);
unicode = 370;
},
{
glyphname = Uring;
lastChange = "2024-12-31 03:15:52 +0000";
layers = (
{
layerId = "759CA147-6E0D-4FC4-A3FB-2F1E1C6F2428";
shapes = (
{
closed = 1;
nodes = (
(702,-19,o),
(872,85,o),
(872,449,cs),
(872,1460,l),
(715,1460,l),
(715,398,ls),
(715,271,o),
(692,223,o),
(665,193,cs),
(640,164,o),
(590,146,o),
(515,146,cs),
(320,146,o),
(287,293,o),
(287,499,cs),
(287,1460,l),
(128,1460,l),
(128,443,ls),
(128,181,o),
(225,-19,o),
(481,-19,cs)
);
},
{
closed = 1;
nodes = (
(607,1422,o),
(683,1521,o),
(683,1655,cs),
(683,1790,o),
(607,1888,o),
(500,1888,cs),
(393,1888,o),
(317,1790,o),
(317,1655,cs),
(317,1521,o),
(393,1422,o),
(500,1422,cs)
);
},
{
closed = 1;
nodes = (
(435,1519,o),
(393,1577,o),
(393,1655,cs),
(393,1733,o),
(435,1791,o),
(500,1791,cs),
(565,1791,o),
(606,1733,o),
(606,1655,cs),
(606,1577,o),
(565,1519,o),
(500,1519,cs)
);
}
);
width = 1000;
}
);
unicode = 366;
},
{
glyphname = Utilde;
lastChange = "2024-12-31 03:15:52 +0000";
layers = (
{
layerId = "759CA147-6E0D-4FC4-A3FB-2F1E1C6F2428";
shapes = (
{
closed = 1;
nodes = (
(702,-19,o),
(872,85,o),
(872,449,cs),
(872,1460,l),
(715,1460,l),
(715,398,ls),
(715,271,o),
(692,223,o),
(665,193,cs),
(640,164,o),
(590,146,o),
(515,146,cs),
(320,146,o),
(287,293,o),
(287,499,cs),
(287,1460,l),
(128,1460,l),
(128,443,ls),
(128,181,o),
(225,-19,o),
(481,-19,cs)
);
},
{
closed = 1;
nodes = (
(271,1897,o),
(208,1816,o),
(192,1673,c),
(297,1642,l),
(310,1726,o),
(343,1771,o),
(390,1771,cs),
(472,1771,o),
(507,1628,o),
(633,1628,cs),
(728,1628,o),
(792,1709,o),
(808,1853,c),
(703,1883,l),
(690,1799,o),
(658,1754,o),
(611,1754,cs),
(528,1754,o),
(492,1897,o),
(366,1897,cs)
);
}
);
width = 1000;
}
);
unicode = 360;
},
{
glyphname = V;
lastChange = "2024-12-31 03:15:52 +0000";
layers = (
{
layerId = "759CA147-6E0D-4FC4-A3FB-2F1E1C6F2428";
shapes = (
{
closed = 1;
nodes = (
(143,967,o),
(232,484,o),
(431,0,c),
(573,0,l),
(768,481,o),
(859,970,o),
(910,1460,c),
(758,1460,l),
(717,1025,o),
(643,622,o),
(512,248,c),
(498,248,l),
(369,622,o),
(294,1025,o),
(252,1460,c),
(90,1460,l)
);
}
);
width = 1000;
}
);
unicode = 86;
},
{
glyphname = W;
lastChange = "2024-12-31 03:15:52 +0000";
layers = (
{
layerId = "759CA147-6E0D-4FC4-A3FB-2F1E1C6F2428";
shapes = (
{
closed = 1;
nodes = (
(765,0,l),
(886,490,o),
(948,998,o),
(973,1460,c),
(833,1460,l),
(813,1117,o),
(766,719,o),
(706,381,c),
(693,381,l),
(640,651,o),
(594,991,o),
(565,1216,c),
(451,1216,l),
(420,991,o),
(372,651,o),
(315,381,c),
(303,381,l),
(244,722,o),
(198,1117,o),
(177,1460,c),
(27,1460,l),
(52,998,o),
(115,490,o),
(236,0,c),
(337,0,l),
(414,329,o),
(461,667,o),
(496,922,c),
(509,922,l),
(541,668,o),
(585,330,o),
(657,0,c)
);
}
);
width = 1000;
}
);
unicode = 87;
},
{
glyphname = Wacute;
lastChange = "2024-12-31 03:15:52 +0000";
layers = (
{
layerId = "759CA147-6E0D-4FC4-A3FB-2F1E1C6F2428";
shapes = (
{
closed = 1;
nodes = (
(765,0,l),
(886,490,o),
(948,998,o),
(973,1460,c),
(833,1460,l),
(813,1117,o),
(766,719,o),
(706,381,c),
(693,381,l),
(640,651,o),
(594,991,o),
(565,1216,c),
(451,1216,l),
(420,991,o),
(372,651,o),
(315,381,c),
(303,381,l),
(244,722,o),
(198,1117,o),
(177,1460,c),
(27,1460,l),
(52,998,o),
(115,490,o),
(236,0,c),
(337,0,l),
(414,329,o),
(461,667,o),
(496,922,c),
(509,922,l),
(541,668,o),
(585,330,o),
(657,0,c)
);
},
{
closed = 1;
nodes = (
(598,1881,l),
(766,1881,l),
(563,1640,l),
(429,1640,l)
);
}
);
width = 1000;
}
);
unicode = 7810;
},
{
glyphname = Wcircumflex;
lastChange = "2024-12-31 03:15:52 +0000";
layers = (
{
layerId = "759CA147-6E0D-4FC4-A3FB-2F1E1C6F2428";
shapes = (
{
closed = 1;
nodes = (
(765,0,l),
(886,490,o),
(948,998,o),
(973,1460,c),
(833,1460,l),
(813,1117,o),
(766,719,o),
(706,381,c),
(693,381,l),
(640,651,o),
(594,991,o),
(565,1216,c),
(451,1216,l),
(420,991,o),
(372,651,o),
(315,381,c),
(303,381,l),
(244,722,o),
(198,1117,o),
(177,1460,c),
(27,1460,l),
(52,998,o),
(115,490,o),
(236,0,c),
(337,0,l),
(414,329,o),
(461,667,o),
(496,922,c),
(509,922,l),
(541,668,o),
(585,330,o),
(657,0,c)
);
},
{
closed = 1;
nodes = (
(361,1640,l),
(522,1844,l),
(478,1844,l),
(640,1640,l),
(786,1640,l),
(583,1881,l),
(417,1881,l),
(214,1640,l)
);
}
);
width = 1000;
}
);
unicode = 372;
},
{
glyphname = Wdieresis;
lastChange = "2024-12-31 03:15:52 +0000";
layers = (
{
layerId = "759CA147-6E0D-4FC4-A3FB-2F1E1C6F2428";
shapes = (
{
closed = 1;
nodes = (
(765,0,l),
(886,490,o),
(948,998,o),
(973,1460,c),
(833,1460,l),
(813,1117,o),
(766,719,o),
(706,381,c),
(693,381,l),
(640,651,o),
(594,991,o),
(565,1216,c),
(451,1216,l),
(420,991,o),
(372,651,o),
(315,381,c),
(303,381,l),
(244,722,o),
(198,1117,o),
(177,1460,c),
(27,1460,l),
(52,998,o),
(115,490,o),
(236,0,c),
(337,0,l),
(414,329,o),
(461,667,o),
(496,922,c),
(509,922,l),
(541,668,o),
(585,330,o),
(657,0,c)
);
},
{
closed = 1;
nodes = (
(351,1648,o),
(391,1692,o),
(391,1765,cs),
(391,1837,o),
(351,1880,o),
(293,1880,cs),
(234,1880,o),
(194,1837,o),
(194,1765,cs),
(194,1692,o),
(234,1648,o),
(293,1648,cs)
);
},
{
closed = 1;
nodes = (
(767,1648,o),
(807,1692,o),
(807,1765,cs),
(807,1837,o),
(767,1880,o),
(708,1880,cs),
(650,1880,o),
(609,1837,o),
(609,1765,cs),
(609,1692,o),
(650,1648,o),
(708,1648,cs)
);
}
);
width = 1000;
}
);
unicode = 7812;
},
{
glyphname = Wgrave;
lastChange = "2024-12-31 03:15:52 +0000";
layers = (
{
layerId = "759CA147-6E0D-4FC4-A3FB-2F1E1C6F2428";
shapes = (
{
closed = 1;
nodes = (
(765,0,l),
(886,490,o),
(948,998,o),
(973,1460,c),
(833,1460,l),
(813,1117,o),
(766,719,o),
(706,381,c),
(693,381,l),
(640,651,o),
(594,991,o),
(565,1216,c),
(451,1216,l),
(420,991,o),
(372,651,o),
(315,381,c),
(303,381,l),
(244,722,o),
(198,1117,o),
(177,1460,c),
(27,1460,l),
(52,998,o),
(115,490,o),
(236,0,c),
(337,0,l),
(414,329,o),
(461,667,o),
(496,922,c),
(509,922,l),
(541,668,o),
(585,330,o),
(657,0,c)
);
},
{
closed = 1;
nodes = (
(402,1881,l),
(234,1881,l),
(437,1640,l),
(571,1640,l)
);
}
);
width = 1000;
}
);
unicode = 7808;
},
{
glyphname = X;
lastChange = "2024-12-31 03:15:52 +0000";
layers = (
{
layerId = "759CA147-6E0D-4FC4-A3FB-2F1E1C6F2428";
shapes = (
{
closed = 1;
nodes = (
(761,0,l),
(939,0,l),
(248,1460,l),
(73,1460,l)
);
},
{
closed = 1;
nodes = (
(563,675,l),
(927,1460,l),
(758,1460,l),
(488,824,l)
);
},
{
closed = 1;
nodes = (
(436,800,l),
(60,0,l),
(238,0,l),
(517,642,l)
);
}
);
width = 1000;
}
);
unicode = 88;
},
{
glyphname = Y;
lastChange = "2024-12-31 03:15:52 +0000";
layers = (
{
layerId = "759CA147-6E0D-4FC4-A3FB-2F1E1C6F2428";
shapes = (
{
closed = 1;
nodes = (
(578,779,l),
(423,779,l),
(423,0,l),
(578,0,l)
);
},
{
closed = 1;
nodes = (
(135,1188,o),
(255,909,o),
(433,638,c),
(569,638,l),
(746,907,o),
(868,1190,o),
(937,1460,c),
(786,1460,l),
(728,1227,o),
(631,1013,o),
(513,820,c),
(499,820,l),
(382,1013,o),
(285,1227,o),
(227,1460,c),
(63,1460,l)
);
}
);
width = 1000;
}
);
unicode = 89;
},
{
glyphname = Yacute;
lastChange = "2024-12-31 03:15:52 +0000";
layers = (
{
layerId = "759CA147-6E0D-4FC4-A3FB-2F1E1C6F2428";
shapes = (
{
closed = 1;
nodes = (
(578,779,l),
(423,779,l),
(423,0,l),
(578,0,l)
);
},
{
closed = 1;
nodes = (
(135,1188,o),
(255,909,o),
(433,638,c),
(569,638,l),
(746,907,o),
(868,1190,o),
(937,1460,c),
(786,1460,l),
(728,1227,o),
(631,1013,o),
(513,820,c),
(499,820,l),
(382,1013,o),
(285,1227,o),
(227,1460,c),
(63,1460,l)
);
},
{
closed = 1;
nodes = (
(598,1881,l),
(766,1881,l),
(564,1640,l),
(430,1640,l)
);
}
);
width = 1000;
}
);
unicode = 221;
},
{
glyphname = Ycircumflex;
lastChange = "2024-12-31 03:15:52 +0000";
layers = (
{
layerId = "759CA147-6E0D-4FC4-A3FB-2F1E1C6F2428";
shapes = (
{
closed = 1;
nodes = (
(578,779,l),
(423,779,l),
(423,0,l),
(578,0,l)
);
},
{
closed = 1;
nodes = (
(135,1188,o),
(255,909,o),
(433,638,c),
(569,638,l),
(746,907,o),
(868,1190,o),
(937,1460,c),
(786,1460,l),
(728,1227,o),
(631,1013,o),
(513,820,c),
(499,820,l),
(382,1013,o),
(285,1227,o),
(227,1460,c),
(63,1460,l)
);
},
{
closed = 1;
nodes = (
(361,1640,l),
(522,1844,l),
(479,1844,l),
(640,1640,l),
(787,1640,l),
(584,1881,l),
(418,1881,l),
(215,1640,l)
);
}
);
width = 1000;
}
);
unicode = 374;
},
{
glyphname = Ydieresis;
lastChange = "2024-12-31 03:15:52 +0000";
layers = (
{
layerId = "759CA147-6E0D-4FC4-A3FB-2F1E1C6F2428";
shapes = (
{
closed = 1;
nodes = (
(578,779,l),
(423,779,l),
(423,0,l),
(578,0,l)
);
},
{
closed = 1;
nodes = (
(135,1188,o),
(255,909,o),
(433,638,c),
(569,638,l),
(746,907,o),
(868,1190,o),
(937,1460,c),
(786,1460,l),
(728,1227,o),
(631,1013,o),
(513,820,c),
(499,820,l),
(382,1013,o),
(285,1227,o),
(227,1460,c),
(63,1460,l)
);
},
{
closed = 1;
nodes = (
(352,1648,o),
(392,1692,o),
(392,1765,cs),
(392,1837,o),
(352,1880,o),
(293,1880,cs),
(235,1880,o),
(194,1837,o),
(194,1765,cs),
(194,1692,o),
(235,1648,o),
(293,1648,cs)
);
},
{
closed = 1;
nodes = (
(767,1648,o),
(808,1692,o),
(808,1765,cs),
(808,1837,o),
(767,1880,o),
(709,1880,cs),
(650,1880,o),
(610,1837,o),
(610,1765,cs),
(610,1692,o),
(650,1648,o),
(709,1648,cs)
);
}
);
width = 1000;
}
);
unicode = 376;
},
{
glyphname = Ygrave;
lastChange = "2024-12-31 03:15:52 +0000";
layers = (
{
layerId = "759CA147-6E0D-4FC4-A3FB-2F1E1C6F2428";
shapes = (
{
closed = 1;
nodes = (
(578,779,l),
(423,779,l),
(423,0,l),
(578,0,l)
);
},
{
closed = 1;
nodes = (
(135,1188,o),
(255,909,o),
(433,638,c),
(569,638,l),
(746,907,o),
(868,1190,o),
(937,1460,c),
(786,1460,l),
(728,1227,o),
(631,1013,o),
(513,820,c),
(499,820,l),
(382,1013,o),
(285,1227,o),
(227,1460,c),
(63,1460,l)
);
},
{
closed = 1;
nodes = (
(402,1881,l),
(235,1881,l),
(438,1640,l),
(571,1640,l)
);
}
);
width = 1000;
}
);
unicode = 7922;
},
{
glyphname = Ymacron;
lastChange = "2024-12-31 03:15:52 +0000";
layers = (
{
layerId = "759CA147-6E0D-4FC4-A3FB-2F1E1C6F2428";
shapes = (
{
closed = 1;
nodes = (
(578,779,l),
(423,779,l),
(423,0,l),
(578,0,l)
);
},
{
closed = 1;
nodes = (
(135,1188,o),
(255,909,o),
(433,638,c),
(569,638,l),
(746,907,o),
(868,1190,o),
(937,1460,c),
(786,1460,l),
(728,1227,o),
(631,1013,o),
(513,820,c),
(499,820,l),
(382,1013,o),
(285,1227,o),
(227,1460,c),
(63,1460,l)
);
},
{
closed = 1;
nodes = (
(242,1849,l),
(242,1718,l),
(760,1718,l),
(760,1849,l)
);
}
);
width = 1000;
}
);
unicode = 562;
},
{
glyphname = Ytilde;
lastChange = "2024-12-31 03:15:52 +0000";
layers = (
{
layerId = "759CA147-6E0D-4FC4-A3FB-2F1E1C6F2428";
shapes = (
{
closed = 1;
nodes = (
(578,779,l),
(423,779,l),
(423,0,l),
(578,0,l)
);
},
{
closed = 1;
nodes = (
(135,1188,o),
(255,909,o),
(433,638,c),
(569,638,l),
(746,907,o),
(868,1190,o),
(937,1460,c),
(786,1460,l),
(728,1227,o),
(631,1013,o),
(513,820,c),
(499,820,l),
(382,1013,o),
(285,1227,o),
(227,1460,c),
(63,1460,l)
);
},
{
closed = 1;
nodes = (
(272,1897,o),
(208,1816,o),
(193,1673,c),
(298,1642,l),
(311,1726,o),
(344,1771,o),
(390,1771,cs),
(473,1771,o),
(507,1628,o),
(633,1628,cs),
(728,1628,o),
(793,1709,o),
(809,1853,c),
(704,1883,l),
(691,1799,o),
(658,1754,o),
(612,1754,cs),
(529,1754,o),
(493,1897,o),
(367,1897,cs)
);
}
);
width = 1000;
}
);
unicode = 7928;
},
{
glyphname = Z;
lastChange = "2024-12-31 03:15:52 +0000";
layers = (
{
layerId = "759CA147-6E0D-4FC4-A3FB-2F1E1C6F2428";
shapes = (
{
closed = 1;
nodes = (
(104,1299,l),
(686,1299,l),
(661,1325,l),
(125,109,l),
(139,0,l),
(855,0,l),
(903,168,l),
(272,168,l),
(298,117,l),
(843,1356,l),
(827,1460,l),
(149,1460,l)
);
}
);
width = 1000;
}
);
unicode = 90;
},
{
glyphname = Zacute;
lastChange = "2024-12-31 03:15:52 +0000";
layers = (
{
layerId = "759CA147-6E0D-4FC4-A3FB-2F1E1C6F2428";
shapes = (
{
closed = 1;
nodes = (
(104,1299,l),
(686,1299,l),
(661,1325,l),
(125,109,l),
(139,0,l),
(855,0,l),
(903,168,l),
(272,168,l),
(298,117,l),
(843,1356,l),
(827,1460,l),
(149,1460,l)
);
},
{
closed = 1;
nodes = (
(598,1881,l),
(766,1881,l),
(563,1640,l),
(429,1640,l)
);
}
);
width = 1000;
}
);
unicode = 377;
},
{
glyphname = Zcaron;
lastChange = "2024-12-31 03:15:52 +0000";
layers = (
{
layerId = "759CA147-6E0D-4FC4-A3FB-2F1E1C6F2428";
shapes = (
{
closed = 1;
nodes = (
(104,1299,l),
(686,1299,l),
(661,1325,l),
(125,109,l),
(139,0,l),
(855,0,l),
(903,168,l),
(272,168,l),
(298,117,l),
(843,1356,l),
(827,1460,l),
(149,1460,l)
);
},
{
closed = 1;
nodes = (
(361,1881,l),
(522,1677,l),
(478,1677,l),
(640,1881,l),
(786,1881,l),
(583,1640,l),
(417,1640,l),
(214,1881,l)
);
}
);
width = 1000;
}
);
unicode = 381;
},
{
glyphname = Zdotaccent;
lastChange = "2024-12-31 03:15:52 +0000";
layers = (
{
layerId = "759CA147-6E0D-4FC4-A3FB-2F1E1C6F2428";
shapes = (
{
closed = 1;
nodes = (
(104,1299,l),
(686,1299,l),
(661,1325,l),
(125,109,l),
(139,0,l),
(855,0,l),
(903,168,l),
(272,168,l),
(298,117,l),
(843,1356,l),
(827,1460,l),
(149,1460,l)
);
},
{
closed = 1;
nodes = (
(559,1648,o),
(600,1692,o),
(600,1765,cs),
(600,1837,o),
(559,1880,o),
(499,1880,cs),
(440,1880,o),
(398,1837,o),
(398,1765,cs),
(398,1692,o),
(440,1648,o),
(499,1648,cs)
);
}
);
width = 1000;
}
);
unicode = 379;
},
{
glyphname = M.both;
lastChange = "2024-12-31 03:15:52 +0000";
layers = (
{
layerId = "759CA147-6E0D-4FC4-A3FB-2F1E1C6F2428";
shapes = (
{
closed = 1;
nodes = (
(-17,0,l),
(123,0,l),
(184,1165,l),
(195,1165,l),
(465,389,l),
(529,389,l),
(794,1165,l),
(807,1165,l),
(874,0,l),
(1015,0,l),
(927,1460,l),
(781,1460,l),
(508,669,l),
(498,669,l),
(225,1460,l),
(71,1460,l)
);
}
);
width = 1000;
}
);
},
{
glyphname = T.both;
lastChange = "2024-12-31 03:15:52 +0000";
layers = (
{
layerId = "759CA147-6E0D-4FC4-A3FB-2F1E1C6F2428";
shapes = (
{
closed = 1;
nodes = (
(579,1460,l),
(423,1460,l),
(423,0,l),
(579,0,l)
);
},
{
closed = 1;
nodes = (
(1025,1296,l),
(1003,1460,l),
(-2,1460,l),
(-24,1296,l)
);
}
);
width = 1000;
}
);
},
{
glyphname = Tbar.both;
lastChange = "2024-12-31 03:15:52 +0000";
layers = (
{
layerId = "759CA147-6E0D-4FC4-A3FB-2F1E1C6F2428";
shapes = (
{
closed = 1;
nodes = (
(869,667,l),
(869,830,l),
(131,830,l),
(131,667,l)
);
},
{
closed = 1;
nodes = (
(579,1460,l),
(423,1460,l),
(423,0,l),
(579,0,l)
);
},
{
closed = 1;
nodes = (
(1025,1296,l),
(1003,1460,l),
(-2,1460,l),
(-24,1296,l)
);
}
);
width = 1000;
}
);
},
{
glyphname = Tcaron.both;
lastChange = "2024-12-31 03:15:52 +0000";
layers = (
{
layerId = "759CA147-6E0D-4FC4-A3FB-2F1E1C6F2428";
shapes = (
{
closed = 1;
nodes = (
(579,1460,l),
(423,1460,l),
(423,0,l),
(579,0,l)
);
},
{
closed = 1;
nodes = (
(1025,1296,l),
(1003,1460,l),
(-2,1460,l),
(-24,1296,l)
);
},
{
closed = 1;
nodes = (
(324,1891,l),
(526,1670,l),
(474,1670,l),
(677,1891,l),
(840,1891,l),
(594,1640,l),
(406,1640,l),
(160,1891,l)
);
}
);
width = 1000;
}
);
},
{
glyphname = Tcedilla.both;
lastChange = "2024-12-31 03:15:52 +0000";
layers = (
{
layerId = "759CA147-6E0D-4FC4-A3FB-2F1E1C6F2428";
shapes = (
{
closed = 1;
nodes = (
(579,1460,l),
(423,1460,l),
(423,0,l),
(579,0,l)
);
},
{
closed = 1;
nodes = (
(1025,1296,l),
(1003,1460,l),
(-2,1460,l),
(-24,1296,l)
);
},
{
closed = 1;
nodes = (
(552,-232,l),
(549,48,l),
(452,48,l),
(452,-274,l),
(574,-284,o),
(639,-315,o),
(639,-391,cs),
(639,-455,o),
(587,-494,o),
(445,-494,cs),
(373,-494,l),
(373,-619,l),
(455,-619,ls),
(689,-619,o),
(765,-542,o),
(765,-405,cs),
(765,-258,o),
(680,-200,o),
(532,-178,c)
);
}
);
width = 1000;
}
);
},
{
glyphname = Tcommaaccent.both;
lastChange = "2024-12-31 03:15:52 +0000";
layers = (
{
layerId = "759CA147-6E0D-4FC4-A3FB-2F1E1C6F2428";
shapes = (
{
closed = 1;
nodes = (
(579,1460,l),
(423,1460,l),
(423,0,l),
(579,0,l)
);
},
{
closed = 1;
nodes = (
(1025,1296,l),
(1003,1460,l),
(-2,1460,l),
(-24,1296,l)
);
},
{
closed = 1;
nodes = (
(522,-516,o),
(542,-511,o),
(561,-499,c),
(533,-469,l),
(520,-566,o),
(453,-623,o),
(378,-679,c),
(431,-760,l),
(531,-697,o),
(627,-584,o),
(627,-432,cs),
(627,-313,o),
(570,-258,o),
(501,-258,cs),
(437,-258,o),
(388,-305,o),
(388,-387,cs),
(388,-467,o),
(436,-516,o),
(502,-516,cs)
);
}
);
width = 1000;
}
);
},
{
glyphname = W.both;
lastChange = "2024-12-31 03:15:52 +0000";
layers = (
{
layerId = "759CA147-6E0D-4FC4-A3FB-2F1E1C6F2428";
shapes = (
{
closed = 1;
nodes = (
(823,0,l),
(959,483,o),
(1052,976,o),
(1088,1460,c),
(937,1460,l),
(911,1093,o),
(836,679,o),
(765,352,c),
(751,352,l),
(666,679,o),
(617,928,o),
(569,1214,c),
(444,1214,l),
(401,957,o),
(341,675,o),
(253,352,c),
(238,352,l),
(166,682,o),
(98,1093,o),
(69,1460,c),
(-90,1460,l),
(-53,976,o),
(39,483,o),
(170,0,c),
(281,0,l),
(369,317,o),
(450,653,o),
(489,887,c),
(506,887,l),
(542,654,o),
(622,317,o),
(705,0,c)
);
}
);
width = 1000;
}
);
},
{
glyphname = Wacute.both;
lastChange = "2024-12-31 03:15:52 +0000";
layers = (
{
layerId = "759CA147-6E0D-4FC4-A3FB-2F1E1C6F2428";
shapes = (
{
closed = 1;
nodes = (
(823,0,l),
(959,483,o),
(1052,976,o),
(1088,1460,c),
(937,1460,l),
(911,1093,o),
(836,679,o),
(765,352,c),
(751,352,l),
(666,679,o),
(617,928,o),
(569,1214,c),
(444,1214,l),
(401,957,o),
(341,675,o),
(253,352,c),
(238,352,l),
(166,682,o),
(98,1093,o),
(69,1460,c),
(-90,1460,l),
(-53,976,o),
(39,483,o),
(170,0,c),
(281,0,l),
(369,317,o),
(450,653,o),
(489,887,c),
(506,887,l),
(542,654,o),
(622,317,o),
(705,0,c)
);
},
{
closed = 1;
nodes = (
(629,1897,l),
(816,1897,l),
(569,1641,l),
(420,1641,l)
);
}
);
width = 1000;
}
);
},
{
glyphname = Wcircumflex.both;
lastChange = "2024-12-31 03:15:52 +0000";
layers = (
{
layerId = "759CA147-6E0D-4FC4-A3FB-2F1E1C6F2428";
shapes = (
{
closed = 1;
nodes = (
(823,0,l),
(959,483,o),
(1052,976,o),
(1088,1460,c),
(937,1460,l),
(911,1093,o),
(836,679,o),
(765,352,c),
(751,352,l),
(666,679,o),
(617,928,o),
(569,1214,c),
(444,1214,l),
(401,957,o),
(341,675,o),
(253,352,c),
(238,352,l),
(166,682,o),
(98,1093,o),
(69,1460,c),
(-90,1460,l),
(-53,976,o),
(39,483,o),
(170,0,c),
(281,0,l),
(369,317,o),
(450,653,o),
(489,887,c),
(506,887,l),
(542,654,o),
(622,317,o),
(705,0,c)
);
},
{
closed = 1;
nodes = (
(319,1640,l),
(525,1863,l),
(473,1863,l),
(679,1640,l),
(844,1640,l),
(594,1892,l),
(404,1892,l),
(154,1640,l)
);
}
);
width = 1000;
}
);
},
{
glyphname = Wdieresis.both;
lastChange = "2024-12-31 03:15:52 +0000";
layers = (
{
layerId = "759CA147-6E0D-4FC4-A3FB-2F1E1C6F2428";
shapes = (
{
closed = 1;
nodes = (
(823,0,l),
(959,483,o),
(1052,976,o),
(1088,1460,c),
(937,1460,l),
(911,1093,o),
(836,679,o),
(765,352,c),
(751,352,l),
(666,679,o),
(617,928,o),
(569,1214,c),
(444,1214,l),
(401,957,o),
(341,675,o),
(253,352,c),
(238,352,l),
(166,682,o),
(98,1093,o),
(69,1460,c),
(-90,1460,l),
(-53,976,o),
(39,483,o),
(170,0,c),
(281,0,l),
(369,317,o),
(450,653,o),
(489,887,c),
(506,887,l),
(542,654,o),
(622,317,o),
(705,0,c)
);
},
{
closed = 1;
nodes = (
(301,1658,o),
(342,1702,o),
(342,1774,cs),
(342,1846,o),
(301,1890,o),
(241,1890,cs),
(182,1890,o),
(140,1846,o),
(140,1774,cs),
(140,1702,o),
(182,1658,o),
(241,1658,cs)
);
},
{
closed = 1;
nodes = (
(816,1658,o),
(857,1702,o),
(857,1774,cs),
(857,1846,o),
(816,1890,o),
(757,1890,cs),
(698,1890,o),
(656,1846,o),
(656,1774,cs),
(656,1702,o),
(698,1658,o),
(757,1658,cs)
);
}
);
width = 1000;
}
);
},
{
glyphname = Wgrave.both;
lastChange = "2024-12-31 03:15:52 +0000";
layers = (
{
layerId = "759CA147-6E0D-4FC4-A3FB-2F1E1C6F2428";
shapes = (
{
closed = 1;
nodes = (
(823,0,l),
(959,483,o),
(1052,976,o),
(1088,1460,c),
(937,1460,l),
(911,1093,o),
(836,679,o),
(765,352,c),
(751,352,l),
(666,679,o),
(617,928,o),
(569,1214,c),
(444,1214,l),
(401,957,o),
(341,675,o),
(253,352,c),
(238,352,l),
(166,682,o),
(98,1093,o),
(69,1460,c),
(-90,1460,l),
(-53,976,o),
(39,483,o),
(170,0,c),
(281,0,l),
(369,317,o),
(450,653,o),
(489,887,c),
(506,887,l),
(542,654,o),
(622,317,o),
(705,0,c)
);
},
{
closed = 1;
nodes = (
(370,1897,l),
(182,1897,l),
(429,1641,l),
(578,1641,l)
);
}
);
width = 1000;
}
);
},
{
glyphname = E.left;
lastChange = "2024-12-31 03:15:52 +0000";
layers = (
{
layerId = "759CA147-6E0D-4FC4-A3FB-2F1E1C6F2428";
shapes = (
{
closed = 1;
nodes = (
(311,1460,l),
(155,1460,l),
(155,0,l),
(311,0,l)
);
},
{
closed = 1;
nodes = (
(244,163,l),
(244,0,l),
(798,0,l),
(816,163,l)
);
},
{
closed = 1;
nodes = (
(252,817,l),
(252,661,l),
(706,661,l),
(706,817,l)
);
},
{
closed = 1;
nodes = (
(798,1460,l),
(244,1460,l),
(244,1297,l),
(816,1297,l)
);
}
);
width = 1000;
}
);
},
{
glyphname = Eacute.left;
lastChange = "2024-12-31 03:15:52 +0000";
layers = (
{
layerId = "759CA147-6E0D-4FC4-A3FB-2F1E1C6F2428";
shapes = (
{
closed = 1;
nodes = (
(311,1460,l),
(155,1460,l),
(155,0,l),
(311,0,l)
);
},
{
closed = 1;
nodes = (
(244,163,l),
(244,0,l),
(798,0,l),
(816,163,l)
);
},
{
closed = 1;
nodes = (
(252,817,l),
(252,661,l),
(706,661,l),
(706,817,l)
);
},
{
closed = 1;
nodes = (
(798,1460,l),
(244,1460,l),
(244,1297,l),
(816,1297,l)
);
},
{
closed = 1;
nodes = (
(540,1876,l),
(701,1876,l),
(514,1639,l),
(386,1639,l)
);
}
);
width = 1000;
}
);
},
{
glyphname = Ebreve.left;
lastChange = "2024-12-31 03:15:52 +0000";
layers = (
{
layerId = "759CA147-6E0D-4FC4-A3FB-2F1E1C6F2428";
shapes = (
{
closed = 1;
nodes = (
(311,1460,l),
(155,1460,l),
(155,0,l),
(311,0,l)
);
},
{
closed = 1;
nodes = (
(244,163,l),
(244,0,l),
(798,0,l),
(816,163,l)
);
},
{
closed = 1;
nodes = (
(252,817,l),
(252,661,l),
(706,661,l),
(706,817,l)
);
},
{
closed = 1;
nodes = (
(798,1460,l),
(244,1460,l),
(244,1297,l),
(816,1297,l)
);
},
{
closed = 1;
nodes = (
(223,1735,o),
(298,1629,o),
(453,1629,cs),
(609,1629,o),
(684,1735,o),
(675,1877,c),
(577,1877,l),
(577,1799,o),
(542,1731,o),
(453,1731,cs),
(365,1731,o),
(329,1799,o),
(329,1877,c),
(231,1877,l)
);
}
);
width = 1000;
}
);
},
{
glyphname = Ecaron.left;
lastChange = "2024-12-31 03:15:52 +0000";
layers = (
{
layerId = "759CA147-6E0D-4FC4-A3FB-2F1E1C6F2428";
shapes = (
{
closed = 1;
nodes = (
(311,1460,l),
(155,1460,l),
(155,0,l),
(311,0,l)
);
},
{
closed = 1;
nodes = (
(244,163,l),
(244,0,l),
(798,0,l),
(816,163,l)
);
},
{
closed = 1;
nodes = (
(252,817,l),
(252,661,l),
(706,661,l),
(706,817,l)
);
},
{
closed = 1;
nodes = (
(798,1460,l),
(244,1460,l),
(244,1297,l),
(816,1297,l)
);
},
{
closed = 1;
nodes = (
(328,1877,l),
(473,1680,l),
(434,1680,l),
(578,1877,l),
(718,1877,l),
(532,1640,l),
(374,1640,l),
(189,1877,l)
);
}
);
width = 1000;
}
);
},
{
glyphname = Ecircumflex.left;
lastChange = "2024-12-31 03:15:52 +0000";
layers = (
{
layerId = "759CA147-6E0D-4FC4-A3FB-2F1E1C6F2428";
shapes = (
{
closed = 1;
nodes = (
(311,1460,l),
(155,1460,l),
(155,0,l),
(311,0,l)
);
},
{
closed = 1;
nodes = (
(244,163,l),
(244,0,l),
(798,0,l),
(816,163,l)
);
},
{
closed = 1;
nodes = (
(252,817,l),
(252,661,l),
(706,661,l),
(706,817,l)
);
},
{
closed = 1;
nodes = (
(798,1460,l),
(244,1460,l),
(244,1297,l),
(816,1297,l)
);
},
{
closed = 1;
nodes = (
(328,1640,l),
(473,1837,l),
(434,1837,l),
(578,1640,l),
(718,1640,l),
(532,1877,l),
(374,1877,l),
(189,1640,l)
);
}
);
width = 1000;
}
);
},
{
glyphname = Edieresis.left;
lastChange = "2024-12-31 03:15:52 +0000";
layers = (
{
layerId = "759CA147-6E0D-4FC4-A3FB-2F1E1C6F2428";
shapes = (
{
closed = 1;
nodes = (
(311,1460,l),
(155,1460,l),
(155,0,l),
(311,0,l)
);
},
{
closed = 1;
nodes = (
(244,163,l),
(244,0,l),
(798,0,l),
(816,163,l)
);
},
{
closed = 1;
nodes = (
(252,817,l),
(252,661,l),
(706,661,l),
(706,817,l)
);
},
{
closed = 1;
nodes = (
(798,1460,l),
(244,1460,l),
(244,1297,l),
(816,1297,l)
);
},
{
closed = 1;
nodes = (
(322,1645,o),
(362,1689,o),
(362,1761,cs),
(362,1833,o),
(322,1877,o),
(265,1877,cs),
(206,1877,o),
(165,1833,o),
(165,1761,cs),
(165,1689,o),
(206,1645,o),
(265,1645,cs)
);
},
{
closed = 1;
nodes = (
(702,1645,o),
(742,1689,o),
(742,1761,cs),
(742,1833,o),
(702,1877,o),
(644,1877,cs),
(585,1877,o),
(545,1833,o),
(545,1761,cs),
(545,1689,o),
(585,1645,o),
(644,1645,cs)
);
}
);
width = 1000;
}
);
},
{
glyphname = Edotaccent.left;
lastChange = "2024-12-31 03:15:52 +0000";
layers = (
{
layerId = "759CA147-6E0D-4FC4-A3FB-2F1E1C6F2428";
shapes = (
{
closed = 1;
nodes = (
(311,1460,l),
(155,1460,l),
(155,0,l),
(311,0,l)
);
},
{
closed = 1;
nodes = (
(244,163,l),
(244,0,l),
(798,0,l),
(816,163,l)
);
},
{
closed = 1;
nodes = (
(252,817,l),
(252,661,l),
(706,661,l),
(706,817,l)
);
},
{
closed = 1;
nodes = (
(798,1460,l),
(244,1460,l),
(244,1297,l),
(816,1297,l)
);
},
{
closed = 1;
nodes = (
(511,1645,o),
(553,1689,o),
(553,1761,cs),
(553,1833,o),
(511,1877,o),
(452,1877,cs),
(392,1877,o),
(351,1833,o),
(351,1761,cs),
(351,1689,o),
(392,1645,o),
(452,1645,cs)
);
}
);
width = 1000;
}
);
},
{
glyphname = Edotbelow.left;
lastChange = "2024-12-31 03:15:52 +0000";
layers = (
{
layerId = "759CA147-6E0D-4FC4-A3FB-2F1E1C6F2428";
shapes = (
{
closed = 1;
nodes = (
(311,1460,l),
(155,1460,l),
(155,0,l),
(311,0,l)
);
},
{
closed = 1;
nodes = (
(244,163,l),
(244,0,l),
(798,0,l),
(816,163,l)
);
},
{
closed = 1;
nodes = (
(252,817,l),
(252,661,l),
(706,661,l),
(706,817,l)
);
},
{
closed = 1;
nodes = (
(798,1460,l),
(244,1460,l),
(244,1297,l),
(816,1297,l)
);
},
{
closed = 1;
nodes = (
(519,-518,o),
(565,-469,o),
(565,-389,cs),
(565,-309,o),
(519,-261,o),
(453,-261,cs),
(387,-261,o),
(341,-309,o),
(341,-389,cs),
(341,-469,o),
(387,-518,o),
(453,-518,cs)
);
}
);
width = 1000;
}
);
},
{
glyphname = Egrave.left;
lastChange = "2024-12-31 03:15:52 +0000";
layers = (
{
layerId = "759CA147-6E0D-4FC4-A3FB-2F1E1C6F2428";
shapes = (
{
closed = 1;
nodes = (
(311,1460,l),
(155,1460,l),
(155,0,l),
(311,0,l)
);
},
{
closed = 1;
nodes = (
(244,163,l),
(244,0,l),
(798,0,l),
(816,163,l)
);
},
{
closed = 1;
nodes = (
(252,817,l),
(252,661,l),
(706,661,l),
(706,817,l)
);
},
{
closed = 1;
nodes = (
(798,1460,l),
(244,1460,l),
(244,1297,l),
(816,1297,l)
);
},
{
closed = 1;
nodes = (
(367,1876,l),
(206,1876,l),
(393,1639,l),
(521,1639,l)
);
}
);
width = 1000;
}
);
},
{
glyphname = Emacron.left;
lastChange = "2024-12-31 03:15:52 +0000";
layers = (
{
layerId = "759CA147-6E0D-4FC4-A3FB-2F1E1C6F2428";
shapes = (
{
closed = 1;
nodes = (
(311,1460,l),
(155,1460,l),
(155,0,l),
(311,0,l)
);
},
{
closed = 1;
nodes = (
(244,163,l),
(244,0,l),
(798,0,l),
(816,163,l)
);
},
{
closed = 1;
nodes = (
(252,817,l),
(252,661,l),
(706,661,l),
(706,817,l)
);
},
{
closed = 1;
nodes = (
(798,1460,l),
(244,1460,l),
(244,1297,l),
(816,1297,l)
);
},
{
closed = 1;
nodes = (
(227,1849,l),
(227,1718,l),
(680,1718,l),
(680,1849,l)
);
}
);
width = 1000;
}
);
},
{
glyphname = Eogonek.left;
lastChange = "2024-12-31 03:15:52 +0000";
layers = (
{
layerId = "759CA147-6E0D-4FC4-A3FB-2F1E1C6F2428";
shapes = (
{
closed = 1;
nodes = (
(311,1460,l),
(155,1460,l),
(155,0,l),
(311,0,l)
);
},
{
closed = 1;
nodes = (
(244,163,l),
(244,0,l),
(798,0,l),
(816,163,l)
);
},
{
closed = 1;
nodes = (
(252,817,l),
(252,661,l),
(706,661,l),
(706,817,l)
);
},
{
closed = 1;
nodes = (
(798,1460,l),
(244,1460,l),
(244,1297,l),
(816,1297,l)
);
},
{
closed = 1;
nodes = (
(590,-66,o),
(543,-149,o),
(543,-244,cs),
(543,-329,o),
(581,-413,o),
(724,-413,cs),
(777,-413,l),
(777,-280,l),
(753,-280,ls),
(694,-280,o),
(675,-248,o),
(675,-203,cs),
(675,-153,o),
(701,-88,o),
(777,0,c),
(679,35,l)
);
}
);
width = 1000;
}
);
},
{
glyphname = Etilde.left;
lastChange = "2024-12-31 03:15:52 +0000";
layers = (
{
layerId = "759CA147-6E0D-4FC4-A3FB-2F1E1C6F2428";
shapes = (
{
closed = 1;
nodes = (
(311,1460,l),
(155,1460,l),
(155,0,l),
(311,0,l)
);
},
{
closed = 1;
nodes = (
(244,163,l),
(244,0,l),
(798,0,l),
(816,163,l)
);
},
{
closed = 1;
nodes = (
(252,817,l),
(252,661,l),
(706,661,l),
(706,817,l)
);
},
{
closed = 1;
nodes = (
(798,1460,l),
(244,1460,l),
(244,1297,l),
(816,1297,l)
);
},
{
closed = 1;
nodes = (
(247,1897,o),
(187,1816,o),
(173,1672,c),
(275,1642,l),
(287,1723,o),
(316,1769,o),
(357,1769,cs),
(429,1769,o),
(461,1628,o),
(573,1628,cs),
(659,1628,o),
(719,1709,o),
(733,1852,c),
(631,1883,l),
(619,1801,o),
(590,1756,o),
(550,1756,cs),
(478,1756,o),
(444,1897,o),
(332,1897,cs)
);
}
);
width = 1000;
}
);
},
{
glyphname = F.left;
lastChange = "2024-12-31 03:15:52 +0000";
layers = (
{
layerId = "759CA147-6E0D-4FC4-A3FB-2F1E1C6F2428";
shapes = (
{
closed = 1;
nodes = (
(319,1460,l),
(163,1460,l),
(163,0,l),
(319,0,l)
);
},
{
closed = 1;
nodes = (
(260,776,l),
(260,624,l),
(688,624,l),
(705,776,l)
);
},
{
closed = 1;
nodes = (
(787,1460,l),
(252,1460,l),
(252,1302,l),
(804,1302,l)
);
}
);
width = 1000;
}
);
},
{
glyphname = I.left;
lastChange = "2024-12-31 03:15:52 +0000";
layers = (
{
layerId = "759CA147-6E0D-4FC4-A3FB-2F1E1C6F2428";
shapes = (
{
closed = 1;
nodes = (
(511,1460,l),
(355,1460,l),
(355,0,l),
(511,0,l)
);
},
{
closed = 1;
nodes = (
(118,1297,l),
(756,1297,l),
(741,1460,l),
(132,1460,l)
);
},
{
closed = 1;
nodes = (
(741,0,l),
(756,163,l),
(118,163,l),
(132,0,l)
);
}
);
width = 1000;
}
);
},
{
glyphname = Iacute.left;
lastChange = "2024-12-31 03:15:52 +0000";
layers = (
{
layerId = "759CA147-6E0D-4FC4-A3FB-2F1E1C6F2428";
shapes = (
{
closed = 1;
nodes = (
(511,1460,l),
(355,1460,l),
(355,0,l),
(511,0,l)
);
},
{
closed = 1;
nodes = (
(118,1297,l),
(756,1297,l),
(741,1460,l),
(132,1460,l)
);
},
{
closed = 1;
nodes = (
(741,0,l),
(756,163,l),
(118,163,l),
(132,0,l)
);
},
{
closed = 1;
nodes = (
(512,1873,l),
(669,1873,l),
(490,1639,l),
(365,1639,l)
);
}
);
width = 1000;
}
);
},
{
glyphname = Ibreve.left;
lastChange = "2024-12-31 03:15:52 +0000";
layers = (
{
layerId = "759CA147-6E0D-4FC4-A3FB-2F1E1C6F2428";
shapes = (
{
closed = 1;
nodes = (
(511,1460,l),
(355,1460,l),
(355,0,l),
(511,0,l)
);
},
{
closed = 1;
nodes = (
(118,1297,l),
(756,1297,l),
(741,1460,l),
(132,1460,l)
);
},
{
closed = 1;
nodes = (
(741,0,l),
(756,163,l),
(118,163,l),
(132,0,l)
);
},
{
closed = 1;
nodes = (
(210,1739,o),
(281,1629,o),
(431,1629,cs),
(583,1629,o),
(654,1739,o),
(644,1875,c),
(548,1875,l),
(548,1799,o),
(515,1730,o),
(431,1730,cs),
(348,1730,o),
(315,1799,o),
(315,1875,c),
(219,1875,l)
);
}
);
width = 1000;
}
);
},
{
glyphname = Icircumflex.left;
lastChange = "2024-12-31 03:15:52 +0000";
layers = (
{
layerId = "759CA147-6E0D-4FC4-A3FB-2F1E1C6F2428";
shapes = (
{
closed = 1;
nodes = (
(511,1460,l),
(355,1460,l),
(355,0,l),
(511,0,l)
);
},
{
closed = 1;
nodes = (
(118,1297,l),
(756,1297,l),
(741,1460,l),
(132,1460,l)
);
},
{
closed = 1;
nodes = (
(741,0,l),
(756,163,l),
(118,163,l),
(132,0,l)
);
},
{
closed = 1;
nodes = (
(315,1640,l),
(451,1834,l),
(413,1834,l),
(549,1640,l),
(686,1640,l),
(509,1875,l),
(356,1875,l),
(177,1640,l)
);
}
);
width = 1000;
}
);
},
{
glyphname = Idieresis.left;
lastChange = "2024-12-31 03:15:52 +0000";
layers = (
{
layerId = "759CA147-6E0D-4FC4-A3FB-2F1E1C6F2428";
shapes = (
{
closed = 1;
nodes = (
(514,1460,l),
(358,1460,l),
(358,0,l),
(514,0,l)
);
},
{
closed = 1;
nodes = (
(121,1297,l),
(759,1297,l),
(744,1460,l),
(135,1460,l)
);
},
{
closed = 1;
nodes = (
(744,0,l),
(759,163,l),
(121,163,l),
(135,0,l)
);
},
{
closed = 1;
nodes = (
(313,1643,o),
(352,1687,o),
(352,1759,cs),
(352,1831,o),
(313,1875,o),
(255,1875,cs),
(197,1875,o),
(156,1831,o),
(156,1759,cs),
(156,1687,o),
(197,1643,o),
(255,1643,cs)
);
},
{
closed = 1;
nodes = (
(673,1643,o),
(715,1687,o),
(715,1759,cs),
(715,1831,o),
(673,1875,o),
(616,1875,cs),
(558,1875,o),
(518,1831,o),
(518,1759,cs),
(518,1687,o),
(558,1643,o),
(616,1643,cs)
);
}
);
width = 1000;
}
);
},
{
glyphname = Idotaccent.left;
lastChange = "2024-12-31 03:15:52 +0000";
layers = (
{
layerId = "759CA147-6E0D-4FC4-A3FB-2F1E1C6F2428";
shapes = (
{
closed = 1;
nodes = (
(511,1460,l),
(355,1460,l),
(355,0,l),
(511,0,l)
);
},
{
closed = 1;
nodes = (
(118,1297,l),
(756,1297,l),
(741,1460,l),
(132,1460,l)
);
},
{
closed = 1;
nodes = (
(741,0,l),
(756,163,l),
(118,163,l),
(132,0,l)
);
},
{
closed = 1;
nodes = (
(490,1643,o),
(531,1687,o),
(531,1759,cs),
(531,1832,o),
(490,1875,o),
(430,1875,cs),
(370,1875,o),
(328,1832,o),
(328,1759,cs),
(328,1687,o),
(370,1643,o),
(430,1643,cs)
);
}
);
width = 1000;
}
);
},
{
glyphname = Idotbelow.left;
lastChange = "2024-12-31 03:15:52 +0000";
layers = (
{
layerId = "759CA147-6E0D-4FC4-A3FB-2F1E1C6F2428";
shapes = (
{
closed = 1;
nodes = (
(511,1460,l),
(355,1460,l),
(355,0,l),
(511,0,l)
);
},
{
closed = 1;
nodes = (
(118,1297,l),
(756,1297,l),
(741,1460,l),
(132,1460,l)
);
},
{
closed = 1;
nodes = (
(741,0,l),
(756,163,l),
(118,163,l),
(132,0,l)
);
},
{
closed = 1;
nodes = (
(498,-519,o),
(544,-470,o),
(544,-390,cs),
(544,-310,o),
(498,-262,o),
(431,-262,cs),
(365,-262,o),
(319,-310,o),
(319,-390,cs),
(319,-470,o),
(365,-519,o),
(431,-519,cs)
);
}
);
width = 1000;
}
);
},
{
glyphname = Igrave.left;
lastChange = "2024-12-31 03:15:52 +0000";
layers = (
{
layerId = "759CA147-6E0D-4FC4-A3FB-2F1E1C6F2428";
shapes = (
{
closed = 1;
nodes = (
(511,1460,l),
(355,1460,l),
(355,0,l),
(511,0,l)
);
},
{
closed = 1;
nodes = (
(118,1297,l),
(756,1297,l),
(741,1460,l),
(132,1460,l)
);
},
{
closed = 1;
nodes = (
(741,0,l),
(756,163,l),
(118,163,l),
(132,0,l)
);
},
{
closed = 1;
nodes = (
(351,1873,l),
(194,1873,l),
(373,1639,l),
(498,1639,l)
);
}
);
width = 1000;
}
);
},
{
glyphname = Imacron.left;
lastChange = "2024-12-31 03:15:52 +0000";
layers = (
{
layerId = "759CA147-6E0D-4FC4-A3FB-2F1E1C6F2428";
shapes = (
{
closed = 1;
nodes = (
(511,1460,l),
(355,1460,l),
(355,0,l),
(511,0,l)
);
},
{
closed = 1;
nodes = (
(118,1297,l),
(756,1297,l),
(741,1460,l),
(132,1460,l)
);
},
{
closed = 1;
nodes = (
(741,0,l),
(756,163,l),
(118,163,l),
(132,0,l)
);
},
{
closed = 1;
nodes = (
(220,1849,l),
(220,1718,l),
(643,1718,l),
(643,1849,l)
);
}
);
width = 1000;
}
);
},
{
glyphname = Iogonek.left;
lastChange = "2024-12-31 03:15:52 +0000";
layers = (
{
layerId = "759CA147-6E0D-4FC4-A3FB-2F1E1C6F2428";
shapes = (
{
closed = 1;
nodes = (
(511,1460,l),
(355,1460,l),
(355,0,l),
(511,0,l)
);
},
{
closed = 1;
nodes = (
(118,1297,l),
(756,1297,l),
(741,1460,l),
(132,1460,l)
);
},
{
closed = 1;
nodes = (
(741,0,l),
(756,163,l),
(118,163,l),
(132,0,l)
);
},
{
closed = 1;
nodes = (
(336,-65,o),
(291,-149,o),
(291,-243,cs),
(291,-328,o),
(328,-412,o),
(469,-412,cs),
(519,-412,l),
(519,-280,l),
(495,-280,ls),
(440,-280,o),
(423,-246,o),
(423,-202,cs),
(423,-153,o),
(446,-88,o),
(519,0,c),
(419,35,l)
);
}
);
width = 1000;
}
);
},
{
glyphname = Itilde.left;
lastChange = "2024-12-31 03:15:52 +0000";
layers = (
{
layerId = "759CA147-6E0D-4FC4-A3FB-2F1E1C6F2428";
shapes = (
{
closed = 1;
nodes = (
(515,1460,l),
(360,1460,l),
(360,0,l),
(515,0,l)
);
},
{
closed = 1;
nodes = (
(122,1297,l),
(761,1297,l),
(746,1460,l),
(136,1460,l)
);
},
{
closed = 1;
nodes = (
(746,0,l),
(761,163,l),
(122,163,l),
(136,0,l)
);
},
{
closed = 1;
nodes = (
(240,1897,o),
(183,1816,o),
(170,1672,c),
(271,1642,l),
(281,1722,o),
(310,1768,o),
(348,1768,cs),
(414,1768,o),
(444,1628,o),
(550,1628,cs),
(631,1628,o),
(689,1709,o),
(702,1852,c),
(601,1883,l),
(591,1802,o),
(564,1757,o),
(526,1757,cs),
(459,1757,o),
(427,1897,o),
(322,1897,cs)
);
}
);
width = 1000;
}
);
},
{
glyphname = L.left;
lastChange = "2024-12-31 03:15:52 +0000";
layers = (
{
layerId = "759CA147-6E0D-4FC4-A3FB-2F1E1C6F2428";
shapes = (
{
closed = 1;
nodes = (
(316,1460,l),
(160,1460,l),
(160,0,l),
(316,0,l)
);
},
{
closed = 1;
nodes = (
(249,163,l),
(249,0,l),
(782,0,l),
(810,164,l)
);
}
);
width = 1000;
}
);
},
{
glyphname = Lacute.left;
lastChange = "2024-12-31 03:15:52 +0000";
layers = (
{
layerId = "759CA147-6E0D-4FC4-A3FB-2F1E1C6F2428";
shapes = (
{
closed = 1;
nodes = (
(316,1460,l),
(160,1460,l),
(160,0,l),
(316,0,l)
);
},
{
closed = 1;
nodes = (
(249,163,l),
(249,0,l),
(782,0,l),
(810,164,l)
);
},
{
closed = 1;
nodes = (
(315,1873,l),
(472,1873,l),
(293,1639,l),
(168,1639,l)
);
}
);
width = 1000;
}
);
},
{
glyphname = Lcaron.left;
lastChange = "2024-12-31 03:15:52 +0000";
layers = (
{
layerId = "759CA147-6E0D-4FC4-A3FB-2F1E1C6F2428";
shapes = (
{
closed = 1;
nodes = (
(316,1460,l),
(160,1460,l),
(160,0,l),
(316,0,l)
);
},
{
closed = 1;
nodes = (
(249,163,l),
(249,0,l),
(782,0,l),
(810,164,l)
);
},
{
closed = 1;
nodes = (
(537,1222,l),
(570,1578,l),
(436,1578,l),
(422,1222,l)
);
}
);
width = 1000;
}
);
},
{
glyphname = Lcommaaccent.left;
lastChange = "2024-12-31 03:15:52 +0000";
layers = (
{
layerId = "759CA147-6E0D-4FC4-A3FB-2F1E1C6F2428";
shapes = (
{
closed = 1;
nodes = (
(316,1460,l),
(160,1460,l),
(160,0,l),
(316,0,l)
);
},
{
closed = 1;
nodes = (
(249,163,l),
(249,0,l),
(782,0,l),
(810,164,l)
);
},
{
closed = 1;
nodes = (
(447,-516,o),
(466,-511,o),
(486,-499,c),
(458,-469,l),
(444,-566,o),
(378,-623,o),
(302,-679,c),
(356,-760,l),
(456,-697,o),
(551,-584,o),
(551,-432,cs),
(551,-313,o),
(495,-258,o),
(426,-258,cs),
(362,-258,o),
(312,-305,o),
(312,-387,cs),
(312,-467,o),
(360,-516,o),
(427,-516,cs)
);
}
);
width = 1000;
}
);
},
{
glyphname = Lslash.left;
lastChange = "2024-12-31 03:15:52 +0000";
layers = (
{
layerId = "759CA147-6E0D-4FC4-A3FB-2F1E1C6F2428";
shapes = (
{
closed = 1;
nodes = (
(10,744,l),
(10,574,l),
(545,912,l),
(545,1082,l)
);
},
{
closed = 1;
nodes = (
(311,1460,l),
(156,1460,l),
(156,0,l),
(311,0,l)
);
},
{
closed = 1;
nodes = (
(245,163,l),
(245,0,l),
(777,0,l),
(806,164,l)
);
}
);
width = 1000;
}
);
},
{
glyphname = M.left;
lastChange = "2024-12-31 03:15:52 +0000";
layers = (
{
layerId = "759CA147-6E0D-4FC4-A3FB-2F1E1C6F2428";
shapes = (
{
closed = 1;
nodes = (
(-6,0,l),
(130,0,l),
(172,1165,l),
(183,1165,l),
(418,390,l),
(481,390,l),
(710,1165,l),
(722,1165,l),
(772,0,l),
(910,0,l),
(844,1460,l),
(694,1460,l),
(460,691,l),
(450,691,l),
(216,1460,l),
(60,1460,l)
);
}
);
width = 1000;
}
);
},
{
glyphname = S.left;
lastChange = "2024-12-31 03:15:52 +0000";
layers = (
{
layerId = "759CA147-6E0D-4FC4-A3FB-2F1E1C6F2428";
shapes = (
{
closed = 1;
nodes = (
(773,1455,l),
(700,1476,o),
(631,1486,o),
(569,1486,cs),
(349,1486,o),
(139,1390,o),
(139,1088,cs),
(139,885,o),
(239,780,o),
(406,662,cs),
(587,535,o),
(659,490,o),
(659,342,cs),
(659,271,o),
(640,227,o),
(619,202,cs),
(593,172,o),
(547,145,o),
(448,145,cs),
(332,145,o),
(207,182,o),
(115,230,c),
(118,52,l),
(192,15,o),
(285,-20,o),
(394,-20,cs),
(649,-20,o),
(811,147,o),
(811,405,cs),
(806,640,o),
(677,711,o),
(503,832,cs),
(368,927,o),
(273,1010,o),
(273,1138,cs),
(273,1202,o),
(289,1231,o),
(313,1257,cs),
(340,1287,o),
(400,1313,o),
(523,1313,cs),
(604,1313,o),
(689,1302,o),
(781,1276,c)
);
}
);
width = 1000;
}
);
},
{
glyphname = Sacute.left;
lastChange = "2024-12-31 03:15:52 +0000";
layers = (
{
layerId = "759CA147-6E0D-4FC4-A3FB-2F1E1C6F2428";
shapes = (
{
closed = 1;
nodes = (
(773,1455,l),
(700,1476,o),
(631,1486,o),
(569,1486,cs),
(349,1486,o),
(139,1390,o),
(139,1088,cs),
(139,885,o),
(239,780,o),
(406,662,cs),
(587,535,o),
(659,490,o),
(659,342,cs),
(659,271,o),
(640,227,o),
(619,202,cs),
(593,172,o),
(547,145,o),
(448,145,cs),
(332,145,o),
(207,182,o),
(115,230,c),
(118,52,l),
(192,15,o),
(285,-20,o),
(394,-20,cs),
(649,-20,o),
(811,147,o),
(811,405,cs),
(806,640,o),
(677,711,o),
(503,832,cs),
(368,927,o),
(273,1010,o),
(273,1138,cs),
(273,1202,o),
(289,1231,o),
(313,1257,cs),
(340,1287,o),
(400,1313,o),
(523,1313,cs),
(604,1313,o),
(689,1302,o),
(781,1276,c)
);
},
{
closed = 1;
nodes = (
(552,1877,l),
(715,1877,l),
(523,1640,l),
(394,1640,l)
);
}
);
width = 1000;
}
);
},
{
glyphname = Scaron.left;
lastChange = "2024-12-31 03:15:52 +0000";
layers = (
{
layerId = "759CA147-6E0D-4FC4-A3FB-2F1E1C6F2428";
shapes = (
{
closed = 1;
nodes = (
(773,1455,l),
(700,1476,o),
(631,1486,o),
(569,1486,cs),
(349,1486,o),
(139,1390,o),
(139,1088,cs),
(139,885,o),
(239,780,o),
(406,662,cs),
(587,535,o),
(659,490,o),
(659,342,cs),
(659,271,o),
(640,227,o),
(619,202,cs),
(593,172,o),
(547,145,o),
(448,145,cs),
(332,145,o),
(207,182,o),
(115,230,c),
(118,52,l),
(192,15,o),
(285,-20,o),
(394,-20,cs),
(649,-20,o),
(811,147,o),
(811,405,cs),
(806,640,o),
(677,711,o),
(503,832,cs),
(368,927,o),
(273,1010,o),
(273,1138,cs),
(273,1202,o),
(289,1231,o),
(313,1257,cs),
(340,1287,o),
(400,1313,o),
(523,1313,cs),
(604,1313,o),
(689,1302,o),
(781,1276,c)
);
},
{
closed = 1;
nodes = (
(335,1878,l),
(483,1680,l),
(443,1680,l),
(592,1878,l),
(733,1878,l),
(543,1640,l),
(383,1640,l),
(193,1878,l)
);
}
);
width = 1000;
}
);
},
{
glyphname = Scedilla.left;
lastChange = "2024-12-31 03:15:52 +0000";
layers = (
{
layerId = "759CA147-6E0D-4FC4-A3FB-2F1E1C6F2428";
shapes = (
{
closed = 1;
nodes = (
(773,1455,l),
(700,1476,o),
(631,1486,o),
(569,1486,cs),
(349,1486,o),
(139,1390,o),
(139,1088,cs),
(139,885,o),
(239,780,o),
(406,662,cs),
(587,535,o),
(659,490,o),
(659,342,cs),
(659,271,o),
(640,227,o),
(619,202,cs),
(593,172,o),
(547,145,o),
(448,145,cs),
(332,145,o),
(207,182,o),
(115,230,c),
(118,52,l),
(192,15,o),
(285,-20,o),
(394,-20,cs),
(649,-20,o),
(811,147,o),
(811,405,cs),
(806,640,o),
(677,711,o),
(503,832,cs),
(368,927,o),
(273,1010,o),
(273,1138,cs),
(273,1202,o),
(289,1231,o),
(313,1257,cs),
(340,1287,o),
(400,1313,o),
(523,1313,cs),
(604,1313,o),
(689,1302,o),
(781,1276,c)
);
},
{
closed = 1;
nodes = (
(514,-216,l),
(511,48,l),
(414,48,l),
(414,-256,l),
(473,-265,o),
(513,-293,o),
(513,-368,cs),
(513,-430,o),
(488,-466,o),
(401,-466,cs),
(371,-466,l),
(371,-580,l),
(424,-580,ls),
(588,-580,o),
(631,-505,o),
(631,-380,cs),
(631,-244,o),
(580,-187,o),
(487,-165,c)
);
}
);
width = 1000;
}
);
},
{
glyphname = Scircumflex.left;
lastChange = "2024-12-31 03:15:52 +0000";
layers = (
{
layerId = "759CA147-6E0D-4FC4-A3FB-2F1E1C6F2428";
shapes = (
{
closed = 1;
nodes = (
(773,1455,l),
(700,1476,o),
(631,1486,o),
(569,1486,cs),
(349,1486,o),
(139,1390,o),
(139,1088,cs),
(139,885,o),
(239,780,o),
(406,662,cs),
(587,535,o),
(659,490,o),
(659,342,cs),
(659,271,o),
(640,227,o),
(619,202,cs),
(593,172,o),
(547,145,o),
(448,145,cs),
(332,145,o),
(207,182,o),
(115,230,c),
(118,52,l),
(192,15,o),
(285,-20,o),
(394,-20,cs),
(649,-20,o),
(811,147,o),
(811,405,cs),
(806,640,o),
(677,711,o),
(503,832,cs),
(368,927,o),
(273,1010,o),
(273,1138,cs),
(273,1202,o),
(289,1231,o),
(313,1257,cs),
(340,1287,o),
(400,1313,o),
(523,1313,cs),
(604,1313,o),
(689,1302,o),
(781,1276,c)
);
},
{
closed = 1;
nodes = (
(335,1640,l),
(483,1839,l),
(443,1839,l),
(592,1640,l),
(733,1640,l),
(543,1878,l),
(383,1878,l),
(193,1640,l)
);
}
);
width = 1000;
}
);
},
{
glyphname = Scommaaccent.left;
lastChange = "2024-12-31 03:15:52 +0000";
layers = (
{
layerId = "759CA147-6E0D-4FC4-A3FB-2F1E1C6F2428";
shapes = (
{
closed = 1;
nodes = (
(773,1455,l),
(700,1476,o),
(631,1486,o),
(569,1486,cs),
(349,1486,o),
(139,1390,o),
(139,1088,cs),
(139,885,o),
(239,780,o),
(406,662,cs),
(587,535,o),
(659,490,o),
(659,342,cs),
(659,271,o),
(640,227,o),
(619,202,cs),
(593,172,o),
(547,145,o),
(448,145,cs),
(332,145,o),
(207,182,o),
(115,230,c),
(118,52,l),
(192,15,o),
(285,-20,o),
(394,-20,cs),
(649,-20,o),
(811,147,o),
(811,405,cs),
(806,640,o),
(677,711,o),
(503,832,cs),
(368,927,o),
(273,1010,o),
(273,1138,cs),
(273,1202,o),
(289,1231,o),
(313,1257,cs),
(340,1287,o),
(400,1313,o),
(523,1313,cs),
(604,1313,o),
(689,1302,o),
(781,1276,c)
);
},
{
closed = 1;
nodes = (
(481,-516,o),
(502,-511,o),
(520,-499,c),
(493,-469,l),
(480,-566,o),
(413,-623,o),
(338,-679,c),
(391,-760,l),
(491,-697,o),
(586,-584,o),
(586,-432,cs),
(586,-313,o),
(530,-258,o),
(461,-258,cs),
(397,-258,o),
(348,-305,o),
(348,-387,cs),
(348,-467,o),
(395,-516,o),
(462,-516,cs)
);
}
);
width = 1000;
}
);
},
{
glyphname = T.left;
lastChange = "2024-12-31 03:15:52 +0000";
layers = (
{
layerId = "759CA147-6E0D-4FC4-A3FB-2F1E1C6F2428";
shapes = (
{
closed = 1;
nodes = (
(494,1460,l),
(338,1460,l),
(338,0,l),
(494,0,l)
);
},
{
closed = 1;
nodes = (
(920,1296,l),
(900,1460,l),
(-66,1460,l),
(-87,1296,l)
);
}
);
width = 1000;
}
);
},
{
glyphname = Tbar.left;
lastChange = "2024-12-31 03:15:52 +0000";
layers = (
{
layerId = "759CA147-6E0D-4FC4-A3FB-2F1E1C6F2428";
shapes = (
{
closed = 1;
nodes = (
(769,667,l),
(769,830,l),
(65,830,l),
(65,667,l)
);
},
{
closed = 1;
nodes = (
(494,1460,l),
(338,1460,l),
(338,0,l),
(494,0,l)
);
},
{
closed = 1;
nodes = (
(920,1296,l),
(900,1460,l),
(-66,1460,l),
(-87,1296,l)
);
}
);
width = 1000;
}
);
},
{
glyphname = Tcaron.left;
lastChange = "2024-12-31 03:15:52 +0000";
layers = (
{
layerId = "759CA147-6E0D-4FC4-A3FB-2F1E1C6F2428";
shapes = (
{
closed = 1;
nodes = (
(494,1460,l),
(338,1460,l),
(338,0,l),
(494,0,l)
);
},
{
closed = 1;
nodes = (
(920,1296,l),
(900,1460,l),
(-66,1460,l),
(-87,1296,l)
);
},
{
closed = 1;
nodes = (
(248,1889,l),
(442,1671,l),
(392,1671,l),
(586,1889,l),
(746,1889,l),
(508,1640,l),
(325,1640,l),
(88,1889,l)
);
}
);
width = 1000;
}
);
},
{
glyphname = Tcedilla.left;
lastChange = "2024-12-31 03:15:52 +0000";
layers = (
{
layerId = "759CA147-6E0D-4FC4-A3FB-2F1E1C6F2428";
shapes = (
{
closed = 1;
nodes = (
(494,1460,l),
(338,1460,l),
(338,0,l),
(494,0,l)
);
},
{
closed = 1;
nodes = (
(920,1296,l),
(900,1460,l),
(-66,1460,l),
(-87,1296,l)
);
},
{
closed = 1;
nodes = (
(468,-230,l),
(465,48,l),
(368,48,l),
(368,-271,l),
(481,-281,o),
(541,-312,o),
(541,-387,cs),
(541,-451,o),
(494,-490,o),
(360,-490,cs),
(294,-490,l),
(294,-613,l),
(372,-613,ls),
(594,-613,o),
(666,-536,o),
(666,-401,cs),
(666,-256,o),
(586,-198,o),
(447,-176,c)
);
}
);
width = 1000;
}
);
},
{
glyphname = Tcommaaccent.left;
lastChange = "2024-12-31 03:15:52 +0000";
layers = (
{
layerId = "759CA147-6E0D-4FC4-A3FB-2F1E1C6F2428";
shapes = (
{
closed = 1;
nodes = (
(494,1460,l),
(338,1460,l),
(338,0,l),
(494,0,l)
);
},
{
closed = 1;
nodes = (
(920,1296,l),
(900,1460,l),
(-66,1460,l),
(-87,1296,l)
);
},
{
closed = 1;
nodes = (
(437,-516,o),
(456,-511,o),
(476,-499,c),
(448,-469,l),
(435,-566,o),
(369,-623,o),
(293,-679,c),
(347,-760,l),
(447,-697,o),
(541,-584,o),
(541,-432,cs),
(541,-313,o),
(486,-258,o),
(416,-258,cs),
(352,-258,o),
(302,-305,o),
(302,-387,cs),
(302,-467,o),
(350,-516,o),
(418,-516,cs)
);
}
);
width = 1000;
}
);
},
{
glyphname = W.left;
lastChange = "2024-12-31 03:15:52 +0000";
layers = (
{
layerId = "759CA147-6E0D-4FC4-A3FB-2F1E1C6F2428";
shapes = (
{
closed = 1;
nodes = (
(744,0,l),
(871,487,o),
(944,990,o),
(973,1460,c),
(829,1460,l),
(807,1108,o),
(750,704,o),
(686,370,c),
(673,370,l),
(608,661,o),
(561,968,o),
(525,1216,c),
(407,1216,l),
(372,979,o),
(319,659,o),
(251,370,c),
(238,370,l),
(173,707,o),
(119,1108,o),
(97,1460,c),
(-56,1460,l),
(-27,990,o),
(46,487,o),
(171,0,c),
(275,0,l),
(356,325,o),
(416,661,o),
(452,909,c),
(466,909,l),
(500,663,o),
(556,325,o),
(633,0,c)
);
}
);
width = 1000;
}
);
},
{
glyphname = Wacute.left;
lastChange = "2024-12-31 03:15:52 +0000";
layers = (
{
layerId = "759CA147-6E0D-4FC4-A3FB-2F1E1C6F2428";
shapes = (
{
closed = 1;
nodes = (
(744,0,l),
(871,487,o),
(944,990,o),
(973,1460,c),
(829,1460,l),
(807,1108,o),
(750,704,o),
(686,370,c),
(673,370,l),
(608,661,o),
(561,968,o),
(525,1216,c),
(407,1216,l),
(372,979,o),
(319,659,o),
(251,370,c),
(238,370,l),
(173,707,o),
(119,1108,o),
(97,1460,c),
(-56,1460,l),
(-27,990,o),
(46,487,o),
(171,0,c),
(275,0,l),
(356,325,o),
(416,661,o),
(452,909,c),
(466,909,l),
(500,663,o),
(556,325,o),
(633,0,c)
);
},
{
closed = 1;
nodes = (
(567,1887,l),
(742,1887,l),
(523,1640,l),
(385,1640,l)
);
}
);
width = 1000;
}
);
},
{
glyphname = Wcircumflex.left;
lastChange = "2024-12-31 03:15:52 +0000";
layers = (
{
layerId = "759CA147-6E0D-4FC4-A3FB-2F1E1C6F2428";
shapes = (
{
closed = 1;
nodes = (
(744,0,l),
(871,487,o),
(944,990,o),
(973,1460,c),
(829,1460,l),
(807,1108,o),
(750,704,o),
(686,370,c),
(673,370,l),
(608,661,o),
(561,968,o),
(525,1216,c),
(407,1216,l),
(372,979,o),
(319,659,o),
(251,370,c),
(238,370,l),
(173,707,o),
(119,1108,o),
(97,1460,c),
(-56,1460,l),
(-27,990,o),
(46,487,o),
(171,0,c),
(275,0,l),
(356,325,o),
(416,661,o),
(452,909,c),
(466,909,l),
(500,663,o),
(556,325,o),
(633,0,c)
);
},
{
closed = 1;
nodes = (
(304,1640,l),
(481,1851,l),
(435,1851,l),
(612,1640,l),
(765,1640,l),
(545,1885,l),
(370,1885,l),
(151,1640,l)
);
}
);
width = 1000;
}
);
},
{
glyphname = Wdieresis.left;
lastChange = "2024-12-31 03:15:52 +0000";
layers = (
{
layerId = "759CA147-6E0D-4FC4-A3FB-2F1E1C6F2428";
shapes = (
{
closed = 1;
nodes = (
(744,0,l),
(871,487,o),
(944,990,o),
(973,1460,c),
(829,1460,l),
(807,1108,o),
(750,704,o),
(686,370,c),
(673,370,l),
(608,661,o),
(561,968,o),
(525,1216,c),
(407,1216,l),
(372,979,o),
(319,659,o),
(251,370,c),
(238,370,l),
(173,707,o),
(119,1108,o),
(97,1460,c),
(-56,1460,l),
(-27,990,o),
(46,487,o),
(171,0,c),
(275,0,l),
(356,325,o),
(416,661,o),
(452,909,c),
(466,909,l),
(500,663,o),
(556,325,o),
(633,0,c)
);
},
{
closed = 1;
nodes = (
(290,1652,o),
(331,1696,o),
(331,1768,cs),
(331,1840,o),
(290,1883,o),
(232,1883,cs),
(173,1883,o),
(132,1840,o),
(132,1768,cs),
(132,1696,o),
(173,1652,o),
(232,1652,cs)
);
},
{
closed = 1;
nodes = (
(744,1652,o),
(784,1696,o),
(784,1768,cs),
(784,1840,o),
(744,1883,o),
(685,1883,cs),
(626,1883,o),
(585,1840,o),
(585,1768,cs),
(585,1696,o),
(626,1652,o),
(685,1652,cs)
);
}
);
width = 1000;
}
);
},
{
glyphname = Wgrave.left;
lastChange = "2024-12-31 03:15:52 +0000";
layers = (
{
layerId = "759CA147-6E0D-4FC4-A3FB-2F1E1C6F2428";
shapes = (
{
closed = 1;
nodes = (
(744,0,l),
(871,487,o),
(944,990,o),
(973,1460,c),
(829,1460,l),
(807,1108,o),
(750,704,o),
(686,370,c),
(673,370,l),
(608,661,o),
(561,968,o),
(525,1216,c),
(407,1216,l),
(372,979,o),
(319,659,o),
(251,370,c),
(238,370,l),
(173,707,o),
(119,1108,o),
(97,1460,c),
(-56,1460,l),
(-27,990,o),
(46,487,o),
(171,0,c),
(275,0,l),
(356,325,o),
(416,661,o),
(452,909,c),
(466,909,l),
(500,663,o),
(556,325,o),
(633,0,c)
);
},
{
closed = 1;
nodes = (
(349,1887,l),
(173,1887,l),
(393,1640,l),
(532,1640,l)
);
}
);
width = 1000;
}
);
},
{
glyphname = E.right;
lastChange = "2024-12-31 03:15:52 +0000";
layers = (
{
layerId = "759CA147-6E0D-4FC4-A3FB-2F1E1C6F2428";
shapes = (
{
closed = 1;
nodes = (
(378,1460,l),
(223,1460,l),
(223,0,l),
(378,0,l)
);
},
{
closed = 1;
nodes = (
(311,163,l),
(311,0,l),
(865,0,l),
(884,163,l)
);
},
{
closed = 1;
nodes = (
(319,817,l),
(319,661,l),
(773,661,l),
(773,817,l)
);
},
{
closed = 1;
nodes = (
(865,1460,l),
(311,1460,l),
(311,1297,l),
(884,1297,l)
);
}
);
width = 1000;
}
);
},
{
glyphname = Eacute.right;
lastChange = "2024-12-31 03:15:52 +0000";
layers = (
{
layerId = "759CA147-6E0D-4FC4-A3FB-2F1E1C6F2428";
shapes = (
{
closed = 1;
nodes = (
(378,1460,l),
(223,1460,l),
(223,0,l),
(378,0,l)
);
},
{
closed = 1;
nodes = (
(311,163,l),
(311,0,l),
(865,0,l),
(884,163,l)
);
},
{
closed = 1;
nodes = (
(319,817,l),
(319,661,l),
(773,661,l),
(773,817,l)
);
},
{
closed = 1;
nodes = (
(865,1460,l),
(311,1460,l),
(311,1297,l),
(884,1297,l)
);
},
{
closed = 1;
nodes = (
(607,1876,l),
(768,1876,l),
(581,1639,l),
(452,1639,l)
);
}
);
width = 1000;
}
);
},
{
glyphname = Ebreve.right;
lastChange = "2024-12-31 03:15:52 +0000";
layers = (
{
layerId = "759CA147-6E0D-4FC4-A3FB-2F1E1C6F2428";
shapes = (
{
closed = 1;
nodes = (
(378,1460,l),
(223,1460,l),
(223,0,l),
(378,0,l)
);
},
{
closed = 1;
nodes = (
(311,163,l),
(311,0,l),
(865,0,l),
(884,163,l)
);
},
{
closed = 1;
nodes = (
(319,817,l),
(319,661,l),
(773,661,l),
(773,817,l)
);
},
{
closed = 1;
nodes = (
(865,1460,l),
(311,1460,l),
(311,1297,l),
(884,1297,l)
);
},
{
closed = 1;
nodes = (
(290,1735,o),
(365,1629,o),
(521,1629,cs),
(677,1629,o),
(752,1735,o),
(742,1877,c),
(644,1877,l),
(644,1798,o),
(610,1731,o),
(521,1731,cs),
(431,1731,o),
(397,1798,o),
(397,1877,c),
(299,1877,l)
);
}
);
width = 1000;
}
);
},
{
glyphname = Ecaron.right;
lastChange = "2024-12-31 03:15:52 +0000";
layers = (
{
layerId = "759CA147-6E0D-4FC4-A3FB-2F1E1C6F2428";
shapes = (
{
closed = 1;
nodes = (
(378,1460,l),
(223,1460,l),
(223,0,l),
(378,0,l)
);
},
{
closed = 1;
nodes = (
(311,163,l),
(311,0,l),
(865,0,l),
(884,163,l)
);
},
{
closed = 1;
nodes = (
(319,817,l),
(319,661,l),
(773,661,l),
(773,817,l)
);
},
{
closed = 1;
nodes = (
(865,1460,l),
(311,1460,l),
(311,1297,l),
(884,1297,l)
);
},
{
closed = 1;
nodes = (
(396,1877,l),
(540,1680,l),
(501,1680,l),
(645,1877,l),
(786,1877,l),
(599,1640,l),
(442,1640,l),
(256,1877,l)
);
}
);
width = 1000;
}
);
},
{
glyphname = Ecircumflex.right;
lastChange = "2024-12-31 03:15:52 +0000";
layers = (
{
layerId = "759CA147-6E0D-4FC4-A3FB-2F1E1C6F2428";
shapes = (
{
closed = 1;
nodes = (
(378,1460,l),
(223,1460,l),
(223,0,l),
(378,0,l)
);
},
{
closed = 1;
nodes = (
(311,163,l),
(311,0,l),
(865,0,l),
(884,163,l)
);
},
{
closed = 1;
nodes = (
(319,817,l),
(319,661,l),
(773,661,l),
(773,817,l)
);
},
{
closed = 1;
nodes = (
(865,1460,l),
(311,1460,l),
(311,1297,l),
(884,1297,l)
);
},
{
closed = 1;
nodes = (
(396,1640,l),
(540,1837,l),
(501,1837,l),
(645,1640,l),
(786,1640,l),
(599,1877,l),
(442,1877,l),
(256,1640,l)
);
}
);
width = 1000;
}
);
},
{
glyphname = Edieresis.right;
lastChange = "2024-12-31 03:15:52 +0000";
layers = (
{
layerId = "759CA147-6E0D-4FC4-A3FB-2F1E1C6F2428";
shapes = (
{
closed = 1;
nodes = (
(378,1460,l),
(223,1460,l),
(223,0,l),
(378,0,l)
);
},
{
closed = 1;
nodes = (
(311,163,l),
(311,0,l),
(865,0,l),
(884,163,l)
);
},
{
closed = 1;
nodes = (
(319,817,l),
(319,661,l),
(773,661,l),
(773,817,l)
);
},
{
closed = 1;
nodes = (
(865,1460,l),
(311,1460,l),
(311,1297,l),
(884,1297,l)
);
},
{
closed = 1;
nodes = (
(390,1645,o),
(430,1689,o),
(430,1761,cs),
(430,1833,o),
(390,1877,o),
(331,1877,cs),
(273,1877,o),
(232,1833,o),
(232,1761,cs),
(232,1689,o),
(273,1645,o),
(331,1645,cs)
);
},
{
closed = 1;
nodes = (
(769,1645,o),
(809,1689,o),
(809,1761,cs),
(809,1833,o),
(769,1877,o),
(711,1877,cs),
(652,1877,o),
(612,1833,o),
(612,1761,cs),
(612,1689,o),
(652,1645,o),
(711,1645,cs)
);
}
);
width = 1000;
}
);
},
{
glyphname = Edotaccent.right;
lastChange = "2024-12-31 03:15:52 +0000";
layers = (
{
layerId = "759CA147-6E0D-4FC4-A3FB-2F1E1C6F2428";
shapes = (
{
closed = 1;
nodes = (
(378,1460,l),
(223,1460,l),
(223,0,l),
(378,0,l)
);
},
{
closed = 1;
nodes = (
(311,163,l),
(311,0,l),
(865,0,l),
(884,163,l)
);
},
{
closed = 1;
nodes = (
(319,817,l),
(319,661,l),
(773,661,l),
(773,817,l)
);
},
{
closed = 1;
nodes = (
(865,1460,l),
(311,1460,l),
(311,1297,l),
(884,1297,l)
);
},
{
closed = 1;
nodes = (
(579,1645,o),
(620,1689,o),
(620,1761,cs),
(620,1833,o),
(579,1877,o),
(519,1877,cs),
(460,1877,o),
(418,1833,o),
(418,1761,cs),
(418,1689,o),
(460,1645,o),
(519,1645,cs)
);
}
);
width = 1000;
}
);
},
{
glyphname = Edotbelow.right;
lastChange = "2024-12-31 03:15:52 +0000";
layers = (
{
layerId = "759CA147-6E0D-4FC4-A3FB-2F1E1C6F2428";
shapes = (
{
closed = 1;
nodes = (
(378,1460,l),
(223,1460,l),
(223,0,l),
(378,0,l)
);
},
{
closed = 1;
nodes = (
(311,163,l),
(311,0,l),
(865,0,l),
(884,163,l)
);
},
{
closed = 1;
nodes = (
(319,817,l),
(319,661,l),
(773,661,l),
(773,817,l)
);
},
{
closed = 1;
nodes = (
(865,1460,l),
(311,1460,l),
(311,1297,l),
(884,1297,l)
);
},
{
closed = 1;
nodes = (
(587,-518,o),
(633,-469,o),
(633,-389,cs),
(633,-309,o),
(587,-261,o),
(521,-261,cs),
(454,-261,o),
(408,-309,o),
(408,-389,cs),
(408,-469,o),
(454,-518,o),
(521,-518,cs)
);
}
);
width = 1000;
}
);
},
{
glyphname = Egrave.right;
lastChange = "2024-12-31 03:15:52 +0000";
layers = (
{
layerId = "759CA147-6E0D-4FC4-A3FB-2F1E1C6F2428";
shapes = (
{
closed = 1;
nodes = (
(378,1460,l),
(223,1460,l),
(223,0,l),
(378,0,l)
);
},
{
closed = 1;
nodes = (
(311,163,l),
(311,0,l),
(865,0,l),
(884,163,l)
);
},
{
closed = 1;
nodes = (
(319,817,l),
(319,661,l),
(773,661,l),
(773,817,l)
);
},
{
closed = 1;
nodes = (
(865,1460,l),
(311,1460,l),
(311,1297,l),
(884,1297,l)
);
},
{
closed = 1;
nodes = (
(435,1876,l),
(273,1876,l),
(461,1639,l),
(589,1639,l)
);
}
);
width = 1000;
}
);
},
{
glyphname = Emacron.right;
lastChange = "2024-12-31 03:15:52 +0000";
layers = (
{
layerId = "759CA147-6E0D-4FC4-A3FB-2F1E1C6F2428";
shapes = (
{
closed = 1;
nodes = (
(378,1460,l),
(223,1460,l),
(223,0,l),
(378,0,l)
);
},
{
closed = 1;
nodes = (
(311,163,l),
(311,0,l),
(865,0,l),
(884,163,l)
);
},
{
closed = 1;
nodes = (
(319,817,l),
(319,661,l),
(773,661,l),
(773,817,l)
);
},
{
closed = 1;
nodes = (
(865,1460,l),
(311,1460,l),
(311,1297,l),
(884,1297,l)
);
},
{
closed = 1;
nodes = (
(294,1849,l),
(294,1718,l),
(748,1718,l),
(748,1849,l)
);
}
);
width = 1000;
}
);
},
{
glyphname = Eogonek.right;
lastChange = "2024-12-31 03:15:52 +0000";
layers = (
{
layerId = "759CA147-6E0D-4FC4-A3FB-2F1E1C6F2428";
shapes = (
{
closed = 1;
nodes = (
(394,1460,l),
(239,1460,l),
(239,0,l),
(394,0,l)
);
},
{
closed = 1;
nodes = (
(327,163,l),
(327,0,l),
(881,0,l),
(900,163,l)
);
},
{
closed = 1;
nodes = (
(336,817,l),
(336,661,l),
(790,661,l),
(790,817,l)
);
},
{
closed = 1;
nodes = (
(881,1460,l),
(327,1460,l),
(327,1297,l),
(900,1297,l)
);
},
{
closed = 1;
nodes = (
(673,-66,o),
(627,-149,o),
(627,-244,cs),
(627,-328,o),
(664,-413,o),
(808,-413,cs),
(861,-413,l),
(861,-280,l),
(837,-280,ls),
(778,-280,o),
(759,-248,o),
(759,-203,cs),
(759,-153,o),
(784,-88,o),
(861,0,c),
(763,35,l)
);
}
);
width = 1000;
}
);
},
{
glyphname = Etilde.right;
lastChange = "2024-12-31 03:15:52 +0000";
layers = (
{
layerId = "759CA147-6E0D-4FC4-A3FB-2F1E1C6F2428";
shapes = (
{
closed = 1;
nodes = (
(378,1460,l),
(223,1460,l),
(223,0,l),
(378,0,l)
);
},
{
closed = 1;
nodes = (
(311,163,l),
(311,0,l),
(865,0,l),
(884,163,l)
);
},
{
closed = 1;
nodes = (
(319,817,l),
(319,661,l),
(773,661,l),
(773,817,l)
);
},
{
closed = 1;
nodes = (
(865,1460,l),
(311,1460,l),
(311,1297,l),
(884,1297,l)
);
},
{
closed = 1;
nodes = (
(314,1897,o),
(255,1816,o),
(240,1672,c),
(343,1642,l),
(354,1723,o),
(384,1769,o),
(424,1769,cs),
(496,1769,o),
(529,1628,o),
(640,1628,cs),
(727,1628,o),
(786,1709,o),
(801,1852,c),
(698,1883,l),
(687,1801,o),
(658,1756,o),
(617,1756,cs),
(545,1756,o),
(511,1897,o),
(400,1897,cs)
);
}
);
width = 1000;
}
);
},
{
glyphname = F.right;
lastChange = "2024-12-31 03:15:52 +0000";
layers = (
{
layerId = "759CA147-6E0D-4FC4-A3FB-2F1E1C6F2428";
shapes = (
{
closed = 1;
nodes = (
(419,1460,l),
(263,1460,l),
(263,0,l),
(419,0,l)
);
},
{
closed = 1;
nodes = (
(360,776,l),
(360,624,l),
(788,624,l),
(805,776,l)
);
},
{
closed = 1;
nodes = (
(887,1460,l),
(352,1460,l),
(352,1302,l),
(904,1302,l)
);
}
);
width = 1000;
}
);
},
{
glyphname = I.right;
lastChange = "2024-12-31 03:15:52 +0000";
layers = (
{
layerId = "759CA147-6E0D-4FC4-A3FB-2F1E1C6F2428";
shapes = (
{
closed = 1;
nodes = (
(636,1460,l),
(481,1460,l),
(481,0,l),
(636,0,l)
);
},
{
closed = 1;
nodes = (
(243,1297,l),
(882,1297,l),
(867,1460,l),
(257,1460,l)
);
},
{
closed = 1;
nodes = (
(867,0,l),
(882,163,l),
(243,163,l),
(257,0,l)
);
}
);
width = 1000;
}
);
},
{
glyphname = Iacute.right;
lastChange = "2024-12-31 03:15:52 +0000";
layers = (
{
layerId = "759CA147-6E0D-4FC4-A3FB-2F1E1C6F2428";
shapes = (
{
closed = 1;
nodes = (
(636,1460,l),
(481,1460,l),
(481,0,l),
(636,0,l)
);
},
{
closed = 1;
nodes = (
(243,1297,l),
(882,1297,l),
(867,1460,l),
(257,1460,l)
);
},
{
closed = 1;
nodes = (
(867,0,l),
(882,163,l),
(243,163,l),
(257,0,l)
);
},
{
closed = 1;
nodes = (
(638,1873,l),
(795,1873,l),
(616,1639,l),
(491,1639,l)
);
}
);
width = 1000;
}
);
},
{
glyphname = Ibreve.right;
lastChange = "2024-12-31 03:15:52 +0000";
layers = (
{
layerId = "759CA147-6E0D-4FC4-A3FB-2F1E1C6F2428";
shapes = (
{
closed = 1;
nodes = (
(636,1460,l),
(481,1460,l),
(481,0,l),
(636,0,l)
);
},
{
closed = 1;
nodes = (
(243,1297,l),
(882,1297,l),
(867,1460,l),
(257,1460,l)
);
},
{
closed = 1;
nodes = (
(867,0,l),
(882,163,l),
(243,163,l),
(257,0,l)
);
},
{
closed = 1;
nodes = (
(335,1739,o),
(406,1629,o),
(557,1629,cs),
(708,1629,o),
(779,1739,o),
(769,1875,c),
(674,1875,l),
(674,1799,o),
(640,1730,o),
(557,1730,cs),
(474,1730,o),
(440,1799,o),
(440,1875,c),
(345,1875,l)
);
}
);
width = 1000;
}
);
},
{
glyphname = Icircumflex.right;
lastChange = "2024-12-31 03:15:52 +0000";
layers = (
{
layerId = "759CA147-6E0D-4FC4-A3FB-2F1E1C6F2428";
shapes = (
{
closed = 1;
nodes = (
(636,1460,l),
(481,1460,l),
(481,0,l),
(636,0,l)
);
},
{
closed = 1;
nodes = (
(243,1297,l),
(882,1297,l),
(867,1460,l),
(257,1460,l)
);
},
{
closed = 1;
nodes = (
(867,0,l),
(882,163,l),
(243,163,l),
(257,0,l)
);
},
{
closed = 1;
nodes = (
(440,1640,l),
(577,1834,l),
(539,1834,l),
(675,1640,l),
(811,1640,l),
(634,1875,l),
(481,1875,l),
(303,1640,l)
);
}
);
width = 1000;
}
);
},
{
glyphname = Idieresis.right;
lastChange = "2024-12-31 03:15:52 +0000";
layers = (
{
layerId = "759CA147-6E0D-4FC4-A3FB-2F1E1C6F2428";
shapes = (
{
closed = 1;
nodes = (
(640,1460,l),
(484,1460,l),
(484,0,l),
(640,0,l)
);
},
{
closed = 1;
nodes = (
(246,1297,l),
(885,1297,l),
(870,1460,l),
(260,1460,l)
);
},
{
closed = 1;
nodes = (
(870,0,l),
(885,163,l),
(246,163,l),
(260,0,l)
);
},
{
closed = 1;
nodes = (
(438,1643,o),
(479,1687,o),
(479,1759,cs),
(479,1831,o),
(438,1875,o),
(381,1875,cs),
(323,1875,o),
(282,1831,o),
(282,1759,cs),
(282,1687,o),
(323,1643,o),
(381,1643,cs)
);
},
{
closed = 1;
nodes = (
(800,1643,o),
(840,1687,o),
(840,1759,cs),
(840,1831,o),
(800,1875,o),
(742,1875,cs),
(683,1875,o),
(644,1831,o),
(644,1759,cs),
(644,1687,o),
(683,1643,o),
(742,1643,cs)
);
}
);
width = 1000;
}
);
},
{
glyphname = Idotaccent.right;
lastChange = "2024-12-31 03:15:52 +0000";
layers = (
{
layerId = "759CA147-6E0D-4FC4-A3FB-2F1E1C6F2428";
shapes = (
{
closed = 1;
nodes = (
(636,1460,l),
(481,1460,l),
(481,0,l),
(636,0,l)
);
},
{
closed = 1;
nodes = (
(243,1297,l),
(882,1297,l),
(867,1460,l),
(257,1460,l)
);
},
{
closed = 1;
nodes = (
(867,0,l),
(882,163,l),
(243,163,l),
(257,0,l)
);
},
{
closed = 1;
nodes = (
(615,1643,o),
(657,1687,o),
(657,1759,cs),
(657,1832,o),
(615,1875,o),
(556,1875,cs),
(496,1875,o),
(455,1832,o),
(455,1759,cs),
(455,1687,o),
(496,1643,o),
(556,1643,cs)
);
}
);
width = 1000;
}
);
},
{
glyphname = Idotbelow.right;
lastChange = "2024-12-31 03:15:52 +0000";
layers = (
{
layerId = "759CA147-6E0D-4FC4-A3FB-2F1E1C6F2428";
shapes = (
{
closed = 1;
nodes = (
(636,1460,l),
(481,1460,l),
(481,0,l),
(636,0,l)
);
},
{
closed = 1;
nodes = (
(243,1297,l),
(882,1297,l),
(867,1460,l),
(257,1460,l)
);
},
{
closed = 1;
nodes = (
(867,0,l),
(882,163,l),
(243,163,l),
(257,0,l)
);
},
{
closed = 1;
nodes = (
(623,-519,o),
(669,-470,o),
(669,-390,cs),
(669,-310,o),
(623,-262,o),
(557,-262,cs),
(491,-262,o),
(445,-310,o),
(445,-390,cs),
(445,-470,o),
(491,-519,o),
(557,-519,cs)
);
}
);
width = 1000;
}
);
},
{
glyphname = Igrave.right;
lastChange = "2024-12-31 03:15:52 +0000";
layers = (
{
layerId = "759CA147-6E0D-4FC4-A3FB-2F1E1C6F2428";
shapes = (
{
closed = 1;
nodes = (
(636,1460,l),
(481,1460,l),
(481,0,l),
(636,0,l)
);
},
{
closed = 1;
nodes = (
(243,1297,l),
(882,1297,l),
(867,1460,l),
(257,1460,l)
);
},
{
closed = 1;
nodes = (
(867,0,l),
(882,163,l),
(243,163,l),
(257,0,l)
);
},
{
closed = 1;
nodes = (
(477,1873,l),
(319,1873,l),
(498,1639,l),
(624,1639,l)
);
}
);
width = 1000;
}
);
},
{
glyphname = Imacron.right;
lastChange = "2024-12-31 03:15:52 +0000";
layers = (
{
layerId = "759CA147-6E0D-4FC4-A3FB-2F1E1C6F2428";
shapes = (
{
closed = 1;
nodes = (
(636,1460,l),
(481,1460,l),
(481,0,l),
(636,0,l)
);
},
{
closed = 1;
nodes = (
(243,1297,l),
(882,1297,l),
(867,1460,l),
(257,1460,l)
);
},
{
closed = 1;
nodes = (
(867,0,l),
(882,163,l),
(243,163,l),
(257,0,l)
);
},
{
closed = 1;
nodes = (
(346,1849,l),
(346,1718,l),
(769,1718,l),
(769,1849,l)
);
}
);
width = 1000;
}
);
},
{
glyphname = Iogonek.right;
lastChange = "2024-12-31 03:15:52 +0000";
layers = (
{
layerId = "759CA147-6E0D-4FC4-A3FB-2F1E1C6F2428";
shapes = (
{
closed = 1;
nodes = (
(636,1460,l),
(481,1460,l),
(481,0,l),
(636,0,l)
);
},
{
closed = 1;
nodes = (
(243,1297,l),
(882,1297,l),
(867,1460,l),
(257,1460,l)
);
},
{
closed = 1;
nodes = (
(867,0,l),
(882,163,l),
(243,163,l),
(257,0,l)
);
},
{
closed = 1;
nodes = (
(461,-65,o),
(417,-149,o),
(417,-243,cs),
(417,-328,o),
(455,-412,o),
(595,-412,cs),
(644,-412,l),
(644,-280,l),
(620,-280,ls),
(567,-280,o),
(548,-246,o),
(548,-202,cs),
(548,-153,o),
(572,-88,o),
(644,0,c),
(545,35,l)
);
}
);
width = 1000;
}
);
},
{
glyphname = Itilde.right;
lastChange = "2024-12-31 03:15:52 +0000";
layers = (
{
layerId = "759CA147-6E0D-4FC4-A3FB-2F1E1C6F2428";
shapes = (
{
closed = 1;
nodes = (
(640,1460,l),
(486,1460,l),
(486,0,l),
(640,0,l)
);
},
{
closed = 1;
nodes = (
(248,1297,l),
(886,1297,l),
(871,1460,l),
(262,1460,l)
);
},
{
closed = 1;
nodes = (
(871,0,l),
(886,163,l),
(248,163,l),
(262,0,l)
);
},
{
closed = 1;
nodes = (
(366,1897,o),
(310,1816,o),
(296,1672,c),
(397,1642,l),
(407,1722,o),
(435,1768,o),
(473,1768,cs),
(540,1768,o),
(571,1628,o),
(676,1628,cs),
(757,1628,o),
(815,1709,o),
(827,1852,c),
(727,1883,l),
(716,1802,o),
(689,1757,o),
(651,1757,cs),
(585,1757,o),
(552,1897,o),
(448,1897,cs)
);
}
);
width = 1000;
}
);
},
{
glyphname = L.right;
lastChange = "2024-12-31 03:15:52 +0000";
layers = (
{
layerId = "759CA147-6E0D-4FC4-A3FB-2F1E1C6F2428";
shapes = (
{
closed = 1;
nodes = (
(416,1460,l),
(260,1460,l),
(260,0,l),
(416,0,l)
);
},
{
closed = 1;
nodes = (
(349,163,l),
(349,0,l),
(882,0,l),
(910,164,l)
);
}
);
width = 1000;
}
);
},
{
glyphname = Lacute.right;
lastChange = "2024-12-31 03:15:52 +0000";
layers = (
{
layerId = "759CA147-6E0D-4FC4-A3FB-2F1E1C6F2428";
shapes = (
{
closed = 1;
nodes = (
(416,1460,l),
(260,1460,l),
(260,0,l),
(416,0,l)
);
},
{
closed = 1;
nodes = (
(349,163,l),
(349,0,l),
(882,0,l),
(910,164,l)
);
},
{
closed = 1;
nodes = (
(414,1873,l),
(572,1873,l),
(392,1639,l),
(267,1639,l)
);
}
);
width = 1000;
}
);
},
{
glyphname = Lcaron.right;
lastChange = "2024-12-31 03:15:52 +0000";
layers = (
{
layerId = "759CA147-6E0D-4FC4-A3FB-2F1E1C6F2428";
shapes = (
{
closed = 1;
nodes = (
(416,1460,l),
(260,1460,l),
(260,0,l),
(416,0,l)
);
},
{
closed = 1;
nodes = (
(349,163,l),
(349,0,l),
(882,0,l),
(910,164,l)
);
},
{
closed = 1;
nodes = (
(636,1222,l),
(669,1578,l),
(535,1578,l),
(521,1222,l)
);
}
);
width = 1000;
}
);
},
{
glyphname = Lcommaaccent.right;
lastChange = "2024-12-31 03:15:52 +0000";
layers = (
{
layerId = "759CA147-6E0D-4FC4-A3FB-2F1E1C6F2428";
shapes = (
{
closed = 1;
nodes = (
(416,1460,l),
(260,1460,l),
(260,0,l),
(416,0,l)
);
},
{
closed = 1;
nodes = (
(349,163,l),
(349,0,l),
(882,0,l),
(910,164,l)
);
},
{
closed = 1;
nodes = (
(546,-516,o),
(566,-511,o),
(585,-499,c),
(557,-469,l),
(544,-566,o),
(477,-623,o),
(402,-679,c),
(456,-760,l),
(556,-697,o),
(651,-584,o),
(651,-432,cs),
(651,-313,o),
(594,-258,o),
(525,-258,cs),
(461,-258,o),
(412,-305,o),
(412,-387,cs),
(412,-467,o),
(460,-516,o),
(527,-516,cs)
);
}
);
width = 1000;
}
);
},
{
glyphname = Lslash.right;
lastChange = "2024-12-31 03:15:52 +0000";
layers = (
{
layerId = "759CA147-6E0D-4FC4-A3FB-2F1E1C6F2428";
shapes = (
{
closed = 1;
nodes = (
(115,744,l),
(115,574,l),
(649,912,l),
(649,1082,l)
);
},
{
closed = 1;
nodes = (
(416,1460,l),
(260,1460,l),
(260,0,l),
(416,0,l)
);
},
{
closed = 1;
nodes = (
(349,163,l),
(349,0,l),
(882,0,l),
(910,164,l)
);
}
);
width = 1000;
}
);
},
{
glyphname = M.right;
lastChange = "2024-12-31 03:15:52 +0000";
layers = (
{
layerId = "759CA147-6E0D-4FC4-A3FB-2F1E1C6F2428";
shapes = (
{
closed = 1;
nodes = (
(90,0,l),
(227,0,l),
(269,1165,l),
(280,1165,l),
(515,390,l),
(578,390,l),
(807,1165,l),
(819,1165,l),
(869,0,l),
(1007,0,l),
(940,1460,l),
(792,1460,l),
(556,691,l),
(547,691,l),
(314,1460,l),
(156,1460,l)
);
}
);
width = 1000;
}
);
},
{
glyphname = S.right;
lastChange = "2024-12-31 03:15:52 +0000";
layers = (
{
layerId = "759CA147-6E0D-4FC4-A3FB-2F1E1C6F2428";
shapes = (
{
closed = 1;
nodes = (
(845,1455,l),
(773,1476,o),
(704,1486,o),
(641,1486,cs),
(422,1486,o),
(211,1390,o),
(211,1088,cs),
(211,885,o),
(311,780,o),
(478,662,cs),
(660,535,o),
(731,490,o),
(731,342,cs),
(731,271,o),
(712,227,o),
(691,202,cs),
(665,172,o),
(619,145,o),
(521,145,cs),
(405,145,o),
(280,182,o),
(188,230,c),
(190,52,l),
(265,15,o),
(356,-20,o),
(466,-20,cs),
(722,-20,o),
(883,147,o),
(883,405,cs),
(878,640,o),
(750,711,o),
(576,832,cs),
(440,927,o),
(346,1010,o),
(346,1138,cs),
(346,1202,o),
(361,1231,o),
(386,1257,cs),
(413,1287,o),
(473,1313,o),
(596,1313,cs),
(677,1313,o),
(761,1302,o),
(853,1276,c)
);
}
);
width = 1000;
}
);
},
{
glyphname = Sacute.right;
lastChange = "2024-12-31 03:15:52 +0000";
layers = (
{
layerId = "759CA147-6E0D-4FC4-A3FB-2F1E1C6F2428";
shapes = (
{
closed = 1;
nodes = (
(845,1455,l),
(773,1476,o),
(704,1486,o),
(641,1486,cs),
(422,1486,o),
(211,1390,o),
(211,1088,cs),
(211,885,o),
(311,780,o),
(478,662,cs),
(660,535,o),
(731,490,o),
(731,342,cs),
(731,271,o),
(712,227,o),
(691,202,cs),
(665,172,o),
(619,145,o),
(521,145,cs),
(405,145,o),
(280,182,o),
(188,230,c),
(190,52,l),
(265,15,o),
(356,-20,o),
(466,-20,cs),
(722,-20,o),
(883,147,o),
(883,405,cs),
(878,640,o),
(750,711,o),
(576,832,cs),
(440,927,o),
(346,1010,o),
(346,1138,cs),
(346,1202,o),
(361,1231,o),
(386,1257,cs),
(413,1287,o),
(473,1313,o),
(596,1313,cs),
(677,1313,o),
(761,1302,o),
(853,1276,c)
);
},
{
closed = 1;
nodes = (
(624,1877,l),
(787,1877,l),
(596,1640,l),
(467,1640,l)
);
}
);
width = 1000;
}
);
},
{
glyphname = Scaron.right;
lastChange = "2024-12-31 03:15:52 +0000";
layers = (
{
layerId = "759CA147-6E0D-4FC4-A3FB-2F1E1C6F2428";
shapes = (
{
closed = 1;
nodes = (
(845,1455,l),
(773,1476,o),
(704,1486,o),
(641,1486,cs),
(422,1486,o),
(211,1390,o),
(211,1088,cs),
(211,885,o),
(311,780,o),
(478,662,cs),
(660,535,o),
(731,490,o),
(731,342,cs),
(731,271,o),
(712,227,o),
(691,202,cs),
(665,172,o),
(619,145,o),
(521,145,cs),
(405,145,o),
(280,182,o),
(188,230,c),
(190,52,l),
(265,15,o),
(356,-20,o),
(466,-20,cs),
(722,-20,o),
(883,147,o),
(883,405,cs),
(878,640,o),
(750,711,o),
(576,832,cs),
(440,927,o),
(346,1010,o),
(346,1138,cs),
(346,1202,o),
(361,1231,o),
(386,1257,cs),
(413,1287,o),
(473,1313,o),
(596,1313,cs),
(677,1313,o),
(761,1302,o),
(853,1276,c)
);
},
{
closed = 1;
nodes = (
(407,1878,l),
(556,1680,l),
(515,1680,l),
(665,1878,l),
(806,1878,l),
(615,1640,l),
(456,1640,l),
(265,1878,l)
);
}
);
width = 1000;
}
);
},
{
glyphname = Scedilla.right;
lastChange = "2024-12-31 03:15:52 +0000";
layers = (
{
layerId = "759CA147-6E0D-4FC4-A3FB-2F1E1C6F2428";
shapes = (
{
closed = 1;
nodes = (
(845,1455,l),
(773,1476,o),
(704,1486,o),
(641,1486,cs),
(422,1486,o),
(211,1390,o),
(211,1088,cs),
(211,885,o),
(311,780,o),
(478,662,cs),
(660,535,o),
(731,490,o),
(731,342,cs),
(731,271,o),
(712,227,o),
(691,202,cs),
(665,172,o),
(619,145,o),
(521,145,cs),
(405,145,o),
(280,182,o),
(188,230,c),
(190,52,l),
(265,15,o),
(356,-20,o),
(466,-20,cs),
(722,-20,o),
(883,147,o),
(883,405,cs),
(878,640,o),
(750,711,o),
(576,832,cs),
(440,927,o),
(346,1010,o),
(346,1138,cs),
(346,1202,o),
(361,1231,o),
(386,1257,cs),
(413,1287,o),
(473,1313,o),
(596,1313,cs),
(677,1313,o),
(761,1302,o),
(853,1276,c)
);
},
{
closed = 1;
nodes = (
(586,-216,l),
(583,48,l),
(486,48,l),
(486,-256,l),
(546,-265,o),
(586,-293,o),
(586,-368,cs),
(586,-430,o),
(561,-466,o),
(473,-466,cs),
(444,-466,l),
(444,-580,l),
(497,-580,ls),
(661,-580,o),
(704,-505,o),
(704,-380,cs),
(704,-244,o),
(652,-187,o),
(560,-165,c)
);
}
);
width = 1000;
}
);
},
{
glyphname = Scircumflex.right;
lastChange = "2024-12-31 03:15:52 +0000";
layers = (
{
layerId = "759CA147-6E0D-4FC4-A3FB-2F1E1C6F2428";
shapes = (
{
closed = 1;
nodes = (
(845,1455,l),
(773,1476,o),
(704,1486,o),
(641,1486,cs),
(422,1486,o),
(211,1390,o),
(211,1088,cs),
(211,885,o),
(311,780,o),
(478,662,cs),
(660,535,o),
(731,490,o),
(731,342,cs),
(731,271,o),
(712,227,o),
(691,202,cs),
(665,172,o),
(619,145,o),
(521,145,cs),
(405,145,o),
(280,182,o),
(188,230,c),
(190,52,l),
(265,15,o),
(356,-20,o),
(466,-20,cs),
(722,-20,o),
(883,147,o),
(883,405,cs),
(878,640,o),
(750,711,o),
(576,832,cs),
(440,927,o),
(346,1010,o),
(346,1138,cs),
(346,1202,o),
(361,1231,o),
(386,1257,cs),
(413,1287,o),
(473,1313,o),
(596,1313,cs),
(677,1313,o),
(761,1302,o),
(853,1276,c)
);
},
{
closed = 1;
nodes = (
(407,1640,l),
(556,1839,l),
(515,1839,l),
(665,1640,l),
(806,1640,l),
(615,1878,l),
(456,1878,l),
(265,1640,l)
);
}
);
width = 1000;
}
);
},
{
glyphname = Scommaaccent.right;
lastChange = "2024-12-31 03:15:52 +0000";
layers = (
{
layerId = "759CA147-6E0D-4FC4-A3FB-2F1E1C6F2428";
shapes = (
{
closed = 1;
nodes = (
(845,1455,l),
(773,1476,o),
(704,1486,o),
(641,1486,cs),
(422,1486,o),
(211,1390,o),
(211,1088,cs),
(211,885,o),
(311,780,o),
(478,662,cs),
(660,535,o),
(731,490,o),
(731,342,cs),
(731,271,o),
(712,227,o),
(691,202,cs),
(665,172,o),
(619,145,o),
(521,145,cs),
(405,145,o),
(280,182,o),
(188,230,c),
(190,52,l),
(265,15,o),
(356,-20,o),
(466,-20,cs),
(722,-20,o),
(883,147,o),
(883,405,cs),
(878,640,o),
(750,711,o),
(576,832,cs),
(440,927,o),
(346,1010,o),
(346,1138,cs),
(346,1202,o),
(361,1231,o),
(386,1257,cs),
(413,1287,o),
(473,1313,o),
(596,1313,cs),
(677,1313,o),
(761,1302,o),
(853,1276,c)
);
},
{
closed = 1;
nodes = (
(554,-516,o),
(574,-511,o),
(593,-499,c),
(565,-469,l),
(552,-566,o),
(486,-623,o),
(411,-679,c),
(464,-760,l),
(564,-697,o),
(659,-584,o),
(659,-432,cs),
(659,-313,o),
(602,-258,o),
(533,-258,cs),
(469,-258,o),
(420,-305,o),
(420,-387,cs),
(420,-467,o),
(468,-516,o),
(535,-516,cs)
);
}
);
width = 1000;
}
);
},
{
glyphname = T.right;
lastChange = "2024-12-31 03:15:52 +0000";
layers = (
{
layerId = "759CA147-6E0D-4FC4-A3FB-2F1E1C6F2428";
shapes = (
{
closed = 1;
nodes = (
(661,1460,l),
(504,1460,l),
(504,0,l),
(661,0,l)
);
},
{
closed = 1;
nodes = (
(1087,1296,l),
(1066,1460,l),
(100,1460,l),
(79,1296,l)
);
}
);
width = 1000;
}
);
},
{
glyphname = Tbar.right;
lastChange = "2024-12-31 03:15:52 +0000";
layers = (
{
layerId = "759CA147-6E0D-4FC4-A3FB-2F1E1C6F2428";
shapes = (
{
closed = 1;
nodes = (
(936,667,l),
(936,830,l),
(231,830,l),
(231,667,l)
);
},
{
closed = 1;
nodes = (
(661,1460,l),
(504,1460,l),
(504,0,l),
(661,0,l)
);
},
{
closed = 1;
nodes = (
(1087,1296,l),
(1066,1460,l),
(100,1460,l),
(79,1296,l)
);
}
);
width = 1000;
}
);
},
{
glyphname = Tcaron.right;
lastChange = "2024-12-31 03:15:52 +0000";
layers = (
{
layerId = "759CA147-6E0D-4FC4-A3FB-2F1E1C6F2428";
shapes = (
{
closed = 1;
nodes = (
(661,1460,l),
(504,1460,l),
(504,0,l),
(661,0,l)
);
},
{
closed = 1;
nodes = (
(1087,1296,l),
(1066,1460,l),
(100,1460,l),
(79,1296,l)
);
},
{
closed = 1;
nodes = (
(414,1889,l),
(608,1671,l),
(558,1671,l),
(752,1889,l),
(912,1889,l),
(675,1640,l),
(491,1640,l),
(254,1889,l)
);
}
);
width = 1000;
}
);
},
{
glyphname = Tcedilla.right;
lastChange = "2024-12-31 03:15:52 +0000";
layers = (
{
layerId = "759CA147-6E0D-4FC4-A3FB-2F1E1C6F2428";
shapes = (
{
closed = 1;
nodes = (
(661,1460,l),
(504,1460,l),
(504,0,l),
(661,0,l)
);
},
{
closed = 1;
nodes = (
(1087,1296,l),
(1066,1460,l),
(100,1460,l),
(79,1296,l)
);
},
{
closed = 1;
nodes = (
(634,-230,l),
(631,48,l),
(534,48,l),
(534,-271,l),
(647,-281,o),
(707,-312,o),
(707,-387,cs),
(707,-451,o),
(660,-490,o),
(526,-490,cs),
(461,-490,l),
(461,-613,l),
(538,-613,ls),
(761,-613,o),
(832,-536,o),
(832,-401,cs),
(832,-256,o),
(752,-198,o),
(613,-176,c)
);
}
);
width = 1000;
}
);
},
{
glyphname = Tcommaaccent.right;
lastChange = "2024-12-31 03:15:52 +0000";
layers = (
{
layerId = "759CA147-6E0D-4FC4-A3FB-2F1E1C6F2428";
shapes = (
{
closed = 1;
nodes = (
(661,1460,l),
(504,1460,l),
(504,0,l),
(661,0,l)
);
},
{
closed = 1;
nodes = (
(1087,1296,l),
(1066,1460,l),
(100,1460,l),
(79,1296,l)
);
},
{
closed = 1;
nodes = (
(603,-516,o),
(623,-511,o),
(642,-499,c),
(615,-469,l),
(601,-566,o),
(535,-623,o),
(459,-679,c),
(513,-760,l),
(613,-697,o),
(707,-584,o),
(707,-432,cs),
(707,-313,o),
(652,-258,o),
(582,-258,cs),
(519,-258,o),
(469,-305,o),
(469,-387,cs),
(469,-467,o),
(516,-516,o),
(584,-516,cs)
);
}
);
width = 1000;
}
);
},
{
glyphname = W.right;
lastChange = "2024-12-31 03:15:52 +0000";
layers = (
{
layerId = "759CA147-6E0D-4FC4-A3FB-2F1E1C6F2428";
shapes = (
{
closed = 1;
nodes = (
(829,0,l),
(955,487,o),
(1028,990,o),
(1057,1460,c),
(913,1460,l),
(891,1108,o),
(835,704,o),
(771,370,c),
(756,370,l),
(692,661,o),
(644,968,o),
(609,1216,c),
(491,1216,l),
(456,979,o),
(403,659,o),
(336,370,c),
(322,370,l),
(258,707,o),
(203,1108,o),
(181,1460,c),
(27,1460,l),
(56,990,o),
(130,487,o),
(255,0,c),
(360,0,l),
(440,325,o),
(500,661,o),
(536,909,c),
(550,909,l),
(583,663,o),
(640,325,o),
(718,0,c)
);
}
);
width = 1000;
}
);
},
{
glyphname = Wacute.right;
lastChange = "2024-12-31 03:15:52 +0000";
layers = (
{
layerId = "759CA147-6E0D-4FC4-A3FB-2F1E1C6F2428";
shapes = (
{
closed = 1;
nodes = (
(829,0,l),
(955,487,o),
(1028,990,o),
(1057,1460,c),
(913,1460,l),
(891,1108,o),
(835,704,o),
(771,370,c),
(756,370,l),
(692,661,o),
(644,968,o),
(609,1216,c),
(491,1216,l),
(456,979,o),
(403,659,o),
(336,370,c),
(322,370,l),
(258,707,o),
(203,1108,o),
(181,1460,c),
(27,1460,l),
(56,990,o),
(130,487,o),
(255,0,c),
(360,0,l),
(440,325,o),
(500,661,o),
(536,909,c),
(550,909,l),
(583,663,o),
(640,325,o),
(718,0,c)
);
},
{
closed = 1;
nodes = (
(652,1887,l),
(827,1887,l),
(608,1640,l),
(469,1640,l)
);
}
);
width = 1000;
}
);
},
{
glyphname = Wcircumflex.right;
lastChange = "2024-12-31 03:15:52 +0000";
layers = (
{
layerId = "759CA147-6E0D-4FC4-A3FB-2F1E1C6F2428";
shapes = (
{
closed = 1;
nodes = (
(829,0,l),
(955,487,o),
(1028,990,o),
(1057,1460,c),
(913,1460,l),
(891,1108,o),
(835,704,o),
(771,370,c),
(756,370,l),
(692,661,o),
(644,968,o),
(609,1216,c),
(491,1216,l),
(456,979,o),
(403,659,o),
(336,370,c),
(322,370,l),
(258,707,o),
(203,1108,o),
(181,1460,c),
(27,1460,l),
(56,990,o),
(130,487,o),
(255,0,c),
(360,0,l),
(440,325,o),
(500,661,o),
(536,909,c),
(550,909,l),
(583,663,o),
(640,325,o),
(718,0,c)
);
},
{
closed = 1;
nodes = (
(388,1640,l),
(565,1851,l),
(519,1851,l),
(696,1640,l),
(850,1640,l),
(630,1885,l),
(455,1885,l),
(235,1640,l)
);
}
);
width = 1000;
}
);
},
{
glyphname = Wdieresis.right;
lastChange = "2024-12-31 03:15:52 +0000";
layers = (
{
layerId = "759CA147-6E0D-4FC4-A3FB-2F1E1C6F2428";
shapes = (
{
closed = 1;
nodes = (
(829,0,l),
(955,487,o),
(1028,990,o),
(1057,1460,c),
(913,1460,l),
(891,1108,o),
(835,704,o),
(771,370,c),
(756,370,l),
(692,661,o),
(644,968,o),
(609,1216,c),
(491,1216,l),
(456,979,o),
(403,659,o),
(336,370,c),
(322,370,l),
(258,707,o),
(203,1108,o),
(181,1460,c),
(27,1460,l),
(56,990,o),
(130,487,o),
(255,0,c),
(360,0,l),
(440,325,o),
(500,661,o),
(536,909,c),
(550,909,l),
(583,663,o),
(640,325,o),
(718,0,c)
);
},
{
closed = 1;
nodes = (
(375,1652,o),
(415,1696,o),
(415,1768,cs),
(415,1840,o),
(375,1883,o),
(316,1883,cs),
(257,1883,o),
(216,1840,o),
(216,1768,cs),
(216,1696,o),
(257,1652,o),
(316,1652,cs)
);
},
{
closed = 1;
nodes = (
(827,1652,o),
(869,1696,o),
(869,1768,cs),
(869,1840,o),
(827,1883,o),
(769,1883,cs),
(710,1883,o),
(669,1840,o),
(669,1768,cs),
(669,1696,o),
(710,1652,o),
(769,1652,cs)
);
}
);
width = 1000;
}
);
},
{
glyphname = Wgrave.right;
lastChange = "2024-12-31 03:15:52 +0000";
layers = (
{
layerId = "759CA147-6E0D-4FC4-A3FB-2F1E1C6F2428";
shapes = (
{
closed = 1;
nodes = (
(829,0,l),
(955,487,o),
(1028,990,o),
(1057,1460,c),
(913,1460,l),
(891,1108,o),
(835,704,o),
(771,370,c),
(756,370,l),
(692,661,o),
(644,968,o),
(609,1216,c),
(491,1216,l),
(456,979,o),
(403,659,o),
(336,370,c),
(322,370,l),
(258,707,o),
(203,1108,o),
(181,1460,c),
(27,1460,l),
(56,990,o),
(130,487,o),
(255,0,c),
(360,0,l),
(440,325,o),
(500,661,o),
(536,909,c),
(550,909,l),
(583,663,o),
(640,325,o),
(718,0,c)
);
},
{
closed = 1;
nodes = (
(433,1887,l),
(258,1887,l),
(477,1640,l),
(616,1640,l)
);
}
);
width = 1000;
}
);
},
{
glyphname = a;
lastChange = "2024-12-31 03:15:52 +0000";
layers = (
{
layerId = "759CA147-6E0D-4FC4-A3FB-2F1E1C6F2428";
shapes = (
{
closed = 1;
nodes = (
(848,758,ls),
(848,956,o),
(748,1050,o),
(521,1050,cs),
(393,1050,o),
(265,1017,o),
(165,977,c),
(138,792,l),
(275,855,o),
(404,885,o),
(521,885,cs),
(619,885,o),
(692,842,o),
(692,718,cs),
(692,0,l),
(848,0,l)
);
},
{
closed = 1;
nodes = (
(707,599,l),
(491,594,o),
(109,551,o),
(109,256,cs),
(109,101,o),
(202,-24,o),
(379,-24,cs),
(456,-24,o),
(568,3,o),
(678,87,c),
(714,87,l),
(705,208,l),
(611,150,o),
(508,120,o),
(436,120,cs),
(327,120,o),
(264,191,o),
(264,289,cs),
(264,349,o),
(285,399,o),
(369,429,cs),
(461,462,o),
(615,463,o),
(709,461,c)
);
}
);
width = 1000;
}
);
unicode = 97;
},
{
glyphname = aacute;
lastChange = "2024-12-31 03:15:52 +0000";
layers = (
{
layerId = "759CA147-6E0D-4FC4-A3FB-2F1E1C6F2428";
shapes = (
{
closed = 1;
nodes = (
(848,758,ls),
(848,956,o),
(748,1050,o),
(521,1050,cs),
(393,1050,o),
(265,1017,o),
(165,977,c),
(138,792,l),
(275,855,o),
(404,885,o),
(521,885,cs),
(619,885,o),
(692,842,o),
(692,718,cs),
(692,0,l),
(848,0,l)
);
},
{
closed = 1;
nodes = (
(707,599,l),
(491,594,o),
(109,551,o),
(109,256,cs),
(109,101,o),
(202,-24,o),
(379,-24,cs),
(456,-24,o),
(568,3,o),
(678,87,c),
(714,87,l),
(705,208,l),
(611,150,o),
(508,120,o),
(436,120,cs),
(327,120,o),
(264,191,o),
(264,289,cs),
(264,349,o),
(285,399,o),
(369,429,cs),
(461,462,o),
(615,463,o),
(709,461,c)
);
},
{
closed = 1;
nodes = (
(598,1612,l),
(766,1612,l),
(563,1274,l),
(429,1274,l)
);
}
);
width = 1000;
}
);
unicode = 225;
},
{
glyphname = abreve;
lastChange = "2024-12-31 03:15:52 +0000";
layers = (
{
layerId = "759CA147-6E0D-4FC4-A3FB-2F1E1C6F2428";
shapes = (
{
closed = 1;
nodes = (
(848,758,ls),
(848,956,o),
(748,1050,o),
(521,1050,cs),
(393,1050,o),
(265,1017,o),
(165,977,c),
(138,792,l),
(275,855,o),
(404,885,o),
(521,885,cs),
(619,885,o),
(692,842,o),
(692,718,cs),
(692,0,l),
(848,0,l)
);
},
{
closed = 1;
nodes = (
(707,599,l),
(491,594,o),
(109,551,o),
(109,256,cs),
(109,101,o),
(202,-24,o),
(379,-24,cs),
(456,-24,o),
(568,3,o),
(678,87,c),
(714,87,l),
(705,208,l),
(611,150,o),
(508,120,o),
(436,120,cs),
(327,120,o),
(264,191,o),
(264,289,cs),
(264,349,o),
(285,399,o),
(369,429,cs),
(461,462,o),
(615,463,o),
(709,461,c)
);
},
{
closed = 1;
nodes = (
(252,1389,o),
(335,1266,o),
(500,1266,cs),
(665,1266,o),
(748,1389,o),
(740,1612,c),
(639,1612,l),
(639,1476,o),
(599,1396,o),
(500,1396,cs),
(401,1396,o),
(361,1476,o),
(361,1612,c),
(260,1612,l)
);
}
);
width = 1000;
}
);
unicode = 259;
},
{
glyphname = acircumflex;
lastChange = "2024-12-31 03:15:52 +0000";
layers = (
{
layerId = "759CA147-6E0D-4FC4-A3FB-2F1E1C6F2428";
shapes = (
{
closed = 1;
nodes = (
(848,758,ls),
(848,956,o),
(748,1050,o),
(521,1050,cs),
(393,1050,o),
(265,1017,o),
(165,977,c),
(138,792,l),
(275,855,o),
(404,885,o),
(521,885,cs),
(619,885,o),
(692,842,o),
(692,718,cs),
(692,0,l),
(848,0,l)
);
},
{
closed = 1;
nodes = (
(707,599,l),
(491,594,o),
(109,551,o),
(109,256,cs),
(109,101,o),
(202,-24,o),
(379,-24,cs),
(456,-24,o),
(568,3,o),
(678,87,c),
(714,87,l),
(705,208,l),
(611,150,o),
(508,120,o),
(436,120,cs),
(327,120,o),
(264,191,o),
(264,289,cs),
(264,349,o),
(285,399,o),
(369,429,cs),
(461,462,o),
(615,463,o),
(709,461,c)
);
},
{
closed = 1;
nodes = (
(352,1274,l),
(524,1572,l),
(476,1572,l),
(648,1274,l),
(786,1274,l),
(577,1612,l),
(423,1612,l),
(214,1274,l)
);
}
);
width = 1000;
}
);
unicode = 226;
},
{
glyphname = adieresis;
lastChange = "2024-12-31 03:15:52 +0000";
layers = (
{
layerId = "759CA147-6E0D-4FC4-A3FB-2F1E1C6F2428";
shapes = (
{
closed = 1;
nodes = (
(848,758,ls),
(848,956,o),
(748,1050,o),
(521,1050,cs),
(393,1050,o),
(265,1017,o),
(165,977,c),
(138,792,l),
(275,855,o),
(404,885,o),
(521,885,cs),
(619,885,o),
(692,842,o),
(692,718,cs),
(692,0,l),
(848,0,l)
);
},
{
closed = 1;
nodes = (
(707,599,l),
(491,594,o),
(109,551,o),
(109,256,cs),
(109,101,o),
(202,-24,o),
(379,-24,cs),
(456,-24,o),
(568,3,o),
(678,87,c),
(714,87,l),
(705,208,l),
(611,150,o),
(508,120,o),
(436,120,cs),
(327,120,o),
(264,191,o),
(264,289,cs),
(264,349,o),
(285,399,o),
(369,429,cs),
(461,462,o),
(615,463,o),
(709,461,c)
);
},
{
closed = 1;
nodes = (
(354,1284,o),
(397,1333,o),
(397,1413,cs),
(397,1493,o),
(354,1541,o),
(292,1541,cs),
(231,1541,o),
(188,1493,o),
(188,1413,cs),
(188,1333,o),
(231,1284,o),
(292,1284,cs)
);
},
{
closed = 1;
nodes = (
(769,1284,o),
(812,1333,o),
(812,1413,cs),
(812,1493,o),
(769,1541,o),
(708,1541,cs),
(646,1541,o),
(603,1493,o),
(603,1413,cs),
(603,1333,o),
(646,1284,o),
(708,1284,cs)
);
}
);
width = 1000;
}
);
unicode = 228;
},
{
glyphname = agrave;
lastChange = "2024-12-31 03:15:52 +0000";
layers = (
{
layerId = "759CA147-6E0D-4FC4-A3FB-2F1E1C6F2428";
shapes = (
{
closed = 1;
nodes = (
(848,758,ls),
(848,956,o),
(748,1050,o),
(521,1050,cs),
(393,1050,o),
(265,1017,o),
(165,977,c),
(138,792,l),
(275,855,o),
(404,885,o),
(521,885,cs),
(619,885,o),
(692,842,o),
(692,718,cs),
(692,0,l),
(848,0,l)
);
},
{
closed = 1;
nodes = (
(707,599,l),
(491,594,o),
(109,551,o),
(109,256,cs),
(109,101,o),
(202,-24,o),
(379,-24,cs),
(456,-24,o),
(568,3,o),
(678,87,c),
(714,87,l),
(705,208,l),
(611,150,o),
(508,120,o),
(436,120,cs),
(327,120,o),
(264,191,o),
(264,289,cs),
(264,349,o),
(285,399,o),
(369,429,cs),
(461,462,o),
(615,463,o),
(709,461,c)
);
},
{
closed = 1;
nodes = (
(402,1612,l),
(234,1612,l),
(437,1274,l),
(571,1274,l)
);
}
);
width = 1000;
}
);
unicode = 224;
},
{
glyphname = amacron;
lastChange = "2024-12-31 03:15:52 +0000";
layers = (
{
layerId = "759CA147-6E0D-4FC4-A3FB-2F1E1C6F2428";
shapes = (
{
closed = 1;
nodes = (
(848,758,ls),
(848,956,o),
(748,1050,o),
(521,1050,cs),
(393,1050,o),
(265,1017,o),
(165,977,c),
(138,792,l),
(275,855,o),
(404,885,o),
(521,885,cs),
(619,885,o),
(692,842,o),
(692,718,cs),
(692,0,l),
(848,0,l)
);
},
{
closed = 1;
nodes = (
(707,599,l),
(491,594,o),
(109,551,o),
(109,256,cs),
(109,101,o),
(202,-24,o),
(379,-24,cs),
(456,-24,o),
(568,3,o),
(678,87,c),
(714,87,l),
(705,208,l),
(611,150,o),
(508,120,o),
(436,120,cs),
(327,120,o),
(264,191,o),
(264,289,cs),
(264,349,o),
(285,399,o),
(369,429,cs),
(461,462,o),
(615,463,o),
(709,461,c)
);
},
{
closed = 1;
nodes = (
(241,1457,l),
(241,1326,l),
(759,1326,l),
(759,1457,l)
);
}
);
width = 1000;
}
);
unicode = 257;
},
{
glyphname = aogonek;
lastChange = "2024-12-31 03:15:52 +0000";
layers = (
{
layerId = "759CA147-6E0D-4FC4-A3FB-2F1E1C6F2428";
shapes = (
{
closed = 1;
nodes = (
(848,758,ls),
(848,956,o),
(748,1050,o),
(521,1050,cs),
(393,1050,o),
(265,1017,o),
(165,977,c),
(138,792,l),
(275,855,o),
(404,885,o),
(521,885,cs),
(619,885,o),
(692,842,o),
(692,718,cs),
(692,0,l),
(848,0,l)
);
},
{
closed = 1;
nodes = (
(707,599,l),
(491,594,o),
(109,551,o),
(109,256,cs),
(109,101,o),
(202,-24,o),
(379,-24,cs),
(456,-24,o),
(568,3,o),
(678,87,c),
(714,87,l),
(705,208,l),
(611,150,o),
(508,120,o),
(436,120,cs),
(327,120,o),
(264,191,o),
(264,289,cs),
(264,349,o),
(285,399,o),
(369,429,cs),
(461,462,o),
(615,463,o),
(709,461,c)
);
},
{
closed = 1;
nodes = (
(651,-67,o),
(601,-150,o),
(601,-247,cs),
(601,-331,o),
(638,-414,o),
(790,-414,cs),
(848,-414,l),
(848,-282,l),
(824,-282,ls),
(757,-282,o),
(735,-252,o),
(735,-206,cs),
(735,-153,o),
(764,-88,o),
(848,0,c),
(753,37,l)
);
}
);
width = 1000;
}
);
unicode = 261;
},
{
glyphname = aring;
lastChange = "2024-12-31 03:15:52 +0000";
layers = (
{
layerId = "759CA147-6E0D-4FC4-A3FB-2F1E1C6F2428";
shapes = (
{
closed = 1;
nodes = (
(848,758,ls),
(848,956,o),
(748,1050,o),
(521,1050,cs),
(393,1050,o),
(265,1017,o),
(165,977,c),
(138,792,l),
(275,855,o),
(404,885,o),
(521,885,cs),
(619,885,o),
(692,842,o),
(692,718,cs),
(692,0,l),
(848,0,l)
);
},
{
closed = 1;
nodes = (
(707,599,l),
(491,594,o),
(109,551,o),
(109,256,cs),
(109,101,o),
(202,-24,o),
(379,-24,cs),
(456,-24,o),
(568,3,o),
(678,87,c),
(714,87,l),
(705,208,l),
(611,150,o),
(508,120,o),
(436,120,cs),
(327,120,o),
(264,191,o),
(264,289,cs),
(264,349,o),
(285,399,o),
(369,429,cs),
(461,462,o),
(615,463,o),
(709,461,c)
);
},
{
closed = 1;
nodes = (
(607,1213,o),
(683,1312,o),
(683,1447,cs),
(683,1581,o),
(607,1679,o),
(500,1679,cs),
(393,1679,o),
(317,1581,o),
(317,1447,cs),
(317,1312,o),
(393,1213,o),
(500,1213,cs)
);
},
{
closed = 1;
nodes = (
(435,1310,o),
(393,1369,o),
(393,1447,cs),
(393,1525,o),
(435,1582,o),
(500,1582,cs),
(565,1582,o),
(606,1525,o),
(606,1447,cs),
(606,1369,o),
(565,1310,o),
(500,1310,cs)
);
}
);
width = 1000;
}
);
unicode = 229;
},
{
glyphname = atilde;
lastChange = "2024-12-31 03:15:52 +0000";
layers = (
{
layerId = "759CA147-6E0D-4FC4-A3FB-2F1E1C6F2428";
shapes = (
{
closed = 1;
nodes = (
(848,758,ls),
(848,956,o),
(748,1050,o),
(521,1050,cs),
(393,1050,o),
(265,1017,o),
(165,977,c),
(138,792,l),
(275,855,o),
(404,885,o),
(521,885,cs),
(619,885,o),
(692,842,o),
(692,718,cs),
(692,0,l),
(848,0,l)
);
},
{
closed = 1;
nodes = (
(707,599,l),
(491,594,o),
(109,551,o),
(109,256,cs),
(109,101,o),
(202,-24,o),
(379,-24,cs),
(456,-24,o),
(568,3,o),
(678,87,c),
(714,87,l),
(705,208,l),
(611,150,o),
(508,120,o),
(436,120,cs),
(327,120,o),
(264,191,o),
(264,289,cs),
(264,349,o),
(285,399,o),
(369,429,cs),
(461,462,o),
(615,463,o),
(709,461,c)
);
},
{
closed = 1;
nodes = (
(269,1599,o),
(206,1494,o),
(190,1308,c),
(294,1268,l),
(307,1376,o),
(336,1448,o),
(384,1448,cs),
(464,1448,o),
(506,1251,o),
(632,1251,cs),
(726,1251,o),
(790,1356,o),
(806,1542,c),
(701,1581,l),
(688,1474,o),
(660,1402,o),
(611,1402,cs),
(531,1402,o),
(489,1599,o),
(362,1599,cs)
);
}
);
width = 1000;
}
);
unicode = 227;
},
{
glyphname = ae;
lastChange = "2024-12-31 03:15:52 +0000";
layers = (
{
layerId = "759CA147-6E0D-4FC4-A3FB-2F1E1C6F2428";
shapes = (
{
closed = 1;
nodes = (
(557,761,ls),
(557,959,o),
(443,1050,o),
(317,1050,cs),
(242,1050,o),
(165,1019,o),
(102,976,c),
(77,795,l),
(162,855,o),
(248,888,o),
(307,888,cs),
(374,888,o),
(448,845,o),
(448,711,cs),
(448,540,l),
(557,540,l)
);
},
{
closed = 1;
nodes = (
(792,-24,o),
(861,7,o),
(911,39,c),
(918,189,l),
(861,158,o),
(805,136,o),
(754,136,cs),
(625,136,o),
(575,319,o),
(575,537,cs),
(575,735,o),
(601,831,o),
(628,870,cs),
(649,899,o),
(679,909,o),
(705,909,cs),
(780,909,o),
(827,823,o),
(827,667,cs),
(827,625,o),
(823,592,o),
(819,564,c),
(856,631,l),
(508,631,l),
(508,515,l),
(948,515,l),
(948,639,ls),
(948,887,o),
(882,1051,o),
(726,1051,cs),
(611,1051,o),
(487,945,o),
(476,676,c),
(476,569,l),
(452,507,l),
(452,164,o),
(549,-24,o),
(722,-24,cs)
);
},
{
closed = 1;
nodes = (
(341,-24,o),
(428,11,o),
(499,103,c),
(546,103,l),
(541,235,l),
(473,161,o),
(385,116,o),
(316,116,cs),
(228,116,o),
(181,190,o),
(181,287,cs),
(181,348,o),
(198,399,o),
(272,429,cs),
(349,462,o),
(447,463,o),
(499,461,c),
(497,599,l),
(342,599,o),
(50,544,o),
(50,252,cs),
(50,94,o),
(132,-24,o),
(268,-24,cs)
);
}
);
width = 1000;
}
);
unicode = 230;
},
{
glyphname = aeacute;
lastChange = "2024-12-31 03:15:52 +0000";
layers = (
{
layerId = "759CA147-6E0D-4FC4-A3FB-2F1E1C6F2428";
shapes = (
{
closed = 1;
nodes = (
(557,761,ls),
(557,959,o),
(443,1050,o),
(317,1050,cs),
(242,1050,o),
(165,1019,o),
(102,976,c),
(77,795,l),
(162,855,o),
(248,888,o),
(307,888,cs),
(374,888,o),
(448,845,o),
(448,711,cs),
(448,540,l),
(557,540,l)
);
},
{
closed = 1;
nodes = (
(792,-24,o),
(861,7,o),
(911,39,c),
(918,189,l),
(861,158,o),
(805,136,o),
(754,136,cs),
(625,136,o),
(575,319,o),
(575,537,cs),
(575,735,o),
(601,831,o),
(628,870,cs),
(649,899,o),
(679,909,o),
(705,909,cs),
(780,909,o),
(827,823,o),
(827,667,cs),
(827,625,o),
(823,592,o),
(819,564,c),
(856,631,l),
(508,631,l),
(508,515,l),
(948,515,l),
(948,639,ls),
(948,887,o),
(882,1051,o),
(726,1051,cs),
(611,1051,o),
(487,945,o),
(476,676,c),
(476,569,l),
(452,507,l),
(452,164,o),
(549,-24,o),
(722,-24,cs)
);
},
{
closed = 1;
nodes = (
(341,-24,o),
(428,11,o),
(499,103,c),
(546,103,l),
(541,235,l),
(473,161,o),
(385,116,o),
(316,116,cs),
(228,116,o),
(181,190,o),
(181,287,cs),
(181,348,o),
(198,399,o),
(272,429,cs),
(349,462,o),
(447,463,o),
(499,461,c),
(497,599,l),
(342,599,o),
(50,544,o),
(50,252,cs),
(50,94,o),
(132,-24,o),
(268,-24,cs)
);
},
{
closed = 1;
nodes = (
(598,1612,l),
(766,1612,l),
(563,1274,l),
(429,1274,l)
);
}
);
width = 1000;
}
);
unicode = 509;
},
{
glyphname = b;
lastChange = "2024-12-31 03:15:52 +0000";
layers = (
{
layerId = "759CA147-6E0D-4FC4-A3FB-2F1E1C6F2428";
shapes = (
{
closed = 1;
nodes = (
(286,1530,l),
(131,1530,l),
(131,0,l),
(182,0,l),
(274,123,l),
(286,153,l)
);
},
{
closed = 1;
nodes = (
(915,853,o),
(801,1050,o),
(577,1050,cs),
(456,1050,o),
(365,990,o),
(293,915,c),
(265,915,l),
(237,789,l),
(326,851,o),
(422,899,o),
(515,899,cs),
(705,899,o),
(749,710,o),
(749,512,cs),
(749,295,o),
(698,216,o),
(652,176,cs),
(605,135,o),
(561,121,o),
(500,121,cs),
(406,121,o),
(316,155,o),
(229,221,c),
(173,88,l),
(260,16,o),
(362,-23,o),
(473,-23,cs),
(722,-23,o),
(915,179,o),
(915,561,cs)
);
}
);
width = 1000;
}
);
unicode = 98;
},
{
glyphname = c;
lastChange = "2024-12-31 13:28:37 +0000";
layers = (
{
layerId = "759CA147-6E0D-4FC4-A3FB-2F1E1C6F2428";
shapes = (
{
closed = 1;
nodes = (
(358,1027,o),
(133,889,o),
(133,505,cs),
(133,174,o),
(301,0,o),
(598,0,cs),
(723,0,o),
(812,34,o),
(865,60,c),
(877,216,l),
(802,191,o),
(714,168,o),
(627,168,cs),
(427,168,o),
(314,275,o),
(314,544,cs),
(314,756,o),
(425,837,o),
(573,861,cs),
(665,876,o),
(778,846,o),
(877,818,c),
(862,988,l),
(793,1011,o),
(715,1027,o),
(630,1027,cs)
);
}
);
width = 1000;
}
);
unicode = 99;
},
{
glyphname = cacute;
lastChange = "2024-12-31 13:29:30 +0000";
layers = (
{
layerId = "759CA147-6E0D-4FC4-A3FB-2F1E1C6F2428";
shapes = (
{
closed = 1;
nodes = (
(358,1051,o),
(133,889,o),
(133,505,cs),
(133,174,o),
(301,-24,o),
(598,-24,cs),
(723,-24,o),
(812,10,o),
(865,36,c),
(877,192,l),
(802,167,o),
(714,144,o),
(627,144,cs),
(427,144,o),
(286,275,o),
(286,544,cs),
(286,707,o),
(340,785,o),
(379,819,cs),
(419,855,o),
(476,873,o),
(573,873,cs),
(665,873,o),
(777,856,o),
(876,830,c),
(862,1012,l),
(793,1035,o),
(715,1051,o),
(630,1051,cs)
);
},
{
closed = 1;
nodes = (
(652,1612,l),
(819,1612,l),
(617,1274,l),
(483,1274,l)
);
}
);
width = 1000;
}
);
unicode = 263;
},
{
glyphname = ccaron;
lastChange = "2024-12-31 03:15:52 +0000";
layers = (
{
layerId = "759CA147-6E0D-4FC4-A3FB-2F1E1C6F2428";
shapes = (
{
closed = 1;
nodes = (
(358,1051,o),
(133,889,o),
(133,505,cs),
(133,174,o),
(301,-24,o),
(598,-24,cs),
(723,-24,o),
(812,10,o),
(865,36,c),
(877,192,l),
(802,167,o),
(714,144,o),
(627,144,cs),
(427,144,o),
(286,275,o),
(286,544,cs),
(286,707,o),
(340,785,o),
(379,819,cs),
(419,855,o),
(476,873,o),
(573,873,cs),
(665,873,o),
(777,856,o),
(876,830,c),
(862,1012,l),
(793,1035,o),
(715,1051,o),
(630,1051,cs)
);
},
{
closed = 1;
nodes = (
(406,1612,l),
(578,1315,l),
(530,1315,l),
(702,1612,l),
(840,1612,l),
(631,1274,l),
(476,1274,l),
(268,1612,l)
);
}
);
width = 1000;
}
);
unicode = 269;
},
{
glyphname = ccedilla;
lastChange = "2024-12-31 03:15:52 +0000";
layers = (
{
layerId = "759CA147-6E0D-4FC4-A3FB-2F1E1C6F2428";
shapes = (
{
closed = 1;
nodes = (
(358,1051,o),
(133,889,o),
(133,505,cs),
(133,174,o),
(301,-24,o),
(598,-24,cs),
(723,-24,o),
(812,10,o),
(865,36,c),
(877,192,l),
(802,167,o),
(714,144,o),
(627,144,cs),
(427,144,o),
(286,275,o),
(286,544,cs),
(286,707,o),
(340,785,o),
(379,819,cs),
(419,855,o),
(476,873,o),
(573,873,cs),
(665,873,o),
(777,856,o),
(876,830,c),
(862,1012,l),
(793,1035,o),
(715,1051,o),
(630,1051,cs)
);
},
{
closed = 1;
nodes = (
(551,-220,l),
(548,48,l),
(451,48,l),
(451,-260,l),
(524,-269,o),
(570,-298,o),
(570,-373,cs),
(570,-436,o),
(539,-473,o),
(439,-473,cs),
(399,-473,l),
(399,-589,l),
(459,-589,ls),
(640,-589,o),
(690,-513,o),
(690,-385,cs),
(690,-247,o),
(631,-190,o),
(526,-168,c)
);
}
);
width = 1000;
}
);
unicode = 231;
},
{
glyphname = ccircumflex;
lastChange = "2024-12-31 03:15:52 +0000";
layers = (
{
layerId = "759CA147-6E0D-4FC4-A3FB-2F1E1C6F2428";
shapes = (
{
closed = 1;
nodes = (
(358,1051,o),
(133,889,o),
(133,505,cs),
(133,174,o),
(301,-24,o),
(598,-24,cs),
(723,-24,o),
(812,10,o),
(865,36,c),
(877,192,l),
(802,167,o),
(714,144,o),
(627,144,cs),
(427,144,o),
(286,275,o),
(286,544,cs),
(286,707,o),
(340,785,o),
(379,819,cs),
(419,855,o),
(476,873,o),
(573,873,cs),
(665,873,o),
(777,856,o),
(876,830,c),
(862,1012,l),
(793,1035,o),
(715,1051,o),
(630,1051,cs)
);
},
{
closed = 1;
nodes = (
(406,1274,l),
(578,1572,l),
(530,1572,l),
(702,1274,l),
(840,1274,l),
(631,1612,l),
(476,1612,l),
(268,1274,l)
);
}
);
width = 1000;
}
);
unicode = 265;
},
{
glyphname = cdotaccent;
lastChange = "2024-12-31 03:15:52 +0000";
layers = (
{
layerId = "759CA147-6E0D-4FC4-A3FB-2F1E1C6F2428";
shapes = (
{
closed = 1;
nodes = (
(358,1051,o),
(133,889,o),
(133,505,cs),
(133,174,o),
(301,-24,o),
(598,-24,cs),
(723,-24,o),
(812,10,o),
(865,36,c),
(877,192,l),
(802,167,o),
(714,144,o),
(627,144,cs),
(427,144,o),
(286,275,o),
(286,544,cs),
(286,707,o),
(340,785,o),
(379,819,cs),
(419,855,o),
(476,873,o),
(573,873,cs),
(665,873,o),
(777,856,o),
(876,830,c),
(862,1012,l),
(793,1035,o),
(715,1051,o),
(630,1051,cs)
);
},
{
closed = 1;
nodes = (
(620,1286,o),
(666,1335,o),
(666,1415,cs),
(666,1495,o),
(620,1543,o),
(554,1543,cs),
(487,1543,o),
(441,1495,o),
(441,1415,cs),
(441,1335,o),
(487,1286,o),
(554,1286,cs)
);
}
);
width = 1000;
}
);
unicode = 267;
},
{
glyphname = d;
lastChange = "2024-12-31 03:15:52 +0000";
layers = (
{
layerId = "759CA147-6E0D-4FC4-A3FB-2F1E1C6F2428";
shapes = (
{
closed = 1;
nodes = (
(726,165,l),
(726,0,l),
(870,0,l),
(870,1530,l),
(715,1530,l),
(715,179,l)
);
},
{
closed = 1;
nodes = (
(85,174,o),
(199,-23,o),
(423,-23,cs),
(544,-23,o),
(635,37,o),
(707,112,c),
(735,112,l),
(763,237,l),
(674,176,o),
(578,128,o),
(486,128,cs),
(295,128,o),
(251,316,o),
(251,515,cs),
(251,732,o),
(302,811,o),
(348,851,cs),
(395,891,o),
(440,906,o),
(500,906,cs),
(594,906,o),
(684,872,o),
(771,805,c),
(827,939,l),
(740,1011,o),
(638,1050,o),
(527,1050,cs),
(278,1050,o),
(85,848,o),
(85,465,cs)
);
}
);
width = 1000;
}
);
unicode = 100;
},
{
glyphname = dcaron;
lastChange = "2024-12-31 03:15:52 +0000";
layers = (
{
layerId = "759CA147-6E0D-4FC4-A3FB-2F1E1C6F2428";
shapes = (
{
closed = 1;
nodes = (
(95,174,o),
(197,-23,o),
(399,-23,cs),
(504,-23,o),
(577,37,o),
(645,112,c),
(673,112,l),
(701,237,l),
(612,176,o),
(530,128,o),
(454,128,cs),
(290,128,o),
(252,316,o),
(252,515,cs),
(252,732,o),
(294,806,o),
(339,850,cs),
(376,887,o),
(431,906,o),
(495,906,cs),
(561,906,o),
(630,875,o),
(717,809,c),
(766,939,l),
(678,1011,o),
(587,1050,o),
(498,1050,cs),
(272,1050,o),
(95,841,o),
(95,465,cs)
);
},
{
closed = 1;
nodes = (
(663,165,l),
(663,0,l),
(804,0,l),
(804,1530,l),
(652,1530,l),
(652,179,l)
);
},
{
closed = 1;
nodes = (
(1052,1292,l),
(1084,1648,l),
(955,1648,l),
(942,1292,l)
);
}
);
width = 1000;
}
);
unicode = 271;
},
{
glyphname = dcroat;
lastChange = "2024-12-31 03:15:52 +0000";
layers = (
{
layerId = "759CA147-6E0D-4FC4-A3FB-2F1E1C6F2428";
shapes = (
{
closed = 1;
nodes = (
(348,1377,l),
(348,1258,l),
(956,1258,l),
(956,1377,l),
(784,1377,l),
(761,1377,l)
);
},
{
closed = 1;
nodes = (
(726,165,l),
(726,0,l),
(870,0,l),
(870,1530,l),
(715,1530,l),
(715,179,l)
);
},
{
closed = 1;
nodes = (
(85,174,o),
(199,-23,o),
(423,-23,cs),
(544,-23,o),
(635,37,o),
(707,112,c),
(735,112,l),
(763,237,l),
(674,176,o),
(578,128,o),
(486,128,cs),
(295,128,o),
(251,316,o),
(251,515,cs),
(251,732,o),
(302,811,o),
(348,851,cs),
(395,891,o),
(440,906,o),
(500,906,cs),
(594,906,o),
(684,872,o),
(771,805,c),
(827,939,l),
(740,1011,o),
(638,1050,o),
(527,1050,cs),
(278,1050,o),
(85,848,o),
(85,465,cs)
);
}
);
width = 1000;
}
);
unicode = 273;
},
{
glyphname = eth;
lastChange = "2024-12-31 03:15:52 +0000";
layers = (
{
layerId = "759CA147-6E0D-4FC4-A3FB-2F1E1C6F2428";
shapes = (
{
closed = 1;
nodes = (
(206,1250,l),
(240,1143,l),
(818,1433,l),
(785,1539,l)
);
},
{
closed = 1;
nodes = (
(699,-24,o),
(901,132,o),
(901,529,cs),
(901,806,o),
(821,1017,o),
(690,1230,cs),
(620,1345,o),
(526,1465,o),
(457,1553,c),
(321,1481,l),
(386,1392,o),
(474,1283,o),
(548,1155,cs),
(679,927,o),
(748,760,o),
(746,497,cs),
(746,277,o),
(696,201,o),
(661,171,cs),
(627,142,o),
(578,127,o),
(512,127,cs),
(281,127,o),
(255,340,o),
(255,509,cs),
(255,710,o),
(300,784,o),
(336,815,cs),
(372,845,o),
(421,859,o),
(485,859,cs),
(608,859,o),
(707,811,o),
(789,720,c),
(704,943,l),
(644,983,o),
(574,1007,o),
(498,1007,cs),
(304,1007,o),
(97,852,o),
(97,488,cs),
(97,160,o),
(260,-24,o),
(493,-24,cs)
);
}
);
width = 1000;
}
);
unicode = 240;
},
{
glyphname = e;
lastChange = "2024-12-31 04:41:05 +0000";
layers = (
{
layerId = "759CA147-6E0D-4FC4-A3FB-2F1E1C6F2428";
shapes = (
{
closed = 1;
nodes = (
(333,909,o),
(520,909,cs),
(660,909,o),
(732,829,o),
(732,667,cs),
(732,625,o),
(728,592,o),
(723,564,c),
(764,634,l),
(249,634,l),
(249,519,l),
(878,519,l),
(878,639,ls),
(878,867,o),
(757,1027,o),
(524,1027,cs),
(234,1027,o),
(122,871,o),
(122,487,cs),
(122,164,o),
(270,0,o),
(554,0,cs),
(675,0,o),
(773,35,o),
(834,63,c),
(841,213,l),
(778,185,o),
(694,160,o),
(596,160,cs),
(331,160,o),
(270,322,o),
(270,553,cs),
(270,748,o)
);
}
);
width = 1000;
}
);
unicode = 101;
},
{
glyphname = eacute;
lastChange = "2024-12-31 03:15:52 +0000";
layers = (
{
layerId = "759CA147-6E0D-4FC4-A3FB-2F1E1C6F2428";
shapes = (
{
closed = 1;
nodes = (
(400,886,o),
(451,909,o),
(525,909,cs),
(665,909,o),
(732,829,o),
(732,667,cs),
(732,625,o),
(728,592,o),
(723,564,c),
(764,634,l),
(249,634,l),
(249,519,l),
(878,519,l),
(878,639,ls),
(878,867,o),
(794,1051,o),
(561,1051,cs),
(331,1051,o),
(121,871,o),
(121,487,cs),
(121,164,o),
(270,-24,o),
(554,-24,cs),
(675,-24,o),
(773,11,o),
(834,39,c),
(841,189,l),
(778,161,o),
(694,136,o),
(596,136,cs),
(331,136,o),
(270,322,o),
(270,553,cs),
(270,737,o),
(330,822,o),
(370,859,cs)
);
},
{
closed = 1;
nodes = (
(609,1612,l),
(777,1612,l),
(573,1274,l),
(440,1274,l)
);
}
);
width = 1000;
}
);
unicode = 233;
},
{
glyphname = ebreve;
lastChange = "2024-12-31 03:15:52 +0000";
layers = (
{
layerId = "759CA147-6E0D-4FC4-A3FB-2F1E1C6F2428";
shapes = (
{
closed = 1;
nodes = (
(400,886,o),
(451,909,o),
(525,909,cs),
(665,909,o),
(732,829,o),
(732,667,cs),
(732,625,o),
(728,592,o),
(723,564,c),
(764,634,l),
(249,634,l),
(249,519,l),
(878,519,l),
(878,639,ls),
(878,867,o),
(794,1051,o),
(561,1051,cs),
(331,1051,o),
(121,871,o),
(121,487,cs),
(121,164,o),
(270,-24,o),
(554,-24,cs),
(675,-24,o),
(773,11,o),
(834,39,c),
(841,189,l),
(778,161,o),
(694,136,o),
(596,136,cs),
(331,136,o),
(270,322,o),
(270,553,cs),
(270,737,o),
(330,822,o),
(370,859,cs)
);
},
{
closed = 1;
nodes = (
(264,1389,o),
(345,1266,o),
(511,1266,cs),
(677,1266,o),
(758,1389,o),
(751,1612,c),
(649,1612,l),
(649,1476,o),
(611,1396,o),
(511,1396,cs),
(411,1396,o),
(372,1476,o),
(372,1612,c),
(270,1612,l)
);
}
);
width = 1000;
}
);
unicode = 277;
},
{
glyphname = ecaron;
lastChange = "2024-12-31 03:15:52 +0000";
layers = (
{
layerId = "759CA147-6E0D-4FC4-A3FB-2F1E1C6F2428";
shapes = (
{
closed = 1;
nodes = (
(400,886,o),
(451,909,o),
(525,909,cs),
(665,909,o),
(732,829,o),
(732,667,cs),
(732,625,o),
(728,592,o),
(723,564,c),
(764,634,l),
(249,634,l),
(249,519,l),
(878,519,l),
(878,639,ls),
(878,867,o),
(794,1051,o),
(561,1051,cs),
(331,1051,o),
(121,871,o),
(121,487,cs),
(121,164,o),
(270,-24,o),
(554,-24,cs),
(675,-24,o),
(773,11,o),
(834,39,c),
(841,189,l),
(778,161,o),
(694,136,o),
(596,136,cs),
(331,136,o),
(270,322,o),
(270,553,cs),
(270,737,o),
(330,822,o),
(370,859,cs)
);
},
{
closed = 1;
nodes = (
(363,1612,l),
(535,1315,l),
(486,1315,l),
(658,1612,l),
(797,1612,l),
(589,1274,l),
(433,1274,l),
(224,1612,l)
);
}
);
width = 1000;
}
);
unicode = 283;
},
{
glyphname = ecircumflex;
lastChange = "2024-12-31 03:15:52 +0000";
layers = (
{
layerId = "759CA147-6E0D-4FC4-A3FB-2F1E1C6F2428";
shapes = (
{
closed = 1;
nodes = (
(400,886,o),
(451,909,o),
(525,909,cs),
(665,909,o),
(732,829,o),
(732,667,cs),
(732,625,o),
(728,592,o),
(723,564,c),
(764,634,l),
(249,634,l),
(249,519,l),
(878,519,l),
(878,639,ls),
(878,867,o),
(794,1051,o),
(561,1051,cs),
(331,1051,o),
(121,871,o),
(121,487,cs),
(121,164,o),
(270,-24,o),
(554,-24,cs),
(675,-24,o),
(773,11,o),
(834,39,c),
(841,189,l),
(778,161,o),
(694,136,o),
(596,136,cs),
(331,136,o),
(270,322,o),
(270,553,cs),
(270,737,o),
(330,822,o),
(370,859,cs)
);
},
{
closed = 1;
nodes = (
(363,1274,l),
(535,1572,l),
(486,1572,l),
(658,1274,l),
(797,1274,l),
(589,1612,l),
(433,1612,l),
(224,1274,l)
);
}
);
width = 1000;
}
);
unicode = 234;
},
{
glyphname = edieresis;
lastChange = "2024-12-31 03:15:52 +0000";
layers = (
{
layerId = "759CA147-6E0D-4FC4-A3FB-2F1E1C6F2428";
shapes = (
{
closed = 1;
nodes = (
(400,886,o),
(451,909,o),
(525,909,cs),
(665,909,o),
(732,829,o),
(732,667,cs),
(732,625,o),
(728,592,o),
(723,564,c),
(764,634,l),
(249,634,l),
(249,519,l),
(878,519,l),
(878,639,ls),
(878,867,o),
(794,1051,o),
(561,1051,cs),
(331,1051,o),
(121,871,o),
(121,487,cs),
(121,164,o),
(270,-24,o),
(554,-24,cs),
(675,-24,o),
(773,11,o),
(834,39,c),
(841,189,l),
(778,161,o),
(694,136,o),
(596,136,cs),
(331,136,o),
(270,322,o),
(270,553,cs),
(270,737,o),
(330,822,o),
(370,859,cs)
);
},
{
closed = 1;
nodes = (
(365,1284,o),
(407,1333,o),
(407,1413,cs),
(407,1493,o),
(365,1541,o),
(303,1541,cs),
(241,1541,o),
(198,1493,o),
(198,1413,cs),
(198,1333,o),
(241,1284,o),
(303,1284,cs)
);
},
{
closed = 1;
nodes = (
(781,1284,o),
(823,1333,o),
(823,1413,cs),
(823,1493,o),
(781,1541,o),
(719,1541,cs),
(657,1541,o),
(615,1493,o),
(615,1413,cs),
(615,1333,o),
(657,1284,o),
(719,1284,cs)
);
}
);
width = 1000;
}
);
unicode = 235;
},
{
glyphname = edotaccent;
lastChange = "2024-12-31 03:15:52 +0000";
layers = (
{
layerId = "759CA147-6E0D-4FC4-A3FB-2F1E1C6F2428";
shapes = (
{
closed = 1;
nodes = (
(400,886,o),
(451,909,o),
(525,909,cs),
(665,909,o),
(732,829,o),
(732,667,cs),
(732,625,o),
(728,592,o),
(723,564,c),
(764,634,l),
(249,634,l),
(249,519,l),
(878,519,l),
(878,639,ls),
(878,867,o),
(794,1051,o),
(561,1051,cs),
(331,1051,o),
(121,871,o),
(121,487,cs),
(121,164,o),
(270,-24,o),
(554,-24,cs),
(675,-24,o),
(773,11,o),
(834,39,c),
(841,189,l),
(778,161,o),
(694,136,o),
(596,136,cs),
(331,136,o),
(270,322,o),
(270,553,cs),
(270,737,o),
(330,822,o),
(370,859,cs)
);
},
{
closed = 1;
nodes = (
(577,1286,o),
(623,1335,o),
(623,1415,cs),
(623,1495,o),
(577,1543,o),
(511,1543,cs),
(444,1543,o),
(398,1495,o),
(398,1415,cs),
(398,1335,o),
(444,1286,o),
(511,1286,cs)
);
}
);
width = 1000;
}
);
unicode = 279;
},
{
glyphname = edotbelow;
lastChange = "2024-12-31 03:15:52 +0000";
layers = (
{
layerId = "759CA147-6E0D-4FC4-A3FB-2F1E1C6F2428";
shapes = (
{
closed = 1;
nodes = (
(400,886,o),
(451,909,o),
(525,909,cs),
(665,909,o),
(732,829,o),
(732,667,cs),
(732,625,o),
(728,592,o),
(723,564,c),
(764,634,l),
(249,634,l),
(249,519,l),
(878,519,l),
(878,639,ls),
(878,867,o),
(794,1051,o),
(561,1051,cs),
(331,1051,o),
(121,871,o),
(121,487,cs),
(121,164,o),
(270,-24,o),
(554,-24,cs),
(675,-24,o),
(773,11,o),
(834,39,c),
(841,189,l),
(778,161,o),
(694,136,o),
(596,136,cs),
(331,136,o),
(270,322,o),
(270,553,cs),
(270,737,o),
(330,822,o),
(370,859,cs)
);
},
{
closed = 1;
nodes = (
(566,-515,o),
(612,-466,o),
(612,-386,cs),
(612,-306,o),
(566,-258,o),
(500,-258,cs),
(434,-258,o),
(388,-306,o),
(388,-386,cs),
(388,-466,o),
(434,-515,o),
(500,-515,cs)
);
}
);
width = 1000;
}
);
unicode = 7865;
},
{
glyphname = egrave;
lastChange = "2024-12-31 03:15:52 +0000";
layers = (
{
layerId = "759CA147-6E0D-4FC4-A3FB-2F1E1C6F2428";
shapes = (
{
closed = 1;
nodes = (
(400,886,o),
(451,909,o),
(525,909,cs),
(665,909,o),
(732,829,o),
(732,667,cs),
(732,625,o),
(728,592,o),
(723,564,c),
(764,634,l),
(249,634,l),
(249,519,l),
(878,519,l),
(878,639,ls),
(878,867,o),
(794,1051,o),
(561,1051,cs),
(331,1051,o),
(121,871,o),
(121,487,cs),
(121,164,o),
(270,-24,o),
(554,-24,cs),
(675,-24,o),
(773,11,o),
(834,39,c),
(841,189,l),
(778,161,o),
(694,136,o),
(596,136,cs),
(331,136,o),
(270,322,o),
(270,553,cs),
(270,737,o),
(330,822,o),
(370,859,cs)
);
},
{
closed = 1;
nodes = (
(413,1612,l),
(245,1612,l),
(448,1274,l),
(581,1274,l)
);
}
);
width = 1000;
}
);
unicode = 232;
},
{
glyphname = emacron;
lastChange = "2024-12-31 03:15:52 +0000";
layers = (
{
layerId = "759CA147-6E0D-4FC4-A3FB-2F1E1C6F2428";
shapes = (
{
closed = 1;
nodes = (
(400,886,o),
(451,909,o),
(525,909,cs),
(665,909,o),
(732,829,o),
(732,667,cs),
(732,625,o),
(728,592,o),
(723,564,c),
(764,634,l),
(249,634,l),
(249,519,l),
(878,519,l),
(878,639,ls),
(878,867,o),
(794,1051,o),
(561,1051,cs),
(331,1051,o),
(121,871,o),
(121,487,cs),
(121,164,o),
(270,-24,o),
(554,-24,cs),
(675,-24,o),
(773,11,o),
(834,39,c),
(841,189,l),
(778,161,o),
(694,136,o),
(596,136,cs),
(331,136,o),
(270,322,o),
(270,553,cs),
(270,737,o),
(330,822,o),
(370,859,cs)
);
},
{
closed = 1;
nodes = (
(252,1457,l),
(252,1326,l),
(769,1326,l),
(769,1457,l)
);
}
);
width = 1000;
}
);
unicode = 275;
},
{
glyphname = eogonek;
lastChange = "2024-12-31 03:15:52 +0000";
layers = (
{
layerId = "759CA147-6E0D-4FC4-A3FB-2F1E1C6F2428";
shapes = (
{
closed = 1;
nodes = (
(400,886,o),
(451,909,o),
(525,909,cs),
(665,909,o),
(732,829,o),
(732,667,cs),
(732,625,o),
(728,592,o),
(723,564,c),
(764,634,l),
(249,634,l),
(249,519,l),
(878,519,l),
(878,639,ls),
(878,867,o),
(794,1051,o),
(561,1051,cs),
(331,1051,o),
(121,871,o),
(121,487,cs),
(121,164,o),
(270,-24,o),
(554,-24,cs),
(675,-24,o),
(773,11,o),
(834,39,c),
(841,189,l),
(778,161,o),
(694,136,o),
(596,136,cs),
(331,136,o),
(270,322,o),
(270,553,cs),
(270,737,o),
(330,822,o),
(370,859,cs)
);
},
{
closed = 1;
nodes = (
(457,-73,o),
(407,-156,o),
(407,-253,cs),
(407,-337,o),
(445,-420,o),
(596,-420,cs),
(655,-420,l),
(655,-288,l),
(631,-288,ls),
(565,-288,o),
(541,-258,o),
(541,-212,cs),
(541,-159,o),
(571,-94,o),
(655,-6,c),
(561,31,l)
);
}
);
width = 1000;
}
);
unicode = 281;
},
{
glyphname = etilde;
lastChange = "2024-12-31 03:15:52 +0000";
layers = (
{
layerId = "759CA147-6E0D-4FC4-A3FB-2F1E1C6F2428";
shapes = (
{
closed = 1;
nodes = (
(400,886,o),
(451,909,o),
(525,909,cs),
(665,909,o),
(732,829,o),
(732,667,cs),
(732,625,o),
(728,592,o),
(723,564,c),
(764,634,l),
(249,634,l),
(249,519,l),
(878,519,l),
(878,639,ls),
(878,867,o),
(794,1051,o),
(561,1051,cs),
(331,1051,o),
(121,871,o),
(121,487,cs),
(121,164,o),
(270,-24,o),
(554,-24,cs),
(675,-24,o),
(773,11,o),
(834,39,c),
(841,189,l),
(778,161,o),
(694,136,o),
(596,136,cs),
(331,136,o),
(270,322,o),
(270,553,cs),
(270,737,o),
(330,822,o),
(370,859,cs)
);
},
{
closed = 1;
nodes = (
(280,1599,o),
(216,1494,o),
(200,1308,c),
(305,1268,l),
(318,1376,o),
(347,1448,o),
(395,1448,cs),
(475,1448,o),
(516,1251,o),
(644,1251,cs),
(736,1251,o),
(801,1356,o),
(816,1542,c),
(711,1581,l),
(698,1474,o),
(670,1402,o),
(623,1402,cs),
(542,1402,o),
(499,1599,o),
(373,1599,cs)
);
}
);
width = 1000;
}
);
unicode = 7869;
},
{
glyphname = schwa;
lastChange = "2024-12-31 03:15:52 +0000";
layers = (
{
layerId = "759CA147-6E0D-4FC4-A3FB-2F1E1C6F2428";
shapes = (
{
closed = 1;
nodes = (
(600,141,o),
(549,117,o),
(475,117,cs),
(335,117,o),
(268,198,o),
(268,359,cs),
(268,402,o),
(272,435,o),
(277,463,c),
(236,392,l),
(751,392,l),
(751,508,l),
(122,508,l),
(122,388,ls),
(122,160,o),
(206,-24,o),
(439,-24,cs),
(669,-24,o),
(879,156,o),
(879,540,cs),
(879,863,o),
(730,1051,o),
(446,1051,cs),
(325,1051,o),
(227,1016,o),
(166,988,c),
(159,838,l),
(222,865,o),
(306,891,o),
(404,891,cs),
(669,891,o),
(730,704,o),
(730,474,cs),
(730,290,o),
(670,205,o),
(630,168,cs)
);
}
);
width = 1000;
}
);
unicode = 601;
},
{
glyphname = f;
lastChange = "2024-12-31 04:30:14 +0000";
layers = (
{
layerId = "759CA147-6E0D-4FC4-A3FB-2F1E1C6F2428";
shapes = (
{
closed = 1;
nodes = (
(886,1608,o),
(834,1616,o),
(778,1616,cs),
(521,1616,o),
(376,1440,o),
(376,1089,cs),
(376,0,l),
(532,0,l),
(532,1229,ls),
(532,1328,o),
(548,1374,o),
(573,1402,cs),
(598,1430,o),
(647,1454,o),
(731,1454,cs),
(819,1454,o),
(893,1440,o),
(957,1417,c),
(931,1595,l)
);
},
{
closed = 1;
nodes = (
(427,1025,l),
(86,1027,l),
(86,876,l),
(911,876,l),
(940,1025,l),
(451,1025,l)
);
}
);
width = 1000;
}
);
unicode = 102;
},
{
glyphname = g;
lastChange = "2024-12-31 07:50:02 +0000";
layers = (
{
layerId = "759CA147-6E0D-4FC4-A3FB-2F1E1C6F2428";
shapes = (
{
closed = 1;
nodes = (
(650,364,o),
(814,503,o),
(814,712,cs),
(814,801,o),
(782,862,o),
(745,908,c),
(738,946,l),
(671,1016,o),
(568,1051,o),
(464,1051,cs),
(247,1051,o),
(114,906,o),
(114,704,cs),
(114,517,o),
(252,364,o),
(448,364,cs)
);
},
{
closed = 1;
nodes = (
(707,901,l),
(941,918,l),
(916,1063,l),
(830,1058,o),
(742,1009,o),
(695,974,c)
);
},
{
closed = 1;
nodes = (
(304,350,ls),
(286,302,o),
(245,220,o),
(245,165,cs),
(245,101,o),
(296,59,o),
(400,37,cs),
(657,-17,ls),
(745,-36,o),
(792,-69,o),
(792,-131,cs),
(792,-246,o),
(676,-302,o),
(501,-302,cs),
(344,-302,o),
(208,-257,o),
(208,-155,cs),
(208,-56,o),
(295,17,o),
(374,64,c),
(313,119,l),
(196,28,ls),
(102,-47,o),
(59,-110,o),
(59,-193,cs),
(59,-356,o),
(288,-429,o),
(501,-429,cs),
(779,-429,o),
(935,-307,o),
(935,-87,cs),
(935,73,o),
(824,114,o),
(733,135,cs),
(410,206,ls),
(378,213,o),
(365,228,o),
(375,274,cs),
(417,422,l),
(338,442,l)
);
},
{
closed = 1;
nodes = (
(669,588,o),
(600,496,o),
(464,496,cs),
(328,496,o),
(263,588,o),
(263,704,cs),
(263,820,o),
(328,912,o),
(464,912,cs),
(600,912,o),
(669,820,o),
(669,704,cs)
);
}
);
width = 1000;
}
);
unicode = 103;
},
{
glyphname = gbreve;
lastChange = "2024-12-31 03:15:52 +0000";
layers = (
{
layerId = "759CA147-6E0D-4FC4-A3FB-2F1E1C6F2428";
shapes = (
{
closed = 1;
nodes = (
(645,364,o),
(809,503,o),
(809,712,cs),
(809,801,o),
(777,862,o),
(740,908,c),
(733,946,l),
(666,1016,o),
(581,1051,o),
(477,1051,cs),
(260,1051,o),
(109,897,o),
(109,695,cs),
(109,508,o),
(247,364,o),
(443,364,cs)
);
},
{
closed = 1;
nodes = (
(702,901,l),
(936,918,l),
(911,1063,l),
(825,1058,o),
(737,1009,o),
(690,974,c)
);
},
{
closed = 1;
nodes = (
(299,350,ls),
(281,302,o),
(240,220,o),
(240,165,cs),
(240,101,o),
(291,59,o),
(395,37,cs),
(652,-17,ls),
(740,-36,o),
(787,-69,o),
(787,-131,cs),
(787,-246,o),
(634,-304,o),
(459,-304,cs),
(302,-304,o),
(203,-257,o),
(203,-155,cs),
(203,-56,o),
(290,17,o),
(369,64,c),
(308,119,l),
(191,28,ls),
(97,-47,o),
(54,-110,o),
(54,-193,cs),
(54,-356,o),
(219,-432,o),
(432,-432,cs),
(710,-432,o),
(930,-307,o),
(930,-87,cs),
(930,73,o),
(819,114,o),
(728,135,cs),
(405,206,ls),
(373,213,o),
(360,228,o),
(370,274,cs),
(412,422,l),
(333,442,l)
);
},
{
closed = 1;
nodes = (
(664,598,o),
(648,557,o),
(627,536,cs),
(606,515,o),
(568,496,o),
(490,496,cs),
(323,496,o),
(258,587,o),
(258,732,cs),
(258,811,o),
(273,852,o),
(294,873,cs),
(315,894,o),
(354,913,o),
(432,913,cs),
(598,913,o),
(664,822,o),
(664,677,cs)
);
},
{
closed = 1;
nodes = (
(252,1389,o),
(335,1266,o),
(500,1266,cs),
(665,1266,o),
(748,1389,o),
(740,1612,c),
(639,1612,l),
(639,1476,o),
(599,1396,o),
(500,1396,cs),
(401,1396,o),
(361,1476,o),
(361,1612,c),
(260,1612,l)
);
}
);
width = 1000;
}
);
unicode = 287;
},
{
glyphname = gcaron;
lastChange = "2024-12-31 03:15:52 +0000";
layers = (
{
layerId = "759CA147-6E0D-4FC4-A3FB-2F1E1C6F2428";
shapes = (
{
closed = 1;
nodes = (
(645,364,o),
(809,503,o),
(809,712,cs),
(809,801,o),
(777,862,o),
(740,908,c),
(733,946,l),
(666,1016,o),
(581,1051,o),
(477,1051,cs),
(260,1051,o),
(109,897,o),
(109,695,cs),
(109,508,o),
(247,364,o),
(443,364,cs)
);
},
{
closed = 1;
nodes = (
(702,901,l),
(936,918,l),
(911,1063,l),
(825,1058,o),
(737,1009,o),
(690,974,c)
);
},
{
closed = 1;
nodes = (
(299,350,ls),
(281,302,o),
(240,220,o),
(240,165,cs),
(240,101,o),
(291,59,o),
(395,37,cs),
(652,-17,ls),
(740,-36,o),
(787,-69,o),
(787,-131,cs),
(787,-246,o),
(634,-304,o),
(459,-304,cs),
(302,-304,o),
(203,-257,o),
(203,-155,cs),
(203,-56,o),
(290,17,o),
(369,64,c),
(308,119,l),
(191,28,ls),
(97,-47,o),
(54,-110,o),
(54,-193,cs),
(54,-356,o),
(219,-432,o),
(432,-432,cs),
(710,-432,o),
(930,-307,o),
(930,-87,cs),
(930,73,o),
(819,114,o),
(728,135,cs),
(405,206,ls),
(373,213,o),
(360,228,o),
(370,274,cs),
(412,422,l),
(333,442,l)
);
},
{
closed = 1;
nodes = (
(664,598,o),
(648,557,o),
(627,536,cs),
(606,515,o),
(568,496,o),
(490,496,cs),
(323,496,o),
(258,587,o),
(258,732,cs),
(258,811,o),
(273,852,o),
(294,873,cs),
(315,894,o),
(354,913,o),
(432,913,cs),
(598,913,o),
(664,822,o),
(664,677,cs)
);
},
{
closed = 1;
nodes = (
(352,1612,l),
(524,1315,l),
(476,1315,l),
(648,1612,l),
(786,1612,l),
(577,1274,l),
(423,1274,l),
(214,1612,l)
);
}
);
width = 1000;
}
);
unicode = 487;
},
{
glyphname = gcircumflex;
lastChange = "2024-12-31 03:15:52 +0000";
layers = (
{
layerId = "759CA147-6E0D-4FC4-A3FB-2F1E1C6F2428";
shapes = (
{
closed = 1;
nodes = (
(645,364,o),
(809,503,o),
(809,712,cs),
(809,801,o),
(777,862,o),
(740,908,c),
(733,946,l),
(666,1016,o),
(581,1051,o),
(477,1051,cs),
(260,1051,o),
(109,897,o),
(109,695,cs),
(109,508,o),
(247,364,o),
(443,364,cs)
);
},
{
closed = 1;
nodes = (
(702,901,l),
(936,918,l),
(911,1063,l),
(825,1058,o),
(737,1009,o),
(690,974,c)
);
},
{
closed = 1;
nodes = (
(299,350,ls),
(281,302,o),
(240,220,o),
(240,165,cs),
(240,101,o),
(291,59,o),
(395,37,cs),
(652,-17,ls),
(740,-36,o),
(787,-69,o),
(787,-131,cs),
(787,-246,o),
(634,-304,o),
(459,-304,cs),
(302,-304,o),
(203,-257,o),
(203,-155,cs),
(203,-56,o),
(290,17,o),
(369,64,c),
(308,119,l),
(191,28,ls),
(97,-47,o),
(54,-110,o),
(54,-193,cs),
(54,-356,o),
(219,-432,o),
(432,-432,cs),
(710,-432,o),
(930,-307,o),
(930,-87,cs),
(930,73,o),
(819,114,o),
(728,135,cs),
(405,206,ls),
(373,213,o),
(360,228,o),
(370,274,cs),
(412,422,l),
(333,442,l)
);
},
{
closed = 1;
nodes = (
(664,598,o),
(648,557,o),
(627,536,cs),
(606,515,o),
(568,496,o),
(490,496,cs),
(323,496,o),
(258,587,o),
(258,732,cs),
(258,811,o),
(273,852,o),
(294,873,cs),
(315,894,o),
(354,913,o),
(432,913,cs),
(598,913,o),
(664,822,o),
(664,677,cs)
);
},
{
closed = 1;
nodes = (
(352,1274,l),
(524,1572,l),
(476,1572,l),
(648,1274,l),
(786,1274,l),
(577,1612,l),
(423,1612,l),
(214,1274,l)
);
}
);
width = 1000;
}
);
unicode = 285;
},
{
glyphname = gcommaaccent;
lastChange = "2024-12-31 03:15:52 +0000";
layers = (
{
layerId = "759CA147-6E0D-4FC4-A3FB-2F1E1C6F2428";
shapes = (
{
closed = 1;
nodes = (
(645,364,o),
(809,503,o),
(809,712,cs),
(809,801,o),
(777,862,o),
(740,908,c),
(733,946,l),
(666,1016,o),
(581,1051,o),
(477,1051,cs),
(260,1051,o),
(109,897,o),
(109,695,cs),
(109,508,o),
(247,364,o),
(443,364,cs)
);
},
{
closed = 1;
nodes = (
(702,901,l),
(936,918,l),
(911,1063,l),
(825,1058,o),
(737,1009,o),
(690,974,c)
);
},
{
closed = 1;
nodes = (
(299,350,ls),
(281,302,o),
(240,220,o),
(240,165,cs),
(240,101,o),
(291,59,o),
(395,37,cs),
(652,-17,ls),
(740,-36,o),
(787,-69,o),
(787,-131,cs),
(787,-246,o),
(634,-304,o),
(459,-304,cs),
(302,-304,o),
(203,-257,o),
(203,-155,cs),
(203,-56,o),
(290,17,o),
(369,64,c),
(308,119,l),
(191,28,ls),
(97,-47,o),
(54,-110,o),
(54,-193,cs),
(54,-356,o),
(219,-432,o),
(432,-432,cs),
(710,-432,o),
(930,-307,o),
(930,-87,cs),
(930,73,o),
(819,114,o),
(728,135,cs),
(405,206,ls),
(373,213,o),
(360,228,o),
(370,274,cs),
(412,422,l),
(333,442,l)
);
},
{
closed = 1;
nodes = (
(664,598,o),
(648,557,o),
(627,536,cs),
(606,515,o),
(568,496,o),
(490,496,cs),
(323,496,o),
(258,587,o),
(258,732,cs),
(258,811,o),
(273,852,o),
(294,873,cs),
(315,894,o),
(354,913,o),
(432,913,cs),
(598,913,o),
(664,822,o),
(664,677,cs)
);
},
{
closed = 1;
nodes = (
(481,1543,o),
(461,1539,o),
(443,1527,c),
(470,1497,l),
(483,1593,o),
(550,1650,o),
(625,1706,c),
(572,1787,l),
(472,1725,o),
(377,1612,o),
(377,1459,cs),
(377,1340,o),
(433,1286,o),
(502,1286,cs),
(566,1286,o),
(615,1333,o),
(615,1414,cs),
(615,1494,o),
(568,1543,o),
(501,1543,cs)
);
}
);
width = 1000;
}
);
unicode = 291;
},
{
glyphname = gdotaccent;
lastChange = "2024-12-31 03:15:52 +0000";
layers = (
{
layerId = "759CA147-6E0D-4FC4-A3FB-2F1E1C6F2428";
shapes = (
{
closed = 1;
nodes = (
(645,364,o),
(809,503,o),
(809,712,cs),
(809,801,o),
(777,862,o),
(740,908,c),
(733,946,l),
(666,1016,o),
(581,1051,o),
(477,1051,cs),
(260,1051,o),
(109,897,o),
(109,695,cs),
(109,508,o),
(247,364,o),
(443,364,cs)
);
},
{
closed = 1;
nodes = (
(702,901,l),
(936,918,l),
(911,1063,l),
(825,1058,o),
(737,1009,o),
(690,974,c)
);
},
{
closed = 1;
nodes = (
(299,350,ls),
(281,302,o),
(240,220,o),
(240,165,cs),
(240,101,o),
(291,59,o),
(395,37,cs),
(652,-17,ls),
(740,-36,o),
(787,-69,o),
(787,-131,cs),
(787,-246,o),
(634,-304,o),
(459,-304,cs),
(302,-304,o),
(203,-257,o),
(203,-155,cs),
(203,-56,o),
(290,17,o),
(369,64,c),
(308,119,l),
(191,28,ls),
(97,-47,o),
(54,-110,o),
(54,-193,cs),
(54,-356,o),
(219,-432,o),
(432,-432,cs),
(710,-432,o),
(930,-307,o),
(930,-87,cs),
(930,73,o),
(819,114,o),
(728,135,cs),
(405,206,ls),
(373,213,o),
(360,228,o),
(370,274,cs),
(412,422,l),
(333,442,l)
);
},
{
closed = 1;
nodes = (
(664,598,o),
(648,557,o),
(627,536,cs),
(606,515,o),
(568,496,o),
(490,496,cs),
(323,496,o),
(258,587,o),
(258,732,cs),
(258,811,o),
(273,852,o),
(294,873,cs),
(315,894,o),
(354,913,o),
(432,913,cs),
(598,913,o),
(664,822,o),
(664,677,cs)
);
},
{
closed = 1;
nodes = (
(566,1286,o),
(612,1335,o),
(612,1415,cs),
(612,1495,o),
(566,1543,o),
(500,1543,cs),
(434,1543,o),
(388,1495,o),
(388,1415,cs),
(388,1335,o),
(434,1286,o),
(500,1286,cs)
);
}
);
width = 1000;
}
);
unicode = 289;
},
